0
SECTION
2
HEADER
9
$INSUNITS
70
4
0
ENDSEC
0
SECTION
2
TABLES
0
TABLE
2
LTYPE
0
LTYPE
72
65
70
0
2
CONTINUOUS
3
______
73
0
40
0
0
LTYPE
72
65
70
0
2
DASHED
3
_ _ _ 
73
2
40
7.5
49
5
49
-2.5
0
LTYPE
72
65
70
0
2
DOTTED
3
. . . 
73
2
40
1.5
49
0.5
49
-1
0
ENDTAB
0
TABLE
2
LAYER
0
ENDTAB
0
ENDSEC
0
SECTION
2
ENTITIES
0
LINE
8
0
6
CONTINUOUS
10
158
20
-169.2
11
158
21
-74.5
0
ARC
8
0
6
CONTINUOUS
10
160.5
20
-74.5
40
2.5
50
90
51
180
0
LINE
8
0
6
CONTINUOUS
10
160.5
20
-72
11
236.2
21
-72
0
ARC
8
0
6
CONTINUOUS
10
236.2
20
-74.5
40
2.5
50
0
51
90
0
LINE
8
0
6
CONTINUOUS
10
238.7
20
-74.5
11
238.7
21
-169.2
0
ARC
8
0
6
CONTINUOUS
10
236.2
20
-169.2
40
2.5
50
270
51
360
0
LINE
8
0
6
CONTINUOUS
10
236.2
20
-171.7
11
160.5
21
-171.7
0
ARC
8
0
6
CONTINUOUS
10
160.5
20
-169.2
40
2.5
50
180
51
270
0
CIRCLE
8
0
6
CONTINUOUS
10
196.6
20
-93.5
40
2.5
0
CIRCLE
8
0
6
CONTINUOUS
10
170
20
-160
40
2.5
0
CIRCLE
8
0
6
CONTINUOUS
10
220.35
20
-84
40
2.5
0
CIRCLE
8
0
6
CONTINUOUS
10
227
20
-163.8
40
2.5
0
CIRCLE
8
0
6
CONTINUOUS
10
196.6
20
-93.5
40
1
0
CIRCLE
8
0
6
CONTINUOUS
10
170
20
-160
40
1
0
CIRCLE
8
0
6
CONTINUOUS
10
220.35
20
-84
40
1
0
CIRCLE
8
0
6
CONTINUOUS
10
227
20
-163.8
40
1
0
ENDSEC
0
EOF