0
SECTION
2
HEADER
9
$INSUNITS
70
4
0
ENDSEC
0
SECTION
2
TABLES
0
TABLE
2
LTYPE
0
LTYPE
72
65
70
0
2
CONTINUOUS
3
______
73
0
40
0
0
LTYPE
72
65
70
0
2
DASHED
3
_ _ _ 
73
2
40
7.5
49
5
49
-2.5
0
LTYPE
72
65
70
0
2
DOTTED
3
. . . 
73
2
40
1.5
49
0.5
49
-1
0
ENDTAB
0
TABLE
2
LAYER
0
ENDTAB
0
ENDSEC
0
SECTION
2
ENTITIES
0
LINE
8
0
6
CONTINUOUS
10
159.5
20
-169.2
11
159.5
21
-74.5
0
LINE
8
0
6
CONTINUOUS
10
160.5
20
-73.5
11
236.2
21
-73.5
0
LINE
8
0
6
CONTINUOUS
10
237.2
20
-74.5
11
237.2
21
-169.2
0
LINE
8
0
6
CONTINUOUS
10
236.2
20
-170.2
11
160.5
21
-170.2
0
ARC
8
0
6
CONTINUOUS
10
160.5
20
-74.5
40
1
50
90
51
180
0
ARC
8
0
6
CONTINUOUS
10
236.2
20
-74.5
40
1
50
0
51
90
0
ARC
8
0
6
CONTINUOUS
10
236.2
20
-169.2
40
1
50
270
51
0
0
ARC
8
0
6
CONTINUOUS
10
160.5
20
-169.2
40
1
50
180
51
270
0
LINE
8
0
6
CONTINUOUS
10
172.55
20
-166.95
11
186.45
21
-166.95
0
LINE
8
0
6
CONTINUOUS
10
186.45
20
-166.95
11
186.45
21
-153.05
0
LINE
8
0
6
CONTINUOUS
10
186.45
20
-153.05
11
172.55
21
-153.05
0
LINE
8
0
6
CONTINUOUS
10
172.55
20
-153.05
11
172.55
21
-166.95
0
LINE
8
0
6
CONTINUOUS
10
163.05
20
-147.95
11
176.95
21
-147.95
0
LINE
8
0
6
CONTINUOUS
10
176.95
20
-147.95
11
176.95
21
-134.05
0
LINE
8
0
6
CONTINUOUS
10
176.95
20
-134.05
11
163.05
21
-134.05
0
LINE
8
0
6
CONTINUOUS
10
163.05
20
-134.05
11
163.05
21
-147.95
0
LINE
8
0
6
CONTINUOUS
10
163.05
20
-128.95
11
176.95
21
-128.95
0
LINE
8
0
6
CONTINUOUS
10
176.95
20
-128.95
11
176.95
21
-115.05
0
LINE
8
0
6
CONTINUOUS
10
176.95
20
-115.05
11
163.05
21
-115.05
0
LINE
8
0
6
CONTINUOUS
10
163.05
20
-115.05
11
163.05
21
-128.95
0
LINE
8
0
6
CONTINUOUS
10
163.05
20
-109.95
11
176.95
21
-109.95
0
LINE
8
0
6
CONTINUOUS
10
176.95
20
-109.95
11
176.95
21
-96.05
0
LINE
8
0
6
CONTINUOUS
10
176.95
20
-96.05
11
163.05
21
-96.05
0
LINE
8
0
6
CONTINUOUS
10
163.05
20
-96.05
11
163.05
21
-109.95
0
LINE
8
0
6
CONTINUOUS
10
163.05
20
-90.95
11
176.95
21
-90.95
0
LINE
8
0
6
CONTINUOUS
10
176.95
20
-90.95
11
176.95
21
-77.05
0
LINE
8
0
6
CONTINUOUS
10
176.95
20
-77.05
11
163.05
21
-77.05
0
LINE
8
0
6
CONTINUOUS
10
163.05
20
-77.05
11
163.05
21
-90.95
0
LINE
8
0
6
CONTINUOUS
10
182.05
20
-147.95
11
195.95
21
-147.95
0
LINE
8
0
6
CONTINUOUS
10
195.95
20
-147.95
11
195.95
21
-134.05
0
LINE
8
0
6
CONTINUOUS
10
195.95
20
-134.05
11
182.05
21
-134.05
0
LINE
8
0
6
CONTINUOUS
10
182.05
20
-134.05
11
182.05
21
-147.95
0
LINE
8
0
6
CONTINUOUS
10
182.05
20
-128.95
11
195.95
21
-128.95
0
LINE
8
0
6
CONTINUOUS
10
195.95
20
-128.95
11
195.95
21
-115.05
0
LINE
8
0
6
CONTINUOUS
10
195.95
20
-115.05
11
182.05
21
-115.05
0
LINE
8
0
6
CONTINUOUS
10
182.05
20
-115.05
11
182.05
21
-128.95
0
LINE
8
0
6
CONTINUOUS
10
182.05
20
-109.95
11
195.95
21
-109.95
0
LINE
8
0
6
CONTINUOUS
10
195.95
20
-109.95
11
195.95
21
-96.05
0
LINE
8
0
6
CONTINUOUS
10
195.95
20
-96.05
11
182.05
21
-96.05
0
LINE
8
0
6
CONTINUOUS
10
182.05
20
-96.05
11
182.05
21
-109.95
0
LINE
8
0
6
CONTINUOUS
10
182.05
20
-90.95
11
195.95
21
-90.95
0
LINE
8
0
6
CONTINUOUS
10
195.95
20
-90.95
11
195.95
21
-77.05
0
LINE
8
0
6
CONTINUOUS
10
195.95
20
-77.05
11
182.05
21
-77.05
0
LINE
8
0
6
CONTINUOUS
10
182.05
20
-77.05
11
182.05
21
-90.95
0
LINE
8
0
6
CONTINUOUS
10
201.05
20
-166.95
11
214.95
21
-166.95
0
LINE
8
0
6
CONTINUOUS
10
214.95
20
-166.95
11
214.95
21
-153.05
0
LINE
8
0
6
CONTINUOUS
10
214.95
20
-153.05
11
201.05
21
-153.05
0
LINE
8
0
6
CONTINUOUS
10
201.05
20
-153.05
11
201.05
21
-166.95
0
LINE
8
0
6
CONTINUOUS
10
201.05
20
-147.95
11
214.95
21
-147.95
0
LINE
8
0
6
CONTINUOUS
10
214.95
20
-147.95
11
214.95
21
-134.05
0
LINE
8
0
6
CONTINUOUS
10
214.95
20
-134.05
11
201.05
21
-134.05
0
LINE
8
0
6
CONTINUOUS
10
201.05
20
-134.05
11
201.05
21
-147.95
0
LINE
8
0
6
CONTINUOUS
10
201.05
20
-128.95
11
214.95
21
-128.95
0
LINE
8
0
6
CONTINUOUS
10
214.95
20
-128.95
11
214.95
21
-115.05
0
LINE
8
0
6
CONTINUOUS
10
214.95
20
-115.05
11
201.05
21
-115.05
0
LINE
8
0
6
CONTINUOUS
10
201.05
20
-115.05
11
201.05
21
-128.95
0
LINE
8
0
6
CONTINUOUS
10
201.05
20
-109.95
11
214.95
21
-109.95
0
LINE
8
0
6
CONTINUOUS
10
214.95
20
-109.95
11
214.95
21
-96.05
0
LINE
8
0
6
CONTINUOUS
10
214.95
20
-96.05
11
201.05
21
-96.05
0
LINE
8
0
6
CONTINUOUS
10
201.05
20
-96.05
11
201.05
21
-109.95
0
LINE
8
0
6
CONTINUOUS
10
201.05
20
-90.95
11
214.95
21
-90.95
0
LINE
8
0
6
CONTINUOUS
10
214.95
20
-90.95
11
214.95
21
-77.05
0
LINE
8
0
6
CONTINUOUS
10
214.95
20
-77.05
11
201.05
21
-77.05
0
LINE
8
0
6
CONTINUOUS
10
201.05
20
-77.05
11
201.05
21
-90.95
0
LINE
8
0
6
CONTINUOUS
10
220.05
20
-157.45
11
233.95
21
-157.45
0
LINE
8
0
6
CONTINUOUS
10
233.95
20
-157.45
11
233.95
21
-143.55
0
LINE
8
0
6
CONTINUOUS
10
233.95
20
-143.55
11
220.05
21
-143.55
0
LINE
8
0
6
CONTINUOUS
10
220.05
20
-143.55
11
220.05
21
-157.45
0
LINE
8
0
6
CONTINUOUS
10
220.05
20
-119.45
11
233.95
21
-119.45
0
LINE
8
0
6
CONTINUOUS
10
233.95
20
-119.45
11
233.95
21
-105.55
0
LINE
8
0
6
CONTINUOUS
10
233.95
20
-105.55
11
220.05
21
-105.55
0
LINE
8
0
6
CONTINUOUS
10
220.05
20
-105.55
11
220.05
21
-119.45
0
LINE
8
0
6
CONTINUOUS
10
220.05
20
-90.95
11
233.95
21
-90.95
0
LINE
8
0
6
CONTINUOUS
10
233.95
20
-90.95
11
233.95
21
-77.05
0
LINE
8
0
6
CONTINUOUS
10
233.95
20
-77.05
11
220.05
21
-77.05
0
LINE
8
0
6
CONTINUOUS
10
220.05
20
-77.05
11
220.05
21
-90.95
0
ENDSEC
0
EOF