%TF.GenerationSoftware,KiCad,Pcbnew,8.0.9-rc1*%
%TF.CreationDate,2026-08-26T23:57:57-06:00*%
%TF.ProjectId,numpad,6e756d70-6164-42e6-9b69-6361645f7063,v1.0.0*%
%TF.SameCoordinates,Original*%
%TF.FileFunction,Copper,L1,Top*%
%TF.FilePolarity,Positive*%
%FSLAX46Y46*%
G04 Gerber Fmt 4.6, Leading zero omitted, Abs format (unit mm)*
G04 Created by KiCad (PCBNEW 8.0.9-rc1) date 2026-08-26 23:57:57*
%MOMM*%
%LPD*%
G01*
G04 APERTURE LIST*
%TA.AperFunction,ComponentPad*%
%ADD10C,1.700000*%
%TD*%
G04 APERTURE END LIST*
D10*
%TO.P,MCU1,24*%
%TO.N,P1*%
X94280000Y-56000000D03*
%TO.P,MCU1,1*%
%TO.N,RAW*%
X109520000Y-56000000D03*
%TO.P,MCU1,23*%
%TO.N,P0*%
X94280000Y-58540000D03*
%TO.P,MCU1,2*%
%TO.N,GND*%
X109520000Y-58540000D03*
%TO.P,MCU1,22*%
X94280000Y-61080000D03*
%TO.P,MCU1,3*%
%TO.N,RST*%
X109520000Y-61080000D03*
%TO.P,MCU1,21*%
%TO.N,GND*%
X94280000Y-63620000D03*
%TO.P,MCU1,4*%
%TO.N,VCC*%
X109520000Y-63620000D03*
%TO.P,MCU1,20*%
%TO.N,P2*%
X94280000Y-66160000D03*
%TO.P,MCU1,5*%
%TO.N,P21*%
X109520000Y-66160000D03*
%TO.P,MCU1,19*%
%TO.N,P3*%
X94280000Y-68700000D03*
%TO.P,MCU1,6*%
%TO.N,P20*%
X109520000Y-68700000D03*
%TO.P,MCU1,18*%
%TO.N,P4*%
X94280000Y-71240000D03*
%TO.P,MCU1,7*%
%TO.N,P19*%
X109520000Y-71240000D03*
%TO.P,MCU1,17*%
%TO.N,P5*%
X94280000Y-73780000D03*
%TO.P,MCU1,8*%
%TO.N,P18*%
X109520000Y-73780000D03*
%TO.P,MCU1,16*%
%TO.N,P6*%
X94280000Y-76320000D03*
%TO.P,MCU1,9*%
%TO.N,P15*%
X109520000Y-76320000D03*
%TO.P,MCU1,15*%
%TO.N,P7*%
X94280000Y-78860000D03*
%TO.P,MCU1,10*%
%TO.N,P14*%
X109520000Y-78860000D03*
%TO.P,MCU1,14*%
%TO.N,P8*%
X94280000Y-81400000D03*
%TO.P,MCU1,11*%
%TO.N,P16*%
X109520000Y-81400000D03*
%TO.P,MCU1,13*%
%TO.N,P9*%
X94280000Y-83940000D03*
%TO.P,MCU1,12*%
%TO.N,P10*%
X109520000Y-83940000D03*
%TD*%
%TA.AperFunction,Conductor*%
%TO.N,GND*%
G36*
X166206922Y-53001280D02*
G01*
X166297266Y-53011459D01*
X166324331Y-53017636D01*
X166403540Y-53045352D01*
X166428553Y-53057398D01*
X166499606Y-53102043D01*
X166521313Y-53119355D01*
X166580644Y-53178686D01*
X166597957Y-53200395D01*
X166642600Y-53271444D01*
X166654648Y-53296462D01*
X166682362Y-53375666D01*
X166688540Y-53402735D01*
X166698720Y-53493076D01*
X166699500Y-53506961D01*
X166699500Y-129193038D01*
X166698720Y-129206923D01*
X166688540Y-129297264D01*
X166682362Y-129324333D01*
X166654648Y-129403537D01*
X166642600Y-129428555D01*
X166597957Y-129499604D01*
X166580644Y-129521313D01*
X166521313Y-129580644D01*
X166499604Y-129597957D01*
X166428555Y-129642600D01*
X166403537Y-129654648D01*
X166324333Y-129682362D01*
X166297264Y-129688540D01*
X166217075Y-129697576D01*
X166206921Y-129698720D01*
X166193038Y-129699500D01*
X90506962Y-129699500D01*
X90493078Y-129698720D01*
X90480553Y-129697308D01*
X90402735Y-129688540D01*
X90375666Y-129682362D01*
X90296462Y-129654648D01*
X90271444Y-129642600D01*
X90200395Y-129597957D01*
X90178686Y-129580644D01*
X90119355Y-129521313D01*
X90102042Y-129499604D01*
X90057399Y-129428555D01*
X90045351Y-129403537D01*
X90017637Y-129324333D01*
X90011459Y-129297263D01*
X90001280Y-129206922D01*
X90000500Y-129193038D01*
X90000500Y-124985513D01*
X108299500Y-124985513D01*
X108299500Y-125174486D01*
X108329059Y-125361118D01*
X108387454Y-125540836D01*
X108473240Y-125709199D01*
X108584310Y-125862073D01*
X108717927Y-125995690D01*
X108870801Y-126106760D01*
X108950347Y-126147290D01*
X109039163Y-126192545D01*
X109039165Y-126192545D01*
X109039168Y-126192547D01*
X109135497Y-126223846D01*
X109218881Y-126250940D01*
X109405514Y-126280500D01*
X109405519Y-126280500D01*
X109594486Y-126280500D01*
X109781118Y-126250940D01*
X109960832Y-126192547D01*
X110129199Y-126106760D01*
X110282073Y-125995690D01*
X110415690Y-125862073D01*
X110526760Y-125709199D01*
X110612547Y-125540832D01*
X110670940Y-125361118D01*
X110700500Y-125174486D01*
X110700500Y-124985513D01*
X136799500Y-124985513D01*
X136799500Y-125174486D01*
X136829059Y-125361118D01*
X136887454Y-125540836D01*
X136973240Y-125709199D01*
X137084310Y-125862073D01*
X137217927Y-125995690D01*
X137370801Y-126106760D01*
X137450347Y-126147290D01*
X137539163Y-126192545D01*
X137539165Y-126192545D01*
X137539168Y-126192547D01*
X137635497Y-126223846D01*
X137718881Y-126250940D01*
X137905514Y-126280500D01*
X137905519Y-126280500D01*
X138094486Y-126280500D01*
X138281118Y-126250940D01*
X138460832Y-126192547D01*
X138629199Y-126106760D01*
X138782073Y-125995690D01*
X138915690Y-125862073D01*
X139026760Y-125709199D01*
X139112547Y-125540832D01*
X139170940Y-125361118D01*
X139200500Y-125174486D01*
X139200500Y-124985513D01*
X139170940Y-124798881D01*
X139112545Y-124619163D01*
X139026759Y-124450800D01*
X138915690Y-124297927D01*
X138782073Y-124164310D01*
X138629199Y-124053240D01*
X138460836Y-123967454D01*
X138281118Y-123909059D01*
X138094486Y-123879500D01*
X138094481Y-123879500D01*
X137905519Y-123879500D01*
X137905514Y-123879500D01*
X137718881Y-123909059D01*
X137539163Y-123967454D01*
X137370800Y-124053240D01*
X137288078Y-124113342D01*
X137217927Y-124164310D01*
X137217925Y-124164312D01*
X137217924Y-124164312D01*
X137084312Y-124297924D01*
X137084312Y-124297925D01*
X137084310Y-124297927D01*
X137036610Y-124363579D01*
X136973240Y-124450800D01*
X136887454Y-124619163D01*
X136829059Y-124798881D01*
X136799500Y-124985513D01*
X110700500Y-124985513D01*
X110670940Y-124798881D01*
X110612545Y-124619163D01*
X110526759Y-124450800D01*
X110415690Y-124297927D01*
X110282073Y-124164310D01*
X110129199Y-124053240D01*
X109960836Y-123967454D01*
X109781118Y-123909059D01*
X109594486Y-123879500D01*
X109594481Y-123879500D01*
X109405519Y-123879500D01*
X109405514Y-123879500D01*
X109218881Y-123909059D01*
X109039163Y-123967454D01*
X108870800Y-124053240D01*
X108788078Y-124113342D01*
X108717927Y-124164310D01*
X108717925Y-124164312D01*
X108717924Y-124164312D01*
X108584312Y-124297924D01*
X108584312Y-124297925D01*
X108584310Y-124297927D01*
X108536610Y-124363579D01*
X108473240Y-124450800D01*
X108387454Y-124619163D01*
X108329059Y-124798881D01*
X108299500Y-124985513D01*
X90000500Y-124985513D01*
X90000500Y-122425258D01*
X112829500Y-122425258D01*
X112829500Y-122654741D01*
X112854446Y-122844215D01*
X112859452Y-122882238D01*
X112859453Y-122882240D01*
X112918842Y-123103887D01*
X113006650Y-123315876D01*
X113006657Y-123315890D01*
X113121392Y-123514617D01*
X113261081Y-123696661D01*
X113261089Y-123696670D01*
X113423330Y-123858911D01*
X113423338Y-123858918D01*
X113605382Y-123998607D01*
X113605385Y-123998608D01*
X113605388Y-123998611D01*
X113804112Y-124113344D01*
X113804117Y-124113346D01*
X113804123Y-124113349D01*
X113895480Y-124151190D01*
X114016113Y-124201158D01*
X114237762Y-124260548D01*
X114465266Y-124290500D01*
X114465273Y-124290500D01*
X114694727Y-124290500D01*
X114694734Y-124290500D01*
X114922238Y-124260548D01*
X115143887Y-124201158D01*
X115355888Y-124113344D01*
X115554612Y-123998611D01*
X115736661Y-123858919D01*
X115736665Y-123858914D01*
X115736670Y-123858911D01*
X115898911Y-123696670D01*
X115898914Y-123696665D01*
X115898919Y-123696661D01*
X116038611Y-123514612D01*
X116153344Y-123315888D01*
X116241158Y-123103887D01*
X116300548Y-122882238D01*
X116330500Y-122654734D01*
X116330500Y-122425266D01*
X116330499Y-122425258D01*
X141329500Y-122425258D01*
X141329500Y-122654741D01*
X141354446Y-122844215D01*
X141359452Y-122882238D01*
X141359453Y-122882240D01*
X141418842Y-123103887D01*
X141506650Y-123315876D01*
X141506657Y-123315890D01*
X141621392Y-123514617D01*
X141761081Y-123696661D01*
X141761089Y-123696670D01*
X141923330Y-123858911D01*
X141923338Y-123858918D01*
X142105382Y-123998607D01*
X142105385Y-123998608D01*
X142105388Y-123998611D01*
X142304112Y-124113344D01*
X142304117Y-124113346D01*
X142304123Y-124113349D01*
X142395480Y-124151190D01*
X142516113Y-124201158D01*
X142737762Y-124260548D01*
X142965266Y-124290500D01*
X142965273Y-124290500D01*
X143194727Y-124290500D01*
X143194734Y-124290500D01*
X143422238Y-124260548D01*
X143643887Y-124201158D01*
X143855888Y-124113344D01*
X144054612Y-123998611D01*
X144236661Y-123858919D01*
X144236665Y-123858914D01*
X144236670Y-123858911D01*
X144398911Y-123696670D01*
X144398914Y-123696665D01*
X144398919Y-123696661D01*
X144538611Y-123514612D01*
X144653344Y-123315888D01*
X144741158Y-123103887D01*
X144800548Y-122882238D01*
X144830500Y-122654734D01*
X144830500Y-122425266D01*
X144800548Y-122197762D01*
X144741158Y-121976113D01*
X144653344Y-121764112D01*
X144538611Y-121565388D01*
X144538608Y-121565385D01*
X144538607Y-121565382D01*
X144398918Y-121383338D01*
X144398911Y-121383330D01*
X144236670Y-121221089D01*
X144236661Y-121221081D01*
X144054617Y-121081392D01*
X143855890Y-120966657D01*
X143855876Y-120966650D01*
X143643887Y-120878842D01*
X143422238Y-120819452D01*
X143384215Y-120814446D01*
X143194741Y-120789500D01*
X143194734Y-120789500D01*
X142965266Y-120789500D01*
X142965258Y-120789500D01*
X142748715Y-120818009D01*
X142737762Y-120819452D01*
X142644076Y-120844554D01*
X142516112Y-120878842D01*
X142304123Y-120966650D01*
X142304109Y-120966657D01*
X142105382Y-121081392D01*
X141923338Y-121221081D01*
X141761081Y-121383338D01*
X141621392Y-121565382D01*
X141506657Y-121764109D01*
X141506650Y-121764123D01*
X141418842Y-121976112D01*
X141418842Y-121976113D01*
X141363385Y-122183086D01*
X141359453Y-122197759D01*
X141359451Y-122197770D01*
X141329500Y-122425258D01*
X116330499Y-122425258D01*
X116300548Y-122197762D01*
X116241158Y-121976113D01*
X116153344Y-121764112D01*
X116038611Y-121565388D01*
X116038608Y-121565385D01*
X116038607Y-121565382D01*
X115898918Y-121383338D01*
X115898911Y-121383330D01*
X115736670Y-121221089D01*
X115736661Y-121221081D01*
X115554617Y-121081392D01*
X115355890Y-120966657D01*
X115355876Y-120966650D01*
X115143887Y-120878842D01*
X114922238Y-120819452D01*
X114884215Y-120814446D01*
X114694741Y-120789500D01*
X114694734Y-120789500D01*
X114465266Y-120789500D01*
X114465258Y-120789500D01*
X114248715Y-120818009D01*
X114237762Y-120819452D01*
X114144076Y-120844554D01*
X114016112Y-120878842D01*
X113804123Y-120966650D01*
X113804109Y-120966657D01*
X113605382Y-121081392D01*
X113423338Y-121221081D01*
X113261081Y-121383338D01*
X113121392Y-121565382D01*
X113006657Y-121764109D01*
X113006650Y-121764123D01*
X112918842Y-121976112D01*
X112918842Y-121976113D01*
X112863385Y-122183086D01*
X112859453Y-122197759D01*
X112859451Y-122197770D01*
X112829500Y-122425258D01*
X90000500Y-122425258D01*
X90000500Y-119849223D01*
X107199500Y-119849223D01*
X107199500Y-120150776D01*
X107199501Y-120150793D01*
X107238861Y-120449766D01*
X107316913Y-120741060D01*
X107432314Y-121019661D01*
X107432318Y-121019671D01*
X107583099Y-121280831D01*
X107766679Y-121520078D01*
X107766685Y-121520085D01*
X107979914Y-121733314D01*
X107979921Y-121733320D01*
X108219168Y-121916900D01*
X108480328Y-122067681D01*
X108480329Y-122067681D01*
X108480332Y-122067683D01*
X108666072Y-122144619D01*
X108758939Y-122183086D01*
X108758940Y-122183086D01*
X108758942Y-122183087D01*
X109050232Y-122261138D01*
X109349217Y-122300500D01*
X109349224Y-122300500D01*
X109650776Y-122300500D01*
X109650783Y-122300500D01*
X109949768Y-122261138D01*
X110241058Y-122183087D01*
X110519668Y-122067683D01*
X110780832Y-121916900D01*
X111020080Y-121733319D01*
X111233319Y-121520080D01*
X111416900Y-121280832D01*
X111567683Y-121019668D01*
X111683087Y-120741058D01*
X111761138Y-120449768D01*
X111800500Y-120150783D01*
X111800500Y-119849223D01*
X135699500Y-119849223D01*
X135699500Y-120150776D01*
X135699501Y-120150793D01*
X135738861Y-120449766D01*
X135816913Y-120741060D01*
X135932314Y-121019661D01*
X135932318Y-121019671D01*
X136083099Y-121280831D01*
X136266679Y-121520078D01*
X136266685Y-121520085D01*
X136479914Y-121733314D01*
X136479921Y-121733320D01*
X136719168Y-121916900D01*
X136980328Y-122067681D01*
X136980329Y-122067681D01*
X136980332Y-122067683D01*
X137166072Y-122144619D01*
X137258939Y-122183086D01*
X137258940Y-122183086D01*
X137258942Y-122183087D01*
X137550232Y-122261138D01*
X137849217Y-122300500D01*
X137849224Y-122300500D01*
X138150776Y-122300500D01*
X138150783Y-122300500D01*
X138449768Y-122261138D01*
X138741058Y-122183087D01*
X139019668Y-122067683D01*
X139280832Y-121916900D01*
X139520080Y-121733319D01*
X139733319Y-121520080D01*
X139916900Y-121280832D01*
X140067683Y-121019668D01*
X140183087Y-120741058D01*
X140261138Y-120449768D01*
X140300500Y-120150783D01*
X140300500Y-119849217D01*
X140261138Y-119550232D01*
X140183087Y-119258942D01*
X140067683Y-118980332D01*
X139916900Y-118719168D01*
X139733319Y-118479920D01*
X139733314Y-118479914D01*
X139520085Y-118266685D01*
X139520078Y-118266679D01*
X139280831Y-118083099D01*
X139019671Y-117932318D01*
X139019661Y-117932314D01*
X138741060Y-117816913D01*
X138449766Y-117738861D01*
X138150793Y-117699501D01*
X138150788Y-117699500D01*
X138150783Y-117699500D01*
X137849217Y-117699500D01*
X137849211Y-117699500D01*
X137849206Y-117699501D01*
X137550233Y-117738861D01*
X137258939Y-117816913D01*
X136980338Y-117932314D01*
X136980328Y-117932318D01*
X136719168Y-118083099D01*
X136479921Y-118266679D01*
X136479914Y-118266685D01*
X136266685Y-118479914D01*
X136266679Y-118479921D01*
X136083099Y-118719168D01*
X135932318Y-118980328D01*
X135932314Y-118980338D01*
X135816913Y-119258939D01*
X135738861Y-119550233D01*
X135699501Y-119849206D01*
X135699500Y-119849223D01*
X111800500Y-119849223D01*
X111800500Y-119849217D01*
X111761138Y-119550232D01*
X111683087Y-119258942D01*
X111567683Y-118980332D01*
X111416900Y-118719168D01*
X111233319Y-118479920D01*
X111233314Y-118479914D01*
X111020085Y-118266685D01*
X111020078Y-118266679D01*
X110780831Y-118083099D01*
X110519671Y-117932318D01*
X110519661Y-117932314D01*
X110241060Y-117816913D01*
X109949766Y-117738861D01*
X109650793Y-117699501D01*
X109650788Y-117699500D01*
X109650783Y-117699500D01*
X109349217Y-117699500D01*
X109349211Y-117699500D01*
X109349206Y-117699501D01*
X109050233Y-117738861D01*
X108758939Y-117816913D01*
X108480338Y-117932314D01*
X108480328Y-117932318D01*
X108219168Y-118083099D01*
X107979921Y-118266679D01*
X107979914Y-118266685D01*
X107766685Y-118479914D01*
X107766679Y-118479921D01*
X107583099Y-118719168D01*
X107432318Y-118980328D01*
X107432314Y-118980338D01*
X107316913Y-119258939D01*
X107238861Y-119550233D01*
X107199501Y-119849206D01*
X107199500Y-119849223D01*
X90000500Y-119849223D01*
X90000500Y-114825513D01*
X108299500Y-114825513D01*
X108299500Y-115014486D01*
X108329059Y-115201118D01*
X108387454Y-115380836D01*
X108473240Y-115549199D01*
X108584310Y-115702073D01*
X108717927Y-115835690D01*
X108870801Y-115946760D01*
X108916797Y-115970196D01*
X109039163Y-116032545D01*
X109039165Y-116032545D01*
X109039168Y-116032547D01*
X109135497Y-116063846D01*
X109218881Y-116090940D01*
X109405514Y-116120500D01*
X109405519Y-116120500D01*
X109594486Y-116120500D01*
X109781118Y-116090940D01*
X109960832Y-116032547D01*
X110109462Y-115956816D01*
X110178128Y-115943920D01*
X110242869Y-115970196D01*
X110283127Y-116027302D01*
X110288940Y-116071207D01*
X110289500Y-116071207D01*
X110289500Y-116304741D01*
X110297049Y-116362075D01*
X110319452Y-116532238D01*
X110319453Y-116532240D01*
X110378842Y-116753887D01*
X110466650Y-116965876D01*
X110466657Y-116965890D01*
X110581392Y-117164617D01*
X110721081Y-117346661D01*
X110721089Y-117346670D01*
X110883330Y-117508911D01*
X110883338Y-117508918D01*
X111065382Y-117648607D01*
X111065385Y-117648608D01*
X111065388Y-117648611D01*
X111264112Y-117763344D01*
X111264117Y-117763346D01*
X111264123Y-117763349D01*
X111355480Y-117801190D01*
X111476113Y-117851158D01*
X111697762Y-117910548D01*
X111925266Y-117940500D01*
X111925273Y-117940500D01*
X112154727Y-117940500D01*
X112154734Y-117940500D01*
X112382238Y-117910548D01*
X112603887Y-117851158D01*
X112815888Y-117763344D01*
X113014612Y-117648611D01*
X113196661Y-117508919D01*
X113196665Y-117508914D01*
X113196670Y-117508911D01*
X113358911Y-117346670D01*
X113358914Y-117346665D01*
X113358919Y-117346661D01*
X113498611Y-117164612D01*
X113613344Y-116965888D01*
X113701158Y-116753887D01*
X113760548Y-116532238D01*
X113790500Y-116304734D01*
X113790500Y-116075266D01*
X113760548Y-115847762D01*
X113701158Y-115626113D01*
X113613344Y-115414112D01*
X113498611Y-115215388D01*
X113498608Y-115215385D01*
X113498607Y-115215382D01*
X113358918Y-115033338D01*
X113358911Y-115033330D01*
X113196670Y-114871089D01*
X113196661Y-114871081D01*
X113137276Y-114825513D01*
X136799500Y-114825513D01*
X136799500Y-115014486D01*
X136829059Y-115201118D01*
X136887454Y-115380836D01*
X136973240Y-115549199D01*
X137084310Y-115702073D01*
X137217927Y-115835690D01*
X137370801Y-115946760D01*
X137416797Y-115970196D01*
X137539163Y-116032545D01*
X137539165Y-116032545D01*
X137539168Y-116032547D01*
X137635497Y-116063846D01*
X137718881Y-116090940D01*
X137905514Y-116120500D01*
X137905519Y-116120500D01*
X138094486Y-116120500D01*
X138281118Y-116090940D01*
X138460832Y-116032547D01*
X138609462Y-115956816D01*
X138678128Y-115943920D01*
X138742869Y-115970196D01*
X138783127Y-116027302D01*
X138788940Y-116071207D01*
X138789500Y-116071207D01*
X138789500Y-116304741D01*
X138797049Y-116362075D01*
X138819452Y-116532238D01*
X138819453Y-116532240D01*
X138878842Y-116753887D01*
X138966650Y-116965876D01*
X138966657Y-116965890D01*
X139081392Y-117164617D01*
X139221081Y-117346661D01*
X139221089Y-117346670D01*
X139383330Y-117508911D01*
X139383338Y-117508918D01*
X139565382Y-117648607D01*
X139565385Y-117648608D01*
X139565388Y-117648611D01*
X139764112Y-117763344D01*
X139764117Y-117763346D01*
X139764123Y-117763349D01*
X139855480Y-117801190D01*
X139976113Y-117851158D01*
X140197762Y-117910548D01*
X140425266Y-117940500D01*
X140425273Y-117940500D01*
X140654727Y-117940500D01*
X140654734Y-117940500D01*
X140882238Y-117910548D01*
X141103887Y-117851158D01*
X141315888Y-117763344D01*
X141514612Y-117648611D01*
X141696661Y-117508919D01*
X141696665Y-117508914D01*
X141696670Y-117508911D01*
X141858911Y-117346670D01*
X141858914Y-117346665D01*
X141858919Y-117346661D01*
X141998611Y-117164612D01*
X142113344Y-116965888D01*
X142201158Y-116753887D01*
X142260548Y-116532238D01*
X142290500Y-116304734D01*
X142290500Y-116075266D01*
X142260548Y-115847762D01*
X142201158Y-115626113D01*
X142142919Y-115485513D01*
X155799500Y-115485513D01*
X155799500Y-115674486D01*
X155829059Y-115861118D01*
X155887454Y-116040836D01*
X155973240Y-116209199D01*
X156084310Y-116362073D01*
X156217927Y-116495690D01*
X156370801Y-116606760D01*
X156450347Y-116647290D01*
X156539163Y-116692545D01*
X156539165Y-116692545D01*
X156539168Y-116692547D01*
X156635497Y-116723846D01*
X156718881Y-116750940D01*
X156905514Y-116780500D01*
X156905519Y-116780500D01*
X157094486Y-116780500D01*
X157281118Y-116750940D01*
X157460832Y-116692547D01*
X157629199Y-116606760D01*
X157782073Y-116495690D01*
X157915690Y-116362073D01*
X158026760Y-116209199D01*
X158112547Y-116040832D01*
X158170940Y-115861118D01*
X158174968Y-115835687D01*
X158200500Y-115674486D01*
X158200500Y-115485513D01*
X158170940Y-115298881D01*
X158112545Y-115119163D01*
X158026759Y-114950800D01*
X157915690Y-114797927D01*
X157782073Y-114664310D01*
X157629199Y-114553240D01*
X157460836Y-114467454D01*
X157281118Y-114409059D01*
X157094486Y-114379500D01*
X157094481Y-114379500D01*
X156905519Y-114379500D01*
X156905514Y-114379500D01*
X156718881Y-114409059D01*
X156539163Y-114467454D01*
X156370800Y-114553240D01*
X156288078Y-114613342D01*
X156217927Y-114664310D01*
X156217925Y-114664312D01*
X156217924Y-114664312D01*
X156084312Y-114797924D01*
X156084312Y-114797925D01*
X156084310Y-114797927D01*
X156064268Y-114825513D01*
X155973240Y-114950800D01*
X155887454Y-115119163D01*
X155829059Y-115298881D01*
X155799500Y-115485513D01*
X142142919Y-115485513D01*
X142113344Y-115414112D01*
X141998611Y-115215388D01*
X141998608Y-115215385D01*
X141998607Y-115215382D01*
X141858918Y-115033338D01*
X141858911Y-115033330D01*
X141696670Y-114871089D01*
X141696661Y-114871081D01*
X141514617Y-114731392D01*
X141315890Y-114616657D01*
X141315876Y-114616650D01*
X141103887Y-114528842D01*
X140882238Y-114469452D01*
X140844215Y-114464446D01*
X140654741Y-114439500D01*
X140654734Y-114439500D01*
X140425266Y-114439500D01*
X140425258Y-114439500D01*
X140212938Y-114467454D01*
X140197762Y-114469452D01*
X140104076Y-114494554D01*
X139976112Y-114528842D01*
X139764123Y-114616650D01*
X139764109Y-114616657D01*
X139565382Y-114731392D01*
X139392103Y-114864356D01*
X139326934Y-114889551D01*
X139258489Y-114875513D01*
X139208499Y-114826699D01*
X139194143Y-114785379D01*
X139170940Y-114638881D01*
X139143113Y-114553240D01*
X139112547Y-114459168D01*
X139112545Y-114459165D01*
X139112545Y-114459163D01*
X139026759Y-114290800D01*
X138915690Y-114137927D01*
X138782073Y-114004310D01*
X138629199Y-113893240D01*
X138460836Y-113807454D01*
X138281118Y-113749059D01*
X138094486Y-113719500D01*
X138094481Y-113719500D01*
X137905519Y-113719500D01*
X137905514Y-113719500D01*
X137718881Y-113749059D01*
X137539163Y-113807454D01*
X137370800Y-113893240D01*
X137283579Y-113956610D01*
X137217927Y-114004310D01*
X137217925Y-114004312D01*
X137217924Y-114004312D01*
X137084312Y-114137924D01*
X137084312Y-114137925D01*
X137084310Y-114137927D01*
X137041637Y-114196661D01*
X136973240Y-114290800D01*
X136887454Y-114459163D01*
X136829059Y-114638881D01*
X136799500Y-114825513D01*
X113137276Y-114825513D01*
X113014617Y-114731392D01*
X112815890Y-114616657D01*
X112815876Y-114616650D01*
X112603887Y-114528842D01*
X112382238Y-114469452D01*
X112344215Y-114464446D01*
X112154741Y-114439500D01*
X112154734Y-114439500D01*
X111925266Y-114439500D01*
X111925258Y-114439500D01*
X111712938Y-114467454D01*
X111697762Y-114469452D01*
X111604076Y-114494554D01*
X111476112Y-114528842D01*
X111264123Y-114616650D01*
X111264109Y-114616657D01*
X111065382Y-114731392D01*
X110892103Y-114864356D01*
X110826934Y-114889551D01*
X110758489Y-114875513D01*
X110708499Y-114826699D01*
X110694143Y-114785379D01*
X110670940Y-114638881D01*
X110643113Y-114553240D01*
X110612547Y-114459168D01*
X110612545Y-114459165D01*
X110612545Y-114459163D01*
X110526759Y-114290800D01*
X110415690Y-114137927D01*
X110282073Y-114004310D01*
X110129199Y-113893240D01*
X109960836Y-113807454D01*
X109781118Y-113749059D01*
X109594486Y-113719500D01*
X109594481Y-113719500D01*
X109405519Y-113719500D01*
X109405514Y-113719500D01*
X109218881Y-113749059D01*
X109039163Y-113807454D01*
X108870800Y-113893240D01*
X108783579Y-113956610D01*
X108717927Y-114004310D01*
X108717925Y-114004312D01*
X108717924Y-114004312D01*
X108584312Y-114137924D01*
X108584312Y-114137925D01*
X108584310Y-114137927D01*
X108541637Y-114196661D01*
X108473240Y-114290800D01*
X108387454Y-114459163D01*
X108329059Y-114638881D01*
X108299500Y-114825513D01*
X90000500Y-114825513D01*
X90000500Y-112925258D01*
X160329500Y-112925258D01*
X160329500Y-113154741D01*
X160354446Y-113344215D01*
X160359452Y-113382238D01*
X160359453Y-113382240D01*
X160418842Y-113603887D01*
X160506650Y-113815876D01*
X160506657Y-113815890D01*
X160621392Y-114014617D01*
X160761081Y-114196661D01*
X160761089Y-114196670D01*
X160923330Y-114358911D01*
X160923338Y-114358918D01*
X161105382Y-114498607D01*
X161105385Y-114498608D01*
X161105388Y-114498611D01*
X161304112Y-114613344D01*
X161304117Y-114613346D01*
X161304123Y-114613349D01*
X161365766Y-114638882D01*
X161516113Y-114701158D01*
X161737762Y-114760548D01*
X161965266Y-114790500D01*
X161965273Y-114790500D01*
X162194727Y-114790500D01*
X162194734Y-114790500D01*
X162422238Y-114760548D01*
X162643887Y-114701158D01*
X162855888Y-114613344D01*
X163054612Y-114498611D01*
X163236661Y-114358919D01*
X163236665Y-114358914D01*
X163236670Y-114358911D01*
X163398911Y-114196670D01*
X163398914Y-114196665D01*
X163398919Y-114196661D01*
X163538611Y-114014612D01*
X163653344Y-113815888D01*
X163741158Y-113603887D01*
X163800548Y-113382238D01*
X163830500Y-113154734D01*
X163830500Y-112925266D01*
X163800548Y-112697762D01*
X163741158Y-112476113D01*
X163653344Y-112264112D01*
X163538611Y-112065388D01*
X163538608Y-112065385D01*
X163538607Y-112065382D01*
X163398918Y-111883338D01*
X163398911Y-111883330D01*
X163236670Y-111721089D01*
X163236661Y-111721081D01*
X163054617Y-111581392D01*
X162855890Y-111466657D01*
X162855876Y-111466650D01*
X162643887Y-111378842D01*
X162422238Y-111319452D01*
X162384215Y-111314446D01*
X162194741Y-111289500D01*
X162194734Y-111289500D01*
X161965266Y-111289500D01*
X161965258Y-111289500D01*
X161748715Y-111318009D01*
X161737762Y-111319452D01*
X161644076Y-111344554D01*
X161516112Y-111378842D01*
X161304123Y-111466650D01*
X161304109Y-111466657D01*
X161105382Y-111581392D01*
X160923338Y-111721081D01*
X160761081Y-111883338D01*
X160621392Y-112065382D01*
X160506657Y-112264109D01*
X160506650Y-112264123D01*
X160418842Y-112476112D01*
X160418842Y-112476113D01*
X160363385Y-112683086D01*
X160359453Y-112697759D01*
X160359451Y-112697770D01*
X160329500Y-112925258D01*
X90000500Y-112925258D01*
X90000500Y-110349223D01*
X154699500Y-110349223D01*
X154699500Y-110650776D01*
X154699501Y-110650793D01*
X154738861Y-110949766D01*
X154816913Y-111241060D01*
X154932314Y-111519661D01*
X154932318Y-111519671D01*
X155083099Y-111780831D01*
X155266679Y-112020078D01*
X155266685Y-112020085D01*
X155479914Y-112233314D01*
X155479921Y-112233320D01*
X155719168Y-112416900D01*
X155980328Y-112567681D01*
X155980329Y-112567681D01*
X155980332Y-112567683D01*
X156166072Y-112644619D01*
X156258939Y-112683086D01*
X156258940Y-112683086D01*
X156258942Y-112683087D01*
X156550232Y-112761138D01*
X156849217Y-112800500D01*
X156849224Y-112800500D01*
X157150776Y-112800500D01*
X157150783Y-112800500D01*
X157449768Y-112761138D01*
X157741058Y-112683087D01*
X158019668Y-112567683D01*
X158280832Y-112416900D01*
X158520080Y-112233319D01*
X158733319Y-112020080D01*
X158916900Y-111780832D01*
X159067683Y-111519668D01*
X159183087Y-111241058D01*
X159261138Y-110949768D01*
X159300500Y-110650783D01*
X159300500Y-110349217D01*
X159261138Y-110050232D01*
X159183087Y-109758942D01*
X159067683Y-109480332D01*
X158916900Y-109219168D01*
X158733319Y-108979920D01*
X158733314Y-108979914D01*
X158520085Y-108766685D01*
X158520078Y-108766679D01*
X158280831Y-108583099D01*
X158019671Y-108432318D01*
X158019661Y-108432314D01*
X157741060Y-108316913D01*
X157449766Y-108238861D01*
X157150793Y-108199501D01*
X157150788Y-108199500D01*
X157150783Y-108199500D01*
X156849217Y-108199500D01*
X156849211Y-108199500D01*
X156849206Y-108199501D01*
X156550233Y-108238861D01*
X156258939Y-108316913D01*
X155980338Y-108432314D01*
X155980328Y-108432318D01*
X155719168Y-108583099D01*
X155479921Y-108766679D01*
X155479914Y-108766685D01*
X155266685Y-108979914D01*
X155266679Y-108979921D01*
X155083099Y-109219168D01*
X154932318Y-109480328D01*
X154932314Y-109480338D01*
X154816913Y-109758939D01*
X154738861Y-110050233D01*
X154699501Y-110349206D01*
X154699500Y-110349223D01*
X90000500Y-110349223D01*
X90000500Y-105985513D01*
X98799500Y-105985513D01*
X98799500Y-106174486D01*
X98829059Y-106361118D01*
X98887454Y-106540836D01*
X98973240Y-106709199D01*
X99084310Y-106862073D01*
X99217927Y-106995690D01*
X99370801Y-107106760D01*
X99450347Y-107147290D01*
X99539163Y-107192545D01*
X99539165Y-107192545D01*
X99539168Y-107192547D01*
X99635497Y-107223846D01*
X99718881Y-107250940D01*
X99905514Y-107280500D01*
X99905519Y-107280500D01*
X100094486Y-107280500D01*
X100281118Y-107250940D01*
X100460832Y-107192547D01*
X100629199Y-107106760D01*
X100782073Y-106995690D01*
X100915690Y-106862073D01*
X101026760Y-106709199D01*
X101112547Y-106540832D01*
X101170940Y-106361118D01*
X101174968Y-106335687D01*
X101200500Y-106174486D01*
X101200500Y-105985513D01*
X117799500Y-105985513D01*
X117799500Y-106174486D01*
X117829059Y-106361118D01*
X117887454Y-106540836D01*
X117973240Y-106709199D01*
X118084310Y-106862073D01*
X118217927Y-106995690D01*
X118370801Y-107106760D01*
X118450347Y-107147290D01*
X118539163Y-107192545D01*
X118539165Y-107192545D01*
X118539168Y-107192547D01*
X118635497Y-107223846D01*
X118718881Y-107250940D01*
X118905514Y-107280500D01*
X118905519Y-107280500D01*
X119094486Y-107280500D01*
X119281118Y-107250940D01*
X119460832Y-107192547D01*
X119629199Y-107106760D01*
X119782073Y-106995690D01*
X119915690Y-106862073D01*
X120026760Y-106709199D01*
X120112547Y-106540832D01*
X120170940Y-106361118D01*
X120174968Y-106335687D01*
X120200500Y-106174486D01*
X120200500Y-105985513D01*
X136799500Y-105985513D01*
X136799500Y-106174486D01*
X136829059Y-106361118D01*
X136887454Y-106540836D01*
X136973240Y-106709199D01*
X137084310Y-106862073D01*
X137217927Y-106995690D01*
X137370801Y-107106760D01*
X137450347Y-107147290D01*
X137539163Y-107192545D01*
X137539165Y-107192545D01*
X137539168Y-107192547D01*
X137635497Y-107223846D01*
X137718881Y-107250940D01*
X137905514Y-107280500D01*
X137905519Y-107280500D01*
X138094486Y-107280500D01*
X138281118Y-107250940D01*
X138460832Y-107192547D01*
X138629199Y-107106760D01*
X138782073Y-106995690D01*
X138915690Y-106862073D01*
X139026760Y-106709199D01*
X139112547Y-106540832D01*
X139170940Y-106361118D01*
X139174968Y-106335687D01*
X139200500Y-106174486D01*
X139200500Y-105985513D01*
X139170940Y-105798881D01*
X139112545Y-105619163D01*
X139026759Y-105450800D01*
X138935732Y-105325513D01*
X155799500Y-105325513D01*
X155799500Y-105514486D01*
X155829059Y-105701118D01*
X155887454Y-105880836D01*
X155973240Y-106049199D01*
X156084310Y-106202073D01*
X156217927Y-106335690D01*
X156370801Y-106446760D01*
X156416797Y-106470196D01*
X156539163Y-106532545D01*
X156539165Y-106532545D01*
X156539168Y-106532547D01*
X156635497Y-106563846D01*
X156718881Y-106590940D01*
X156905514Y-106620500D01*
X156905519Y-106620500D01*
X157094486Y-106620500D01*
X157281118Y-106590940D01*
X157460832Y-106532547D01*
X157609462Y-106456816D01*
X157678128Y-106443920D01*
X157742869Y-106470196D01*
X157783127Y-106527302D01*
X157788940Y-106571207D01*
X157789500Y-106571207D01*
X157789500Y-106804741D01*
X157797049Y-106862075D01*
X157819452Y-107032238D01*
X157819453Y-107032240D01*
X157878842Y-107253887D01*
X157966650Y-107465876D01*
X157966657Y-107465890D01*
X158081392Y-107664617D01*
X158221081Y-107846661D01*
X158221089Y-107846670D01*
X158383330Y-108008911D01*
X158383338Y-108008918D01*
X158565382Y-108148607D01*
X158565385Y-108148608D01*
X158565388Y-108148611D01*
X158764112Y-108263344D01*
X158764117Y-108263346D01*
X158764123Y-108263349D01*
X158855480Y-108301190D01*
X158976113Y-108351158D01*
X159197762Y-108410548D01*
X159425266Y-108440500D01*
X159425273Y-108440500D01*
X159654727Y-108440500D01*
X159654734Y-108440500D01*
X159882238Y-108410548D01*
X160103887Y-108351158D01*
X160315888Y-108263344D01*
X160514612Y-108148611D01*
X160696661Y-108008919D01*
X160696665Y-108008914D01*
X160696670Y-108008911D01*
X160858911Y-107846670D01*
X160858914Y-107846665D01*
X160858919Y-107846661D01*
X160998611Y-107664612D01*
X161113344Y-107465888D01*
X161201158Y-107253887D01*
X161260548Y-107032238D01*
X161290500Y-106804734D01*
X161290500Y-106575266D01*
X161260548Y-106347762D01*
X161201158Y-106126113D01*
X161113344Y-105914112D01*
X160998611Y-105715388D01*
X160998608Y-105715385D01*
X160998607Y-105715382D01*
X160858918Y-105533338D01*
X160858911Y-105533330D01*
X160696670Y-105371089D01*
X160696661Y-105371081D01*
X160514617Y-105231392D01*
X160315890Y-105116657D01*
X160315876Y-105116650D01*
X160103887Y-105028842D01*
X159882238Y-104969452D01*
X159844215Y-104964446D01*
X159654741Y-104939500D01*
X159654734Y-104939500D01*
X159425266Y-104939500D01*
X159425258Y-104939500D01*
X159212938Y-104967454D01*
X159197762Y-104969452D01*
X159104076Y-104994554D01*
X158976112Y-105028842D01*
X158764123Y-105116650D01*
X158764109Y-105116657D01*
X158565382Y-105231392D01*
X158392103Y-105364356D01*
X158326934Y-105389551D01*
X158258489Y-105375513D01*
X158208499Y-105326699D01*
X158194143Y-105285379D01*
X158170940Y-105138881D01*
X158143113Y-105053240D01*
X158112547Y-104959168D01*
X158112545Y-104959165D01*
X158112545Y-104959163D01*
X158026759Y-104790800D01*
X157915690Y-104637927D01*
X157782073Y-104504310D01*
X157629199Y-104393240D01*
X157460836Y-104307454D01*
X157281118Y-104249059D01*
X157094486Y-104219500D01*
X157094481Y-104219500D01*
X156905519Y-104219500D01*
X156905514Y-104219500D01*
X156718881Y-104249059D01*
X156539163Y-104307454D01*
X156370800Y-104393240D01*
X156283579Y-104456610D01*
X156217927Y-104504310D01*
X156217925Y-104504312D01*
X156217924Y-104504312D01*
X156084312Y-104637924D01*
X156084312Y-104637925D01*
X156084310Y-104637927D01*
X156041637Y-104696661D01*
X155973240Y-104790800D01*
X155887454Y-104959163D01*
X155829059Y-105138881D01*
X155799500Y-105325513D01*
X138935732Y-105325513D01*
X138915690Y-105297927D01*
X138782073Y-105164310D01*
X138629199Y-105053240D01*
X138460836Y-104967454D01*
X138281118Y-104909059D01*
X138094486Y-104879500D01*
X138094481Y-104879500D01*
X137905519Y-104879500D01*
X137905514Y-104879500D01*
X137718881Y-104909059D01*
X137539163Y-104967454D01*
X137370800Y-105053240D01*
X137288078Y-105113342D01*
X137217927Y-105164310D01*
X137217925Y-105164312D01*
X137217924Y-105164312D01*
X137084312Y-105297924D01*
X137084312Y-105297925D01*
X137084310Y-105297927D01*
X137064268Y-105325513D01*
X136973240Y-105450800D01*
X136887454Y-105619163D01*
X136829059Y-105798881D01*
X136799500Y-105985513D01*
X120200500Y-105985513D01*
X120170940Y-105798881D01*
X120112545Y-105619163D01*
X120026759Y-105450800D01*
X119915690Y-105297927D01*
X119782073Y-105164310D01*
X119629199Y-105053240D01*
X119460836Y-104967454D01*
X119281118Y-104909059D01*
X119094486Y-104879500D01*
X119094481Y-104879500D01*
X118905519Y-104879500D01*
X118905514Y-104879500D01*
X118718881Y-104909059D01*
X118539163Y-104967454D01*
X118370800Y-105053240D01*
X118288078Y-105113342D01*
X118217927Y-105164310D01*
X118217925Y-105164312D01*
X118217924Y-105164312D01*
X118084312Y-105297924D01*
X118084312Y-105297925D01*
X118084310Y-105297927D01*
X118064268Y-105325513D01*
X117973240Y-105450800D01*
X117887454Y-105619163D01*
X117829059Y-105798881D01*
X117799500Y-105985513D01*
X101200500Y-105985513D01*
X101170940Y-105798881D01*
X101112545Y-105619163D01*
X101026759Y-105450800D01*
X100915690Y-105297927D01*
X100782073Y-105164310D01*
X100629199Y-105053240D01*
X100460836Y-104967454D01*
X100281118Y-104909059D01*
X100094486Y-104879500D01*
X100094481Y-104879500D01*
X99905519Y-104879500D01*
X99905514Y-104879500D01*
X99718881Y-104909059D01*
X99539163Y-104967454D01*
X99370800Y-105053240D01*
X99288078Y-105113342D01*
X99217927Y-105164310D01*
X99217925Y-105164312D01*
X99217924Y-105164312D01*
X99084312Y-105297924D01*
X99084312Y-105297925D01*
X99084310Y-105297927D01*
X99064268Y-105325513D01*
X98973240Y-105450800D01*
X98887454Y-105619163D01*
X98829059Y-105798881D01*
X98799500Y-105985513D01*
X90000500Y-105985513D01*
X90000500Y-103425258D01*
X103329500Y-103425258D01*
X103329500Y-103654741D01*
X103354446Y-103844215D01*
X103359452Y-103882238D01*
X103359453Y-103882240D01*
X103418842Y-104103887D01*
X103506650Y-104315876D01*
X103506657Y-104315890D01*
X103621392Y-104514617D01*
X103761081Y-104696661D01*
X103761089Y-104696670D01*
X103923330Y-104858911D01*
X103923338Y-104858918D01*
X104105382Y-104998607D01*
X104105385Y-104998608D01*
X104105388Y-104998611D01*
X104304112Y-105113344D01*
X104304117Y-105113346D01*
X104304123Y-105113349D01*
X104365766Y-105138882D01*
X104516113Y-105201158D01*
X104737762Y-105260548D01*
X104965266Y-105290500D01*
X104965273Y-105290500D01*
X105194727Y-105290500D01*
X105194734Y-105290500D01*
X105422238Y-105260548D01*
X105643887Y-105201158D01*
X105855888Y-105113344D01*
X106054612Y-104998611D01*
X106236661Y-104858919D01*
X106236665Y-104858914D01*
X106236670Y-104858911D01*
X106398911Y-104696670D01*
X106398914Y-104696665D01*
X106398919Y-104696661D01*
X106538611Y-104514612D01*
X106653344Y-104315888D01*
X106741158Y-104103887D01*
X106800548Y-103882238D01*
X106830500Y-103654734D01*
X106830500Y-103425266D01*
X106830499Y-103425258D01*
X122329500Y-103425258D01*
X122329500Y-103654741D01*
X122354446Y-103844215D01*
X122359452Y-103882238D01*
X122359453Y-103882240D01*
X122418842Y-104103887D01*
X122506650Y-104315876D01*
X122506657Y-104315890D01*
X122621392Y-104514617D01*
X122761081Y-104696661D01*
X122761089Y-104696670D01*
X122923330Y-104858911D01*
X122923338Y-104858918D01*
X123105382Y-104998607D01*
X123105385Y-104998608D01*
X123105388Y-104998611D01*
X123304112Y-105113344D01*
X123304117Y-105113346D01*
X123304123Y-105113349D01*
X123365766Y-105138882D01*
X123516113Y-105201158D01*
X123737762Y-105260548D01*
X123965266Y-105290500D01*
X123965273Y-105290500D01*
X124194727Y-105290500D01*
X124194734Y-105290500D01*
X124422238Y-105260548D01*
X124643887Y-105201158D01*
X124855888Y-105113344D01*
X125054612Y-104998611D01*
X125236661Y-104858919D01*
X125236665Y-104858914D01*
X125236670Y-104858911D01*
X125398911Y-104696670D01*
X125398914Y-104696665D01*
X125398919Y-104696661D01*
X125538611Y-104514612D01*
X125653344Y-104315888D01*
X125741158Y-104103887D01*
X125800548Y-103882238D01*
X125830500Y-103654734D01*
X125830500Y-103425266D01*
X125830499Y-103425258D01*
X141329500Y-103425258D01*
X141329500Y-103654741D01*
X141354446Y-103844215D01*
X141359452Y-103882238D01*
X141359453Y-103882240D01*
X141418842Y-104103887D01*
X141506650Y-104315876D01*
X141506657Y-104315890D01*
X141621392Y-104514617D01*
X141761081Y-104696661D01*
X141761089Y-104696670D01*
X141923330Y-104858911D01*
X141923338Y-104858918D01*
X142105382Y-104998607D01*
X142105385Y-104998608D01*
X142105388Y-104998611D01*
X142304112Y-105113344D01*
X142304117Y-105113346D01*
X142304123Y-105113349D01*
X142365766Y-105138882D01*
X142516113Y-105201158D01*
X142737762Y-105260548D01*
X142965266Y-105290500D01*
X142965273Y-105290500D01*
X143194727Y-105290500D01*
X143194734Y-105290500D01*
X143422238Y-105260548D01*
X143643887Y-105201158D01*
X143855888Y-105113344D01*
X144054612Y-104998611D01*
X144236661Y-104858919D01*
X144236665Y-104858914D01*
X144236670Y-104858911D01*
X144398911Y-104696670D01*
X144398914Y-104696665D01*
X144398919Y-104696661D01*
X144538611Y-104514612D01*
X144653344Y-104315888D01*
X144741158Y-104103887D01*
X144800548Y-103882238D01*
X144830500Y-103654734D01*
X144830500Y-103425266D01*
X144800548Y-103197762D01*
X144741158Y-102976113D01*
X144653344Y-102764112D01*
X144538611Y-102565388D01*
X144538608Y-102565385D01*
X144538607Y-102565382D01*
X144398918Y-102383338D01*
X144398911Y-102383330D01*
X144236670Y-102221089D01*
X144236661Y-102221081D01*
X144054617Y-102081392D01*
X143855890Y-101966657D01*
X143855876Y-101966650D01*
X143643887Y-101878842D01*
X143422238Y-101819452D01*
X143384215Y-101814446D01*
X143194741Y-101789500D01*
X143194734Y-101789500D01*
X142965266Y-101789500D01*
X142965258Y-101789500D01*
X142748715Y-101818009D01*
X142737762Y-101819452D01*
X142644076Y-101844554D01*
X142516112Y-101878842D01*
X142304123Y-101966650D01*
X142304109Y-101966657D01*
X142105382Y-102081392D01*
X141923338Y-102221081D01*
X141761081Y-102383338D01*
X141621392Y-102565382D01*
X141506657Y-102764109D01*
X141506650Y-102764123D01*
X141418842Y-102976112D01*
X141418842Y-102976113D01*
X141363385Y-103183086D01*
X141359453Y-103197759D01*
X141359451Y-103197770D01*
X141329500Y-103425258D01*
X125830499Y-103425258D01*
X125800548Y-103197762D01*
X125741158Y-102976113D01*
X125653344Y-102764112D01*
X125538611Y-102565388D01*
X125538608Y-102565385D01*
X125538607Y-102565382D01*
X125398918Y-102383338D01*
X125398911Y-102383330D01*
X125236670Y-102221089D01*
X125236661Y-102221081D01*
X125054617Y-102081392D01*
X124855890Y-101966657D01*
X124855876Y-101966650D01*
X124643887Y-101878842D01*
X124422238Y-101819452D01*
X124384215Y-101814446D01*
X124194741Y-101789500D01*
X124194734Y-101789500D01*
X123965266Y-101789500D01*
X123965258Y-101789500D01*
X123748715Y-101818009D01*
X123737762Y-101819452D01*
X123644076Y-101844554D01*
X123516112Y-101878842D01*
X123304123Y-101966650D01*
X123304109Y-101966657D01*
X123105382Y-102081392D01*
X122923338Y-102221081D01*
X122761081Y-102383338D01*
X122621392Y-102565382D01*
X122506657Y-102764109D01*
X122506650Y-102764123D01*
X122418842Y-102976112D01*
X122418842Y-102976113D01*
X122363385Y-103183086D01*
X122359453Y-103197759D01*
X122359451Y-103197770D01*
X122329500Y-103425258D01*
X106830499Y-103425258D01*
X106800548Y-103197762D01*
X106741158Y-102976113D01*
X106653344Y-102764112D01*
X106538611Y-102565388D01*
X106538608Y-102565385D01*
X106538607Y-102565382D01*
X106398918Y-102383338D01*
X106398911Y-102383330D01*
X106236670Y-102221089D01*
X106236661Y-102221081D01*
X106054617Y-102081392D01*
X105855890Y-101966657D01*
X105855876Y-101966650D01*
X105643887Y-101878842D01*
X105422238Y-101819452D01*
X105384215Y-101814446D01*
X105194741Y-101789500D01*
X105194734Y-101789500D01*
X104965266Y-101789500D01*
X104965258Y-101789500D01*
X104748715Y-101818009D01*
X104737762Y-101819452D01*
X104644076Y-101844554D01*
X104516112Y-101878842D01*
X104304123Y-101966650D01*
X104304109Y-101966657D01*
X104105382Y-102081392D01*
X103923338Y-102221081D01*
X103761081Y-102383338D01*
X103621392Y-102565382D01*
X103506657Y-102764109D01*
X103506650Y-102764123D01*
X103418842Y-102976112D01*
X103418842Y-102976113D01*
X103363385Y-103183086D01*
X103359453Y-103197759D01*
X103359451Y-103197770D01*
X103329500Y-103425258D01*
X90000500Y-103425258D01*
X90000500Y-100849223D01*
X97699500Y-100849223D01*
X97699500Y-101150776D01*
X97699501Y-101150793D01*
X97738861Y-101449766D01*
X97816913Y-101741060D01*
X97932314Y-102019661D01*
X97932318Y-102019671D01*
X98083099Y-102280831D01*
X98266679Y-102520078D01*
X98266685Y-102520085D01*
X98479914Y-102733314D01*
X98479921Y-102733320D01*
X98719168Y-102916900D01*
X98980328Y-103067681D01*
X98980329Y-103067681D01*
X98980332Y-103067683D01*
X99166072Y-103144619D01*
X99258939Y-103183086D01*
X99258940Y-103183086D01*
X99258942Y-103183087D01*
X99550232Y-103261138D01*
X99849217Y-103300500D01*
X99849224Y-103300500D01*
X100150776Y-103300500D01*
X100150783Y-103300500D01*
X100449768Y-103261138D01*
X100741058Y-103183087D01*
X101019668Y-103067683D01*
X101280832Y-102916900D01*
X101520080Y-102733319D01*
X101733319Y-102520080D01*
X101916900Y-102280832D01*
X102067683Y-102019668D01*
X102183087Y-101741058D01*
X102261138Y-101449768D01*
X102300500Y-101150783D01*
X102300500Y-100849223D01*
X116699500Y-100849223D01*
X116699500Y-101150776D01*
X116699501Y-101150793D01*
X116738861Y-101449766D01*
X116816913Y-101741060D01*
X116932314Y-102019661D01*
X116932318Y-102019671D01*
X117083099Y-102280831D01*
X117266679Y-102520078D01*
X117266685Y-102520085D01*
X117479914Y-102733314D01*
X117479921Y-102733320D01*
X117719168Y-102916900D01*
X117980328Y-103067681D01*
X117980329Y-103067681D01*
X117980332Y-103067683D01*
X118166072Y-103144619D01*
X118258939Y-103183086D01*
X118258940Y-103183086D01*
X118258942Y-103183087D01*
X118550232Y-103261138D01*
X118849217Y-103300500D01*
X118849224Y-103300500D01*
X119150776Y-103300500D01*
X119150783Y-103300500D01*
X119449768Y-103261138D01*
X119741058Y-103183087D01*
X120019668Y-103067683D01*
X120280832Y-102916900D01*
X120520080Y-102733319D01*
X120733319Y-102520080D01*
X120916900Y-102280832D01*
X121067683Y-102019668D01*
X121183087Y-101741058D01*
X121261138Y-101449768D01*
X121300500Y-101150783D01*
X121300500Y-100849223D01*
X135699500Y-100849223D01*
X135699500Y-101150776D01*
X135699501Y-101150793D01*
X135738861Y-101449766D01*
X135816913Y-101741060D01*
X135932314Y-102019661D01*
X135932318Y-102019671D01*
X136083099Y-102280831D01*
X136266679Y-102520078D01*
X136266685Y-102520085D01*
X136479914Y-102733314D01*
X136479921Y-102733320D01*
X136719168Y-102916900D01*
X136980328Y-103067681D01*
X136980329Y-103067681D01*
X136980332Y-103067683D01*
X137166072Y-103144619D01*
X137258939Y-103183086D01*
X137258940Y-103183086D01*
X137258942Y-103183087D01*
X137550232Y-103261138D01*
X137849217Y-103300500D01*
X137849224Y-103300500D01*
X138150776Y-103300500D01*
X138150783Y-103300500D01*
X138449768Y-103261138D01*
X138741058Y-103183087D01*
X139019668Y-103067683D01*
X139280832Y-102916900D01*
X139520080Y-102733319D01*
X139733319Y-102520080D01*
X139916900Y-102280832D01*
X140067683Y-102019668D01*
X140183087Y-101741058D01*
X140261138Y-101449768D01*
X140300500Y-101150783D01*
X140300500Y-100849217D01*
X140261138Y-100550232D01*
X140183087Y-100258942D01*
X140067683Y-99980332D01*
X139916900Y-99719168D01*
X139733319Y-99479920D01*
X139733314Y-99479914D01*
X139520085Y-99266685D01*
X139520078Y-99266679D01*
X139280831Y-99083099D01*
X139019671Y-98932318D01*
X139019661Y-98932314D01*
X138741060Y-98816913D01*
X138449766Y-98738861D01*
X138150793Y-98699501D01*
X138150788Y-98699500D01*
X138150783Y-98699500D01*
X137849217Y-98699500D01*
X137849211Y-98699500D01*
X137849206Y-98699501D01*
X137550233Y-98738861D01*
X137258939Y-98816913D01*
X136980338Y-98932314D01*
X136980328Y-98932318D01*
X136719168Y-99083099D01*
X136479921Y-99266679D01*
X136479914Y-99266685D01*
X136266685Y-99479914D01*
X136266679Y-99479921D01*
X136083099Y-99719168D01*
X135932318Y-99980328D01*
X135932314Y-99980338D01*
X135816913Y-100258939D01*
X135738861Y-100550233D01*
X135699501Y-100849206D01*
X135699500Y-100849223D01*
X121300500Y-100849223D01*
X121300500Y-100849217D01*
X121261138Y-100550232D01*
X121183087Y-100258942D01*
X121067683Y-99980332D01*
X120916900Y-99719168D01*
X120733319Y-99479920D01*
X120733314Y-99479914D01*
X120520085Y-99266685D01*
X120520078Y-99266679D01*
X120280831Y-99083099D01*
X120019671Y-98932318D01*
X120019661Y-98932314D01*
X119741060Y-98816913D01*
X119449766Y-98738861D01*
X119150793Y-98699501D01*
X119150788Y-98699500D01*
X119150783Y-98699500D01*
X118849217Y-98699500D01*
X118849211Y-98699500D01*
X118849206Y-98699501D01*
X118550233Y-98738861D01*
X118258939Y-98816913D01*
X117980338Y-98932314D01*
X117980328Y-98932318D01*
X117719168Y-99083099D01*
X117479921Y-99266679D01*
X117479914Y-99266685D01*
X117266685Y-99479914D01*
X117266679Y-99479921D01*
X117083099Y-99719168D01*
X116932318Y-99980328D01*
X116932314Y-99980338D01*
X116816913Y-100258939D01*
X116738861Y-100550233D01*
X116699501Y-100849206D01*
X116699500Y-100849223D01*
X102300500Y-100849223D01*
X102300500Y-100849217D01*
X102261138Y-100550232D01*
X102183087Y-100258942D01*
X102067683Y-99980332D01*
X101916900Y-99719168D01*
X101733319Y-99479920D01*
X101733314Y-99479914D01*
X101520085Y-99266685D01*
X101520078Y-99266679D01*
X101280831Y-99083099D01*
X101019671Y-98932318D01*
X101019661Y-98932314D01*
X100741060Y-98816913D01*
X100449766Y-98738861D01*
X100150793Y-98699501D01*
X100150788Y-98699500D01*
X100150783Y-98699500D01*
X99849217Y-98699500D01*
X99849211Y-98699500D01*
X99849206Y-98699501D01*
X99550233Y-98738861D01*
X99258939Y-98816913D01*
X98980338Y-98932314D01*
X98980328Y-98932318D01*
X98719168Y-99083099D01*
X98479921Y-99266679D01*
X98479914Y-99266685D01*
X98266685Y-99479914D01*
X98266679Y-99479921D01*
X98083099Y-99719168D01*
X97932318Y-99980328D01*
X97932314Y-99980338D01*
X97816913Y-100258939D01*
X97738861Y-100550233D01*
X97699501Y-100849206D01*
X97699500Y-100849223D01*
X90000500Y-100849223D01*
X90000500Y-95825513D01*
X98799500Y-95825513D01*
X98799500Y-96014486D01*
X98829059Y-96201118D01*
X98887454Y-96380836D01*
X98973240Y-96549199D01*
X99084310Y-96702073D01*
X99217927Y-96835690D01*
X99370801Y-96946760D01*
X99416797Y-96970196D01*
X99539163Y-97032545D01*
X99539165Y-97032545D01*
X99539168Y-97032547D01*
X99635497Y-97063846D01*
X99718881Y-97090940D01*
X99905514Y-97120500D01*
X99905519Y-97120500D01*
X100094486Y-97120500D01*
X100281118Y-97090940D01*
X100460832Y-97032547D01*
X100609462Y-96956816D01*
X100678128Y-96943920D01*
X100742869Y-96970196D01*
X100783127Y-97027302D01*
X100788940Y-97071207D01*
X100789500Y-97071207D01*
X100789500Y-97304741D01*
X100814446Y-97494215D01*
X100819452Y-97532238D01*
X100819453Y-97532240D01*
X100878842Y-97753887D01*
X100966650Y-97965876D01*
X100966657Y-97965890D01*
X101081392Y-98164617D01*
X101221081Y-98346661D01*
X101221089Y-98346670D01*
X101383330Y-98508911D01*
X101383338Y-98508918D01*
X101565382Y-98648607D01*
X101565385Y-98648608D01*
X101565388Y-98648611D01*
X101764112Y-98763344D01*
X101764117Y-98763346D01*
X101764123Y-98763349D01*
X101855480Y-98801190D01*
X101976113Y-98851158D01*
X102197762Y-98910548D01*
X102425266Y-98940500D01*
X102425273Y-98940500D01*
X102654727Y-98940500D01*
X102654734Y-98940500D01*
X102882238Y-98910548D01*
X103103887Y-98851158D01*
X103315888Y-98763344D01*
X103514612Y-98648611D01*
X103696661Y-98508919D01*
X103696665Y-98508914D01*
X103696670Y-98508911D01*
X103858911Y-98346670D01*
X103858914Y-98346665D01*
X103858919Y-98346661D01*
X103998611Y-98164612D01*
X104113344Y-97965888D01*
X104201158Y-97753887D01*
X104260548Y-97532238D01*
X104290500Y-97304734D01*
X104290500Y-97075266D01*
X104260548Y-96847762D01*
X104201158Y-96626113D01*
X104113344Y-96414112D01*
X103998611Y-96215388D01*
X103998608Y-96215385D01*
X103998607Y-96215382D01*
X103858918Y-96033338D01*
X103858911Y-96033330D01*
X103696670Y-95871089D01*
X103696661Y-95871081D01*
X103637276Y-95825513D01*
X117799500Y-95825513D01*
X117799500Y-96014486D01*
X117829059Y-96201118D01*
X117887454Y-96380836D01*
X117973240Y-96549199D01*
X118084310Y-96702073D01*
X118217927Y-96835690D01*
X118370801Y-96946760D01*
X118416797Y-96970196D01*
X118539163Y-97032545D01*
X118539165Y-97032545D01*
X118539168Y-97032547D01*
X118635497Y-97063846D01*
X118718881Y-97090940D01*
X118905514Y-97120500D01*
X118905519Y-97120500D01*
X119094486Y-97120500D01*
X119281118Y-97090940D01*
X119460832Y-97032547D01*
X119609462Y-96956816D01*
X119678128Y-96943920D01*
X119742869Y-96970196D01*
X119783127Y-97027302D01*
X119788940Y-97071207D01*
X119789500Y-97071207D01*
X119789500Y-97304741D01*
X119814446Y-97494215D01*
X119819452Y-97532238D01*
X119819453Y-97532240D01*
X119878842Y-97753887D01*
X119966650Y-97965876D01*
X119966657Y-97965890D01*
X120081392Y-98164617D01*
X120221081Y-98346661D01*
X120221089Y-98346670D01*
X120383330Y-98508911D01*
X120383338Y-98508918D01*
X120565382Y-98648607D01*
X120565385Y-98648608D01*
X120565388Y-98648611D01*
X120764112Y-98763344D01*
X120764117Y-98763346D01*
X120764123Y-98763349D01*
X120855480Y-98801190D01*
X120976113Y-98851158D01*
X121197762Y-98910548D01*
X121425266Y-98940500D01*
X121425273Y-98940500D01*
X121654727Y-98940500D01*
X121654734Y-98940500D01*
X121882238Y-98910548D01*
X122103887Y-98851158D01*
X122315888Y-98763344D01*
X122514612Y-98648611D01*
X122696661Y-98508919D01*
X122696665Y-98508914D01*
X122696670Y-98508911D01*
X122858911Y-98346670D01*
X122858914Y-98346665D01*
X122858919Y-98346661D01*
X122998611Y-98164612D01*
X123113344Y-97965888D01*
X123201158Y-97753887D01*
X123260548Y-97532238D01*
X123290500Y-97304734D01*
X123290500Y-97075266D01*
X123260548Y-96847762D01*
X123201158Y-96626113D01*
X123113344Y-96414112D01*
X122998611Y-96215388D01*
X122998608Y-96215385D01*
X122998607Y-96215382D01*
X122858918Y-96033338D01*
X122858911Y-96033330D01*
X122696670Y-95871089D01*
X122696661Y-95871081D01*
X122637276Y-95825513D01*
X136799500Y-95825513D01*
X136799500Y-96014486D01*
X136829059Y-96201118D01*
X136887454Y-96380836D01*
X136973240Y-96549199D01*
X137084310Y-96702073D01*
X137217927Y-96835690D01*
X137370801Y-96946760D01*
X137416797Y-96970196D01*
X137539163Y-97032545D01*
X137539165Y-97032545D01*
X137539168Y-97032547D01*
X137635497Y-97063846D01*
X137718881Y-97090940D01*
X137905514Y-97120500D01*
X137905519Y-97120500D01*
X138094486Y-97120500D01*
X138281118Y-97090940D01*
X138460832Y-97032547D01*
X138609462Y-96956816D01*
X138678128Y-96943920D01*
X138742869Y-96970196D01*
X138783127Y-97027302D01*
X138788940Y-97071207D01*
X138789500Y-97071207D01*
X138789500Y-97304741D01*
X138814446Y-97494215D01*
X138819452Y-97532238D01*
X138819453Y-97532240D01*
X138878842Y-97753887D01*
X138966650Y-97965876D01*
X138966657Y-97965890D01*
X139081392Y-98164617D01*
X139221081Y-98346661D01*
X139221089Y-98346670D01*
X139383330Y-98508911D01*
X139383338Y-98508918D01*
X139565382Y-98648607D01*
X139565385Y-98648608D01*
X139565388Y-98648611D01*
X139764112Y-98763344D01*
X139764117Y-98763346D01*
X139764123Y-98763349D01*
X139855480Y-98801190D01*
X139976113Y-98851158D01*
X140197762Y-98910548D01*
X140425266Y-98940500D01*
X140425273Y-98940500D01*
X140654727Y-98940500D01*
X140654734Y-98940500D01*
X140882238Y-98910548D01*
X141103887Y-98851158D01*
X141315888Y-98763344D01*
X141514612Y-98648611D01*
X141696661Y-98508919D01*
X141696665Y-98508914D01*
X141696670Y-98508911D01*
X141858911Y-98346670D01*
X141858914Y-98346665D01*
X141858919Y-98346661D01*
X141998611Y-98164612D01*
X142113344Y-97965888D01*
X142201158Y-97753887D01*
X142260548Y-97532238D01*
X142290500Y-97304734D01*
X142290500Y-97075266D01*
X142260548Y-96847762D01*
X142201158Y-96626113D01*
X142113344Y-96414112D01*
X141998611Y-96215388D01*
X141998608Y-96215385D01*
X141998607Y-96215382D01*
X141858918Y-96033338D01*
X141858911Y-96033330D01*
X141696670Y-95871089D01*
X141696661Y-95871081D01*
X141514617Y-95731392D01*
X141315890Y-95616657D01*
X141315876Y-95616650D01*
X141103887Y-95528842D01*
X140882238Y-95469452D01*
X140844215Y-95464446D01*
X140654741Y-95439500D01*
X140654734Y-95439500D01*
X140425266Y-95439500D01*
X140425258Y-95439500D01*
X140208715Y-95468009D01*
X140197762Y-95469452D01*
X140104076Y-95494554D01*
X139976112Y-95528842D01*
X139764123Y-95616650D01*
X139764109Y-95616657D01*
X139565382Y-95731392D01*
X139392103Y-95864356D01*
X139326934Y-95889551D01*
X139258489Y-95875513D01*
X139208499Y-95826699D01*
X139194143Y-95785379D01*
X139170940Y-95638881D01*
X139143846Y-95555497D01*
X139112547Y-95459168D01*
X139112545Y-95459165D01*
X139112545Y-95459163D01*
X139026759Y-95290800D01*
X138915690Y-95137927D01*
X138782073Y-95004310D01*
X138629199Y-94893240D01*
X138460836Y-94807454D01*
X138281118Y-94749059D01*
X138094486Y-94719500D01*
X138094481Y-94719500D01*
X137905519Y-94719500D01*
X137905514Y-94719500D01*
X137718881Y-94749059D01*
X137539163Y-94807454D01*
X137370800Y-94893240D01*
X137283579Y-94956610D01*
X137217927Y-95004310D01*
X137217925Y-95004312D01*
X137217924Y-95004312D01*
X137084312Y-95137924D01*
X137084312Y-95137925D01*
X137084310Y-95137927D01*
X137036610Y-95203579D01*
X136973240Y-95290800D01*
X136887454Y-95459163D01*
X136829059Y-95638881D01*
X136799500Y-95825513D01*
X122637276Y-95825513D01*
X122514617Y-95731392D01*
X122315890Y-95616657D01*
X122315876Y-95616650D01*
X122103887Y-95528842D01*
X121882238Y-95469452D01*
X121844215Y-95464446D01*
X121654741Y-95439500D01*
X121654734Y-95439500D01*
X121425266Y-95439500D01*
X121425258Y-95439500D01*
X121208715Y-95468009D01*
X121197762Y-95469452D01*
X121104076Y-95494554D01*
X120976112Y-95528842D01*
X120764123Y-95616650D01*
X120764109Y-95616657D01*
X120565382Y-95731392D01*
X120392103Y-95864356D01*
X120326934Y-95889551D01*
X120258489Y-95875513D01*
X120208499Y-95826699D01*
X120194143Y-95785379D01*
X120170940Y-95638881D01*
X120143846Y-95555497D01*
X120112547Y-95459168D01*
X120112545Y-95459165D01*
X120112545Y-95459163D01*
X120026759Y-95290800D01*
X119915690Y-95137927D01*
X119782073Y-95004310D01*
X119629199Y-94893240D01*
X119460836Y-94807454D01*
X119281118Y-94749059D01*
X119094486Y-94719500D01*
X119094481Y-94719500D01*
X118905519Y-94719500D01*
X118905514Y-94719500D01*
X118718881Y-94749059D01*
X118539163Y-94807454D01*
X118370800Y-94893240D01*
X118283579Y-94956610D01*
X118217927Y-95004310D01*
X118217925Y-95004312D01*
X118217924Y-95004312D01*
X118084312Y-95137924D01*
X118084312Y-95137925D01*
X118084310Y-95137927D01*
X118036610Y-95203579D01*
X117973240Y-95290800D01*
X117887454Y-95459163D01*
X117829059Y-95638881D01*
X117799500Y-95825513D01*
X103637276Y-95825513D01*
X103514617Y-95731392D01*
X103315890Y-95616657D01*
X103315876Y-95616650D01*
X103103887Y-95528842D01*
X102882238Y-95469452D01*
X102844215Y-95464446D01*
X102654741Y-95439500D01*
X102654734Y-95439500D01*
X102425266Y-95439500D01*
X102425258Y-95439500D01*
X102208715Y-95468009D01*
X102197762Y-95469452D01*
X102104076Y-95494554D01*
X101976112Y-95528842D01*
X101764123Y-95616650D01*
X101764109Y-95616657D01*
X101565382Y-95731392D01*
X101392103Y-95864356D01*
X101326934Y-95889551D01*
X101258489Y-95875513D01*
X101208499Y-95826699D01*
X101194143Y-95785379D01*
X101170940Y-95638881D01*
X101143846Y-95555497D01*
X101112547Y-95459168D01*
X101112545Y-95459165D01*
X101112545Y-95459163D01*
X101026759Y-95290800D01*
X100915690Y-95137927D01*
X100782073Y-95004310D01*
X100629199Y-94893240D01*
X100460836Y-94807454D01*
X100281118Y-94749059D01*
X100094486Y-94719500D01*
X100094481Y-94719500D01*
X99905519Y-94719500D01*
X99905514Y-94719500D01*
X99718881Y-94749059D01*
X99539163Y-94807454D01*
X99370800Y-94893240D01*
X99283579Y-94956610D01*
X99217927Y-95004310D01*
X99217925Y-95004312D01*
X99217924Y-95004312D01*
X99084312Y-95137924D01*
X99084312Y-95137925D01*
X99084310Y-95137927D01*
X99036610Y-95203579D01*
X98973240Y-95290800D01*
X98887454Y-95459163D01*
X98829059Y-95638881D01*
X98799500Y-95825513D01*
X90000500Y-95825513D01*
X90000500Y-86985513D01*
X98799500Y-86985513D01*
X98799500Y-87174486D01*
X98829059Y-87361118D01*
X98887454Y-87540836D01*
X98973240Y-87709199D01*
X99084310Y-87862073D01*
X99217927Y-87995690D01*
X99370801Y-88106760D01*
X99450347Y-88147290D01*
X99539163Y-88192545D01*
X99539165Y-88192545D01*
X99539168Y-88192547D01*
X99635497Y-88223846D01*
X99718881Y-88250940D01*
X99905514Y-88280500D01*
X99905519Y-88280500D01*
X100094486Y-88280500D01*
X100281118Y-88250940D01*
X100460832Y-88192547D01*
X100629199Y-88106760D01*
X100782073Y-87995690D01*
X100915690Y-87862073D01*
X101026760Y-87709199D01*
X101112547Y-87540832D01*
X101170940Y-87361118D01*
X101200500Y-87174486D01*
X101200500Y-86985513D01*
X117799500Y-86985513D01*
X117799500Y-87174486D01*
X117829059Y-87361118D01*
X117887454Y-87540836D01*
X117973240Y-87709199D01*
X118084310Y-87862073D01*
X118217927Y-87995690D01*
X118370801Y-88106760D01*
X118450347Y-88147290D01*
X118539163Y-88192545D01*
X118539165Y-88192545D01*
X118539168Y-88192547D01*
X118635497Y-88223846D01*
X118718881Y-88250940D01*
X118905514Y-88280500D01*
X118905519Y-88280500D01*
X119094486Y-88280500D01*
X119281118Y-88250940D01*
X119460832Y-88192547D01*
X119629199Y-88106760D01*
X119782073Y-87995690D01*
X119915690Y-87862073D01*
X120026760Y-87709199D01*
X120112547Y-87540832D01*
X120170940Y-87361118D01*
X120200500Y-87174486D01*
X120200500Y-86985513D01*
X136799500Y-86985513D01*
X136799500Y-87174486D01*
X136829059Y-87361118D01*
X136887454Y-87540836D01*
X136973240Y-87709199D01*
X137084310Y-87862073D01*
X137217927Y-87995690D01*
X137370801Y-88106760D01*
X137450347Y-88147290D01*
X137539163Y-88192545D01*
X137539165Y-88192545D01*
X137539168Y-88192547D01*
X137635497Y-88223846D01*
X137718881Y-88250940D01*
X137905514Y-88280500D01*
X137905519Y-88280500D01*
X138094486Y-88280500D01*
X138281118Y-88250940D01*
X138460832Y-88192547D01*
X138629199Y-88106760D01*
X138782073Y-87995690D01*
X138915690Y-87862073D01*
X139026760Y-87709199D01*
X139112547Y-87540832D01*
X139170940Y-87361118D01*
X139200500Y-87174486D01*
X139200500Y-86985513D01*
X139170940Y-86798881D01*
X139112545Y-86619163D01*
X139026759Y-86450800D01*
X138915690Y-86297927D01*
X138782073Y-86164310D01*
X138629199Y-86053240D01*
X138460836Y-85967454D01*
X138281118Y-85909059D01*
X138094486Y-85879500D01*
X138094481Y-85879500D01*
X137905519Y-85879500D01*
X137905514Y-85879500D01*
X137718881Y-85909059D01*
X137539163Y-85967454D01*
X137370800Y-86053240D01*
X137288078Y-86113342D01*
X137217927Y-86164310D01*
X137217925Y-86164312D01*
X137217924Y-86164312D01*
X137084312Y-86297924D01*
X137084312Y-86297925D01*
X137084310Y-86297927D01*
X137036610Y-86363579D01*
X136973240Y-86450800D01*
X136887454Y-86619163D01*
X136829059Y-86798881D01*
X136799500Y-86985513D01*
X120200500Y-86985513D01*
X120170940Y-86798881D01*
X120112545Y-86619163D01*
X120026759Y-86450800D01*
X119915690Y-86297927D01*
X119782073Y-86164310D01*
X119629199Y-86053240D01*
X119460836Y-85967454D01*
X119281118Y-85909059D01*
X119094486Y-85879500D01*
X119094481Y-85879500D01*
X118905519Y-85879500D01*
X118905514Y-85879500D01*
X118718881Y-85909059D01*
X118539163Y-85967454D01*
X118370800Y-86053240D01*
X118288078Y-86113342D01*
X118217927Y-86164310D01*
X118217925Y-86164312D01*
X118217924Y-86164312D01*
X118084312Y-86297924D01*
X118084312Y-86297925D01*
X118084310Y-86297927D01*
X118036610Y-86363579D01*
X117973240Y-86450800D01*
X117887454Y-86619163D01*
X117829059Y-86798881D01*
X117799500Y-86985513D01*
X101200500Y-86985513D01*
X101170940Y-86798881D01*
X101112545Y-86619163D01*
X101026759Y-86450800D01*
X100915690Y-86297927D01*
X100782073Y-86164310D01*
X100629199Y-86053240D01*
X100460836Y-85967454D01*
X100281118Y-85909059D01*
X100094486Y-85879500D01*
X100094481Y-85879500D01*
X99905519Y-85879500D01*
X99905514Y-85879500D01*
X99718881Y-85909059D01*
X99539163Y-85967454D01*
X99370800Y-86053240D01*
X99288078Y-86113342D01*
X99217927Y-86164310D01*
X99217925Y-86164312D01*
X99217924Y-86164312D01*
X99084312Y-86297924D01*
X99084312Y-86297925D01*
X99084310Y-86297927D01*
X99036610Y-86363579D01*
X98973240Y-86450800D01*
X98887454Y-86619163D01*
X98829059Y-86798881D01*
X98799500Y-86985513D01*
X90000500Y-86985513D01*
X90000500Y-66159999D01*
X92924341Y-66159999D01*
X92924341Y-66160000D01*
X92944936Y-66395403D01*
X92944938Y-66395413D01*
X93006094Y-66623655D01*
X93006096Y-66623659D01*
X93006097Y-66623663D01*
X93084035Y-66790801D01*
X93105965Y-66837830D01*
X93105967Y-66837834D01*
X93241501Y-67031395D01*
X93241506Y-67031402D01*
X93408597Y-67198493D01*
X93408603Y-67198498D01*
X93594158Y-67328425D01*
X93637783Y-67383002D01*
X93644977Y-67452500D01*
X93613454Y-67514855D01*
X93594158Y-67531575D01*
X93408597Y-67661505D01*
X93241505Y-67828597D01*
X93105965Y-68022169D01*
X93105964Y-68022171D01*
X93006098Y-68236335D01*
X93006094Y-68236344D01*
X92944938Y-68464586D01*
X92944936Y-68464596D01*
X92924341Y-68699999D01*
X92924341Y-68700000D01*
X92944936Y-68935403D01*
X92944938Y-68935413D01*
X93006094Y-69163655D01*
X93006096Y-69163659D01*
X93006097Y-69163663D01*
X93060579Y-69280500D01*
X93105965Y-69377830D01*
X93105967Y-69377834D01*
X93241501Y-69571395D01*
X93241506Y-69571402D01*
X93408597Y-69738493D01*
X93408603Y-69738498D01*
X93594158Y-69868425D01*
X93637783Y-69923002D01*
X93644977Y-69992500D01*
X93613454Y-70054855D01*
X93594158Y-70071575D01*
X93408597Y-70201505D01*
X93241505Y-70368597D01*
X93105965Y-70562169D01*
X93105964Y-70562171D01*
X93006098Y-70776335D01*
X93006094Y-70776344D01*
X92944938Y-71004586D01*
X92944936Y-71004596D01*
X92924341Y-71239999D01*
X92924341Y-71240000D01*
X92944936Y-71475403D01*
X92944938Y-71475413D01*
X93006094Y-71703655D01*
X93006096Y-71703659D01*
X93006097Y-71703663D01*
X93031873Y-71758939D01*
X93105965Y-71917830D01*
X93105967Y-71917834D01*
X93241501Y-72111395D01*
X93241506Y-72111402D01*
X93408597Y-72278493D01*
X93408603Y-72278498D01*
X93594158Y-72408425D01*
X93637783Y-72463002D01*
X93644977Y-72532500D01*
X93613454Y-72594855D01*
X93594158Y-72611575D01*
X93408597Y-72741505D01*
X93241505Y-72908597D01*
X93105965Y-73102169D01*
X93105964Y-73102171D01*
X93006098Y-73316335D01*
X93006094Y-73316344D01*
X92944938Y-73544586D01*
X92944936Y-73544596D01*
X92924341Y-73779999D01*
X92924341Y-73780000D01*
X92944936Y-74015403D01*
X92944938Y-74015413D01*
X93006094Y-74243655D01*
X93006096Y-74243659D01*
X93006097Y-74243663D01*
X93015633Y-74264112D01*
X93105965Y-74457830D01*
X93105967Y-74457834D01*
X93241501Y-74651395D01*
X93241506Y-74651402D01*
X93408597Y-74818493D01*
X93408603Y-74818498D01*
X93594158Y-74948425D01*
X93637783Y-75003002D01*
X93644977Y-75072500D01*
X93613454Y-75134855D01*
X93594158Y-75151575D01*
X93408597Y-75281505D01*
X93241505Y-75448597D01*
X93105965Y-75642169D01*
X93105964Y-75642171D01*
X93006098Y-75856335D01*
X93006094Y-75856344D01*
X92944938Y-76084586D01*
X92944936Y-76084596D01*
X92924341Y-76319999D01*
X92924341Y-76320000D01*
X92944936Y-76555403D01*
X92944938Y-76555413D01*
X93006094Y-76783655D01*
X93006096Y-76783659D01*
X93006097Y-76783663D01*
X93084035Y-76950801D01*
X93105965Y-76997830D01*
X93105967Y-76997834D01*
X93241501Y-77191395D01*
X93241506Y-77191402D01*
X93408597Y-77358493D01*
X93408603Y-77358498D01*
X93594158Y-77488425D01*
X93637783Y-77543002D01*
X93644977Y-77612500D01*
X93613454Y-77674855D01*
X93594158Y-77691575D01*
X93408597Y-77821505D01*
X93241505Y-77988597D01*
X93105965Y-78182169D01*
X93105964Y-78182171D01*
X93006098Y-78396335D01*
X93006094Y-78396344D01*
X92944938Y-78624586D01*
X92944936Y-78624596D01*
X92924341Y-78859999D01*
X92924341Y-78860000D01*
X92944936Y-79095403D01*
X92944938Y-79095413D01*
X93006094Y-79323655D01*
X93006096Y-79323659D01*
X93006097Y-79323663D01*
X93092480Y-79508911D01*
X93105965Y-79537830D01*
X93105967Y-79537834D01*
X93241501Y-79731395D01*
X93241506Y-79731402D01*
X93408597Y-79898493D01*
X93408603Y-79898498D01*
X93594158Y-80028425D01*
X93637783Y-80083002D01*
X93644977Y-80152500D01*
X93613454Y-80214855D01*
X93594158Y-80231575D01*
X93408597Y-80361505D01*
X93241505Y-80528597D01*
X93105965Y-80722169D01*
X93105964Y-80722171D01*
X93006098Y-80936335D01*
X93006094Y-80936344D01*
X92944938Y-81164586D01*
X92944936Y-81164596D01*
X92924341Y-81399999D01*
X92924341Y-81400000D01*
X92944936Y-81635403D01*
X92944938Y-81635413D01*
X93006094Y-81863655D01*
X93006096Y-81863659D01*
X93006097Y-81863663D01*
X93105965Y-82077830D01*
X93105967Y-82077834D01*
X93241501Y-82271395D01*
X93241506Y-82271402D01*
X93408597Y-82438493D01*
X93408603Y-82438498D01*
X93594158Y-82568425D01*
X93637783Y-82623002D01*
X93644977Y-82692500D01*
X93613454Y-82754855D01*
X93594158Y-82771575D01*
X93408597Y-82901505D01*
X93241505Y-83068597D01*
X93105965Y-83262169D01*
X93105964Y-83262171D01*
X93006098Y-83476335D01*
X93006094Y-83476344D01*
X92944938Y-83704586D01*
X92944936Y-83704596D01*
X92924341Y-83939999D01*
X92924341Y-83940000D01*
X92944936Y-84175403D01*
X92944938Y-84175413D01*
X93006094Y-84403655D01*
X93006096Y-84403659D01*
X93006097Y-84403663D01*
X93105965Y-84617830D01*
X93105967Y-84617834D01*
X93131805Y-84654734D01*
X93241505Y-84811401D01*
X93408599Y-84978495D01*
X93505384Y-85046265D01*
X93602165Y-85114032D01*
X93602167Y-85114033D01*
X93602170Y-85114035D01*
X93816337Y-85213903D01*
X94044592Y-85275063D01*
X94232918Y-85291539D01*
X94279999Y-85295659D01*
X94280000Y-85295659D01*
X94280001Y-85295659D01*
X94319234Y-85292226D01*
X94515408Y-85275063D01*
X94743663Y-85213903D01*
X94957830Y-85114035D01*
X95151401Y-84978495D01*
X95318495Y-84811401D01*
X95454035Y-84617830D01*
X95543833Y-84425258D01*
X103329500Y-84425258D01*
X103329500Y-84654741D01*
X103350125Y-84811395D01*
X103359452Y-84882238D01*
X103418842Y-85103887D01*
X103506650Y-85315876D01*
X103506657Y-85315890D01*
X103621392Y-85514617D01*
X103761081Y-85696661D01*
X103761089Y-85696670D01*
X103923330Y-85858911D01*
X103923338Y-85858918D01*
X104105382Y-85998607D01*
X104105385Y-85998608D01*
X104105388Y-85998611D01*
X104304112Y-86113344D01*
X104304117Y-86113346D01*
X104304123Y-86113349D01*
X104395480Y-86151190D01*
X104516113Y-86201158D01*
X104737762Y-86260548D01*
X104965266Y-86290500D01*
X104965273Y-86290500D01*
X105194727Y-86290500D01*
X105194734Y-86290500D01*
X105422238Y-86260548D01*
X105643887Y-86201158D01*
X105855888Y-86113344D01*
X106054612Y-85998611D01*
X106236661Y-85858919D01*
X106236665Y-85858914D01*
X106236670Y-85858911D01*
X106398911Y-85696670D01*
X106398914Y-85696665D01*
X106398919Y-85696661D01*
X106538611Y-85514612D01*
X106653344Y-85315888D01*
X106741158Y-85103887D01*
X106800548Y-84882238D01*
X106830500Y-84654734D01*
X106830500Y-84425266D01*
X106800548Y-84197762D01*
X106741158Y-83976113D01*
X106653344Y-83764112D01*
X106538611Y-83565388D01*
X106538608Y-83565385D01*
X106538607Y-83565382D01*
X106398918Y-83383338D01*
X106398911Y-83383330D01*
X106236670Y-83221089D01*
X106236661Y-83221081D01*
X106054617Y-83081392D01*
X106032455Y-83068597D01*
X105855888Y-82966656D01*
X105855876Y-82966650D01*
X105643887Y-82878842D01*
X105422238Y-82819452D01*
X105384215Y-82814446D01*
X105194741Y-82789500D01*
X105194734Y-82789500D01*
X104965266Y-82789500D01*
X104965258Y-82789500D01*
X104748715Y-82818009D01*
X104737762Y-82819452D01*
X104644076Y-82844554D01*
X104516112Y-82878842D01*
X104304123Y-82966650D01*
X104304109Y-82966657D01*
X104105382Y-83081392D01*
X103923338Y-83221081D01*
X103761081Y-83383338D01*
X103621392Y-83565382D01*
X103506657Y-83764109D01*
X103506650Y-83764123D01*
X103418842Y-83976112D01*
X103418842Y-83976113D01*
X103363385Y-84183086D01*
X103359453Y-84197759D01*
X103359451Y-84197770D01*
X103329500Y-84425258D01*
X95543833Y-84425258D01*
X95553903Y-84403663D01*
X95615063Y-84175408D01*
X95635659Y-83940000D01*
X95615063Y-83704592D01*
X95553903Y-83476337D01*
X95454035Y-83262171D01*
X95425270Y-83221089D01*
X95318494Y-83068597D01*
X95151402Y-82901506D01*
X95151396Y-82901501D01*
X94965842Y-82771575D01*
X94922217Y-82716998D01*
X94915023Y-82647500D01*
X94946546Y-82585145D01*
X94965842Y-82568425D01*
X94988026Y-82552891D01*
X95151401Y-82438495D01*
X95318495Y-82271401D01*
X95454035Y-82077830D01*
X95553903Y-81863663D01*
X95557772Y-81849223D01*
X97699500Y-81849223D01*
X97699500Y-82150776D01*
X97699501Y-82150793D01*
X97738861Y-82449766D01*
X97816913Y-82741060D01*
X97932314Y-83019661D01*
X97932318Y-83019671D01*
X98083099Y-83280831D01*
X98266679Y-83520078D01*
X98266685Y-83520085D01*
X98479914Y-83733314D01*
X98479921Y-83733320D01*
X98719168Y-83916900D01*
X98980328Y-84067681D01*
X98980329Y-84067681D01*
X98980332Y-84067683D01*
X99166072Y-84144619D01*
X99258939Y-84183086D01*
X99258940Y-84183086D01*
X99258942Y-84183087D01*
X99550232Y-84261138D01*
X99849217Y-84300500D01*
X99849224Y-84300500D01*
X100150776Y-84300500D01*
X100150783Y-84300500D01*
X100449768Y-84261138D01*
X100741058Y-84183087D01*
X101019668Y-84067683D01*
X101280832Y-83916900D01*
X101520080Y-83733319D01*
X101733319Y-83520080D01*
X101916900Y-83280832D01*
X102067683Y-83019668D01*
X102183087Y-82741058D01*
X102261138Y-82449768D01*
X102300500Y-82150783D01*
X102300500Y-81849217D01*
X102261138Y-81550232D01*
X102183087Y-81258942D01*
X102067683Y-80980332D01*
X102042282Y-80936337D01*
X101916900Y-80719168D01*
X101733320Y-80479921D01*
X101733314Y-80479914D01*
X101520085Y-80266685D01*
X101520078Y-80266679D01*
X101280831Y-80083099D01*
X101019671Y-79932318D01*
X101019661Y-79932314D01*
X100741060Y-79816913D01*
X100449766Y-79738861D01*
X100150793Y-79699501D01*
X100150788Y-79699500D01*
X100150783Y-79699500D01*
X99849217Y-79699500D01*
X99849211Y-79699500D01*
X99849206Y-79699501D01*
X99550233Y-79738861D01*
X99258939Y-79816913D01*
X98980338Y-79932314D01*
X98980328Y-79932318D01*
X98719168Y-80083099D01*
X98479921Y-80266679D01*
X98479914Y-80266685D01*
X98266685Y-80479914D01*
X98266679Y-80479921D01*
X98083099Y-80719168D01*
X97932318Y-80980328D01*
X97932314Y-80980338D01*
X97816913Y-81258939D01*
X97738861Y-81550233D01*
X97699501Y-81849206D01*
X97699500Y-81849223D01*
X95557772Y-81849223D01*
X95615063Y-81635408D01*
X95635659Y-81400000D01*
X95615063Y-81164592D01*
X95553903Y-80936337D01*
X95454035Y-80722171D01*
X95451933Y-80719168D01*
X95318494Y-80528597D01*
X95151402Y-80361506D01*
X95151396Y-80361501D01*
X94965842Y-80231575D01*
X94922217Y-80176998D01*
X94915023Y-80107500D01*
X94946546Y-80045145D01*
X94965842Y-80028425D01*
X94988026Y-80012891D01*
X95151401Y-79898495D01*
X95318495Y-79731401D01*
X95454035Y-79537830D01*
X95553903Y-79323663D01*
X95615063Y-79095408D01*
X95635659Y-78860000D01*
X95615063Y-78624592D01*
X95553903Y-78396337D01*
X95454035Y-78182171D01*
X95376338Y-78071207D01*
X95318494Y-77988597D01*
X95151402Y-77821506D01*
X95151396Y-77821501D01*
X94965842Y-77691575D01*
X94922217Y-77636998D01*
X94915023Y-77567500D01*
X94946546Y-77505145D01*
X94965842Y-77488425D01*
X95071956Y-77414123D01*
X95151401Y-77358495D01*
X95318495Y-77191401D01*
X95454035Y-76997830D01*
X95534388Y-76825513D01*
X98799500Y-76825513D01*
X98799500Y-77014486D01*
X98829059Y-77201118D01*
X98887454Y-77380836D01*
X98950793Y-77505145D01*
X98973240Y-77549199D01*
X99084310Y-77702073D01*
X99217927Y-77835690D01*
X99370801Y-77946760D01*
X99416797Y-77970196D01*
X99539163Y-78032545D01*
X99539165Y-78032545D01*
X99539168Y-78032547D01*
X99635497Y-78063846D01*
X99718881Y-78090940D01*
X99905514Y-78120500D01*
X99905519Y-78120500D01*
X100094486Y-78120500D01*
X100281118Y-78090940D01*
X100460832Y-78032547D01*
X100609462Y-77956816D01*
X100678128Y-77943920D01*
X100742869Y-77970196D01*
X100783127Y-78027302D01*
X100788940Y-78071207D01*
X100789500Y-78071207D01*
X100789500Y-78304741D01*
X100814446Y-78494215D01*
X100819452Y-78532238D01*
X100844198Y-78624592D01*
X100878842Y-78753887D01*
X100966650Y-78965876D01*
X100966657Y-78965890D01*
X101081392Y-79164617D01*
X101221081Y-79346661D01*
X101221089Y-79346670D01*
X101383330Y-79508911D01*
X101383338Y-79508918D01*
X101565382Y-79648607D01*
X101565385Y-79648608D01*
X101565388Y-79648611D01*
X101764112Y-79763344D01*
X101764117Y-79763346D01*
X101764123Y-79763349D01*
X101855480Y-79801190D01*
X101976113Y-79851158D01*
X102197762Y-79910548D01*
X102425266Y-79940500D01*
X102425273Y-79940500D01*
X102654727Y-79940500D01*
X102654734Y-79940500D01*
X102882238Y-79910548D01*
X103103887Y-79851158D01*
X103315888Y-79763344D01*
X103514612Y-79648611D01*
X103696661Y-79508919D01*
X103696665Y-79508914D01*
X103696670Y-79508911D01*
X103858911Y-79346670D01*
X103858914Y-79346665D01*
X103858919Y-79346661D01*
X103998611Y-79164612D01*
X104113344Y-78965888D01*
X104201158Y-78753887D01*
X104260548Y-78532238D01*
X104290500Y-78304734D01*
X104290500Y-78075266D01*
X104260548Y-77847762D01*
X104201158Y-77626113D01*
X104113344Y-77414112D01*
X103998611Y-77215388D01*
X103998608Y-77215385D01*
X103998607Y-77215382D01*
X103858918Y-77033338D01*
X103858911Y-77033330D01*
X103696670Y-76871089D01*
X103696661Y-76871081D01*
X103514617Y-76731392D01*
X103315890Y-76616657D01*
X103315876Y-76616650D01*
X103103887Y-76528842D01*
X102882238Y-76469452D01*
X102844215Y-76464446D01*
X102654741Y-76439500D01*
X102654734Y-76439500D01*
X102425266Y-76439500D01*
X102425258Y-76439500D01*
X102212938Y-76467454D01*
X102197762Y-76469452D01*
X102104076Y-76494554D01*
X101976112Y-76528842D01*
X101764123Y-76616650D01*
X101764109Y-76616657D01*
X101565382Y-76731392D01*
X101392103Y-76864356D01*
X101326934Y-76889551D01*
X101258489Y-76875513D01*
X101208499Y-76826699D01*
X101194143Y-76785379D01*
X101170940Y-76638881D01*
X101143113Y-76553240D01*
X101112547Y-76459168D01*
X101112545Y-76459165D01*
X101112545Y-76459163D01*
X101061464Y-76358911D01*
X101026760Y-76290801D01*
X100915690Y-76137927D01*
X100782073Y-76004310D01*
X100629199Y-75893240D01*
X100460836Y-75807454D01*
X100281118Y-75749059D01*
X100094486Y-75719500D01*
X100094481Y-75719500D01*
X99905519Y-75719500D01*
X99905514Y-75719500D01*
X99718881Y-75749059D01*
X99539163Y-75807454D01*
X99370800Y-75893240D01*
X99283579Y-75956610D01*
X99217927Y-76004310D01*
X99217925Y-76004312D01*
X99217924Y-76004312D01*
X99084312Y-76137924D01*
X99084312Y-76137925D01*
X99084310Y-76137927D01*
X99041637Y-76196661D01*
X98973240Y-76290800D01*
X98887454Y-76459163D01*
X98829059Y-76638881D01*
X98799500Y-76825513D01*
X95534388Y-76825513D01*
X95553903Y-76783663D01*
X95615063Y-76555408D01*
X95635659Y-76320000D01*
X95615063Y-76084592D01*
X95553903Y-75856337D01*
X95454035Y-75642171D01*
X95427229Y-75603887D01*
X95318494Y-75448597D01*
X95151402Y-75281506D01*
X95151396Y-75281501D01*
X94965842Y-75151575D01*
X94922217Y-75096998D01*
X94915023Y-75027500D01*
X94946546Y-74965145D01*
X94965842Y-74948425D01*
X94998928Y-74925258D01*
X95151401Y-74818495D01*
X95318495Y-74651401D01*
X95454035Y-74457830D01*
X95553903Y-74243663D01*
X95615063Y-74015408D01*
X95635659Y-73780000D01*
X95615063Y-73544592D01*
X95554738Y-73319452D01*
X95553905Y-73316344D01*
X95553904Y-73316343D01*
X95553903Y-73316337D01*
X95454035Y-73102171D01*
X95347321Y-72949766D01*
X95318494Y-72908597D01*
X95151402Y-72741506D01*
X95151396Y-72741501D01*
X94965842Y-72611575D01*
X94922217Y-72556998D01*
X94915023Y-72487500D01*
X94946546Y-72425145D01*
X94965842Y-72408425D01*
X95050391Y-72349223D01*
X95151401Y-72278495D01*
X95318495Y-72111401D01*
X95454035Y-71917830D01*
X95553903Y-71703663D01*
X95615063Y-71475408D01*
X95635659Y-71240000D01*
X95615063Y-71004592D01*
X95553903Y-70776337D01*
X95454035Y-70562171D01*
X95368841Y-70440500D01*
X95318494Y-70368597D01*
X95151402Y-70201506D01*
X95151396Y-70201501D01*
X94965842Y-70071575D01*
X94922217Y-70016998D01*
X94915023Y-69947500D01*
X94946546Y-69885145D01*
X94965842Y-69868425D01*
X94996924Y-69846661D01*
X95151401Y-69738495D01*
X95318495Y-69571401D01*
X95454035Y-69377830D01*
X95553903Y-69163663D01*
X95615063Y-68935408D01*
X95635659Y-68700000D01*
X95615063Y-68464592D01*
X95553903Y-68236337D01*
X95454035Y-68022171D01*
X95428372Y-67985519D01*
X95428368Y-67985513D01*
X98799500Y-67985513D01*
X98799500Y-68174486D01*
X98829059Y-68361118D01*
X98887454Y-68540836D01*
X98968552Y-68699999D01*
X98973240Y-68709199D01*
X99084310Y-68862073D01*
X99217927Y-68995690D01*
X99370801Y-69106760D01*
X99450347Y-69147290D01*
X99539163Y-69192545D01*
X99539165Y-69192545D01*
X99539168Y-69192547D01*
X99635497Y-69223846D01*
X99718881Y-69250940D01*
X99905514Y-69280500D01*
X99905519Y-69280500D01*
X100094486Y-69280500D01*
X100281118Y-69250940D01*
X100460832Y-69192547D01*
X100629199Y-69106760D01*
X100782073Y-68995690D01*
X100915690Y-68862073D01*
X101026760Y-68709199D01*
X101112547Y-68540832D01*
X101170940Y-68361118D01*
X101174968Y-68335687D01*
X101200500Y-68174486D01*
X101200500Y-67985513D01*
X101170940Y-67798881D01*
X101139174Y-67701118D01*
X101112547Y-67619168D01*
X101112545Y-67619165D01*
X101112545Y-67619163D01*
X101040108Y-67476998D01*
X101026760Y-67450801D01*
X100915690Y-67297927D01*
X100782073Y-67164310D01*
X100629199Y-67053240D01*
X100460836Y-66967454D01*
X100281118Y-66909059D01*
X100094486Y-66879500D01*
X100094481Y-66879500D01*
X99905519Y-66879500D01*
X99905514Y-66879500D01*
X99718881Y-66909059D01*
X99539163Y-66967454D01*
X99370800Y-67053240D01*
X99288078Y-67113342D01*
X99217927Y-67164310D01*
X99217925Y-67164312D01*
X99217924Y-67164312D01*
X99084312Y-67297924D01*
X99084312Y-67297925D01*
X99084310Y-67297927D01*
X99064268Y-67325513D01*
X98973240Y-67450800D01*
X98887454Y-67619163D01*
X98829059Y-67798881D01*
X98799500Y-67985513D01*
X95428368Y-67985513D01*
X95318494Y-67828597D01*
X95151402Y-67661506D01*
X95151396Y-67661501D01*
X94965842Y-67531575D01*
X94922217Y-67476998D01*
X94915023Y-67407500D01*
X94946546Y-67345145D01*
X94965842Y-67328425D01*
X94988026Y-67312891D01*
X95151401Y-67198495D01*
X95318495Y-67031401D01*
X95454035Y-66837830D01*
X95553903Y-66623663D01*
X95615063Y-66395408D01*
X95635659Y-66160000D01*
X95615063Y-65924592D01*
X95553903Y-65696337D01*
X95454035Y-65482171D01*
X95414185Y-65425258D01*
X103329500Y-65425258D01*
X103329500Y-65654741D01*
X103354446Y-65844215D01*
X103359452Y-65882238D01*
X103359453Y-65882240D01*
X103418842Y-66103887D01*
X103506650Y-66315876D01*
X103506657Y-66315890D01*
X103621392Y-66514617D01*
X103761081Y-66696661D01*
X103761089Y-66696670D01*
X103923330Y-66858911D01*
X103923338Y-66858918D01*
X104105382Y-66998607D01*
X104105385Y-66998608D01*
X104105388Y-66998611D01*
X104304112Y-67113344D01*
X104304117Y-67113346D01*
X104304123Y-67113349D01*
X104365766Y-67138882D01*
X104516113Y-67201158D01*
X104737762Y-67260548D01*
X104965266Y-67290500D01*
X104965273Y-67290500D01*
X105194727Y-67290500D01*
X105194734Y-67290500D01*
X105422238Y-67260548D01*
X105643887Y-67201158D01*
X105855888Y-67113344D01*
X106054612Y-66998611D01*
X106236661Y-66858919D01*
X106236665Y-66858914D01*
X106236670Y-66858911D01*
X106398911Y-66696670D01*
X106398914Y-66696665D01*
X106398919Y-66696661D01*
X106538611Y-66514612D01*
X106653344Y-66315888D01*
X106741158Y-66103887D01*
X106800548Y-65882238D01*
X106830500Y-65654734D01*
X106830500Y-65425266D01*
X106800548Y-65197762D01*
X106741158Y-64976113D01*
X106678538Y-64824936D01*
X106653349Y-64764123D01*
X106653346Y-64764117D01*
X106653344Y-64764112D01*
X106538611Y-64565388D01*
X106538608Y-64565385D01*
X106538607Y-64565382D01*
X106398918Y-64383338D01*
X106398911Y-64383330D01*
X106236670Y-64221089D01*
X106236661Y-64221081D01*
X106054617Y-64081392D01*
X105855890Y-63966657D01*
X105855876Y-63966650D01*
X105643887Y-63878842D01*
X105422238Y-63819452D01*
X105384215Y-63814446D01*
X105194741Y-63789500D01*
X105194734Y-63789500D01*
X104965266Y-63789500D01*
X104965258Y-63789500D01*
X104748715Y-63818009D01*
X104737762Y-63819452D01*
X104644076Y-63844554D01*
X104516112Y-63878842D01*
X104304123Y-63966650D01*
X104304109Y-63966657D01*
X104105382Y-64081392D01*
X103923338Y-64221081D01*
X103761081Y-64383338D01*
X103621392Y-64565382D01*
X103506657Y-64764109D01*
X103506650Y-64764123D01*
X103418842Y-64976112D01*
X103414699Y-64991575D01*
X103363385Y-65183086D01*
X103359453Y-65197759D01*
X103359451Y-65197770D01*
X103329500Y-65425258D01*
X95414185Y-65425258D01*
X95318494Y-65288597D01*
X95151402Y-65121506D01*
X95151395Y-65121501D01*
X94957834Y-64985967D01*
X94957830Y-64985965D01*
X94936700Y-64976112D01*
X94743663Y-64886097D01*
X94743659Y-64886096D01*
X94743655Y-64886094D01*
X94515413Y-64824938D01*
X94515403Y-64824936D01*
X94280001Y-64804341D01*
X94279999Y-64804341D01*
X94044596Y-64824936D01*
X94044586Y-64824938D01*
X93816344Y-64886094D01*
X93816335Y-64886098D01*
X93602171Y-64985964D01*
X93602169Y-64985965D01*
X93408597Y-65121505D01*
X93241505Y-65288597D01*
X93105965Y-65482169D01*
X93105964Y-65482171D01*
X93006098Y-65696335D01*
X93006094Y-65696344D01*
X92944938Y-65924586D01*
X92944936Y-65924596D01*
X92924341Y-66159999D01*
X90000500Y-66159999D01*
X90000500Y-62849223D01*
X97699500Y-62849223D01*
X97699500Y-63150776D01*
X97699501Y-63150793D01*
X97738861Y-63449766D01*
X97816913Y-63741060D01*
X97932314Y-64019661D01*
X97932318Y-64019671D01*
X98083099Y-64280831D01*
X98266679Y-64520078D01*
X98266685Y-64520085D01*
X98479914Y-64733314D01*
X98479921Y-64733320D01*
X98719168Y-64916900D01*
X98980328Y-65067681D01*
X98980329Y-65067681D01*
X98980332Y-65067683D01*
X99166072Y-65144619D01*
X99258939Y-65183086D01*
X99258940Y-65183086D01*
X99258942Y-65183087D01*
X99550232Y-65261138D01*
X99849217Y-65300500D01*
X99849224Y-65300500D01*
X100150776Y-65300500D01*
X100150783Y-65300500D01*
X100449768Y-65261138D01*
X100741058Y-65183087D01*
X101019668Y-65067683D01*
X101280832Y-64916900D01*
X101520080Y-64733319D01*
X101733319Y-64520080D01*
X101916900Y-64280832D01*
X102067683Y-64019668D01*
X102183087Y-63741058D01*
X102261138Y-63449768D01*
X102300500Y-63150783D01*
X102300500Y-62849217D01*
X102261138Y-62550232D01*
X102183087Y-62258942D01*
X102181054Y-62254035D01*
X102067685Y-61980338D01*
X102067681Y-61980328D01*
X101916900Y-61719168D01*
X101733320Y-61479921D01*
X101733314Y-61479914D01*
X101520085Y-61266685D01*
X101520078Y-61266679D01*
X101280831Y-61083099D01*
X101275462Y-61079999D01*
X108164341Y-61079999D01*
X108164341Y-61080000D01*
X108184936Y-61315403D01*
X108184938Y-61315413D01*
X108246094Y-61543655D01*
X108246096Y-61543659D01*
X108246097Y-61543663D01*
X108327937Y-61719168D01*
X108345965Y-61757830D01*
X108345967Y-61757834D01*
X108481501Y-61951395D01*
X108481506Y-61951402D01*
X108648597Y-62118493D01*
X108648603Y-62118498D01*
X108834158Y-62248425D01*
X108877783Y-62303002D01*
X108884977Y-62372500D01*
X108853454Y-62434855D01*
X108834158Y-62451575D01*
X108648597Y-62581505D01*
X108481505Y-62748597D01*
X108345965Y-62942169D01*
X108345964Y-62942171D01*
X108246098Y-63156335D01*
X108246094Y-63156344D01*
X108184938Y-63384586D01*
X108184936Y-63384596D01*
X108164341Y-63619999D01*
X108164341Y-63620000D01*
X108184936Y-63855403D01*
X108184938Y-63855413D01*
X108246093Y-64083650D01*
X108246095Y-64083655D01*
X108246097Y-64083663D01*
X108310176Y-64221081D01*
X108345965Y-64297830D01*
X108345967Y-64297834D01*
X108481501Y-64491395D01*
X108481506Y-64491402D01*
X108648597Y-64658493D01*
X108648603Y-64658498D01*
X108834158Y-64788425D01*
X108877783Y-64843002D01*
X108884977Y-64912500D01*
X108853454Y-64974855D01*
X108834158Y-64991575D01*
X108648597Y-65121505D01*
X108481505Y-65288597D01*
X108345965Y-65482169D01*
X108345964Y-65482171D01*
X108246098Y-65696335D01*
X108246094Y-65696344D01*
X108184938Y-65924586D01*
X108184936Y-65924596D01*
X108164341Y-66159999D01*
X108164341Y-66160000D01*
X108184936Y-66395403D01*
X108184938Y-66395413D01*
X108246094Y-66623655D01*
X108246096Y-66623659D01*
X108246097Y-66623663D01*
X108324035Y-66790801D01*
X108345965Y-66837830D01*
X108345967Y-66837834D01*
X108481501Y-67031395D01*
X108481506Y-67031402D01*
X108648597Y-67198493D01*
X108648603Y-67198498D01*
X108834158Y-67328425D01*
X108877783Y-67383002D01*
X108884977Y-67452500D01*
X108853454Y-67514855D01*
X108834158Y-67531575D01*
X108648597Y-67661505D01*
X108481505Y-67828597D01*
X108345965Y-68022169D01*
X108345964Y-68022171D01*
X108246098Y-68236335D01*
X108246094Y-68236344D01*
X108184938Y-68464586D01*
X108184936Y-68464596D01*
X108164341Y-68699999D01*
X108164341Y-68700000D01*
X108184936Y-68935403D01*
X108184938Y-68935413D01*
X108246094Y-69163655D01*
X108246096Y-69163659D01*
X108246097Y-69163663D01*
X108300579Y-69280500D01*
X108345965Y-69377830D01*
X108345967Y-69377834D01*
X108481501Y-69571395D01*
X108481506Y-69571402D01*
X108648597Y-69738493D01*
X108648603Y-69738498D01*
X108834158Y-69868425D01*
X108877783Y-69923002D01*
X108884977Y-69992500D01*
X108853454Y-70054855D01*
X108834158Y-70071575D01*
X108648597Y-70201505D01*
X108481505Y-70368597D01*
X108345965Y-70562169D01*
X108345964Y-70562171D01*
X108246098Y-70776335D01*
X108246094Y-70776344D01*
X108184938Y-71004586D01*
X108184936Y-71004596D01*
X108164341Y-71239999D01*
X108164341Y-71240000D01*
X108184936Y-71475403D01*
X108184938Y-71475413D01*
X108246094Y-71703655D01*
X108246096Y-71703659D01*
X108246097Y-71703663D01*
X108271873Y-71758939D01*
X108345965Y-71917830D01*
X108345967Y-71917834D01*
X108481501Y-72111395D01*
X108481506Y-72111402D01*
X108648597Y-72278493D01*
X108648603Y-72278498D01*
X108834158Y-72408425D01*
X108877783Y-72463002D01*
X108884977Y-72532500D01*
X108853454Y-72594855D01*
X108834158Y-72611575D01*
X108648597Y-72741505D01*
X108481505Y-72908597D01*
X108345965Y-73102169D01*
X108345964Y-73102171D01*
X108246098Y-73316335D01*
X108246094Y-73316344D01*
X108184938Y-73544586D01*
X108184936Y-73544596D01*
X108164341Y-73779999D01*
X108164341Y-73780000D01*
X108184936Y-74015403D01*
X108184938Y-74015413D01*
X108246094Y-74243655D01*
X108246096Y-74243659D01*
X108246097Y-74243663D01*
X108255633Y-74264112D01*
X108345965Y-74457830D01*
X108345967Y-74457834D01*
X108481501Y-74651395D01*
X108481506Y-74651402D01*
X108648597Y-74818493D01*
X108648603Y-74818498D01*
X108834158Y-74948425D01*
X108877783Y-75003002D01*
X108884977Y-75072500D01*
X108853454Y-75134855D01*
X108834158Y-75151575D01*
X108648597Y-75281505D01*
X108481505Y-75448597D01*
X108345965Y-75642169D01*
X108345964Y-75642171D01*
X108246098Y-75856335D01*
X108246094Y-75856344D01*
X108184938Y-76084586D01*
X108184936Y-76084596D01*
X108164341Y-76319999D01*
X108164341Y-76320000D01*
X108184936Y-76555403D01*
X108184938Y-76555413D01*
X108246094Y-76783655D01*
X108246096Y-76783659D01*
X108246097Y-76783663D01*
X108324035Y-76950801D01*
X108345965Y-76997830D01*
X108345967Y-76997834D01*
X108481501Y-77191395D01*
X108481506Y-77191402D01*
X108648597Y-77358493D01*
X108648603Y-77358498D01*
X108834158Y-77488425D01*
X108877783Y-77543002D01*
X108884977Y-77612500D01*
X108853454Y-77674855D01*
X108834158Y-77691575D01*
X108648597Y-77821505D01*
X108481505Y-77988597D01*
X108345965Y-78182169D01*
X108345964Y-78182171D01*
X108246098Y-78396335D01*
X108246094Y-78396344D01*
X108184938Y-78624586D01*
X108184936Y-78624596D01*
X108164341Y-78859999D01*
X108164341Y-78860000D01*
X108184936Y-79095403D01*
X108184938Y-79095413D01*
X108246094Y-79323655D01*
X108246096Y-79323659D01*
X108246097Y-79323663D01*
X108332480Y-79508911D01*
X108345965Y-79537830D01*
X108345967Y-79537834D01*
X108481501Y-79731395D01*
X108481506Y-79731402D01*
X108648597Y-79898493D01*
X108648603Y-79898498D01*
X108834158Y-80028425D01*
X108877783Y-80083002D01*
X108884977Y-80152500D01*
X108853454Y-80214855D01*
X108834158Y-80231575D01*
X108648597Y-80361505D01*
X108481505Y-80528597D01*
X108345965Y-80722169D01*
X108345964Y-80722171D01*
X108246098Y-80936335D01*
X108246094Y-80936344D01*
X108184938Y-81164586D01*
X108184936Y-81164596D01*
X108164341Y-81399999D01*
X108164341Y-81400000D01*
X108184936Y-81635403D01*
X108184938Y-81635413D01*
X108246094Y-81863655D01*
X108246096Y-81863659D01*
X108246097Y-81863663D01*
X108345965Y-82077830D01*
X108345967Y-82077834D01*
X108481501Y-82271395D01*
X108481506Y-82271402D01*
X108648597Y-82438493D01*
X108648603Y-82438498D01*
X108834158Y-82568425D01*
X108877783Y-82623002D01*
X108884977Y-82692500D01*
X108853454Y-82754855D01*
X108834158Y-82771575D01*
X108648597Y-82901505D01*
X108481505Y-83068597D01*
X108345965Y-83262169D01*
X108345964Y-83262171D01*
X108246098Y-83476335D01*
X108246094Y-83476344D01*
X108184938Y-83704586D01*
X108184936Y-83704596D01*
X108164341Y-83939999D01*
X108164341Y-83940000D01*
X108184936Y-84175403D01*
X108184938Y-84175413D01*
X108246094Y-84403655D01*
X108246096Y-84403659D01*
X108246097Y-84403663D01*
X108345965Y-84617830D01*
X108345967Y-84617834D01*
X108371805Y-84654734D01*
X108481505Y-84811401D01*
X108648599Y-84978495D01*
X108745384Y-85046265D01*
X108842165Y-85114032D01*
X108842167Y-85114033D01*
X108842170Y-85114035D01*
X109056337Y-85213903D01*
X109284592Y-85275063D01*
X109472918Y-85291539D01*
X109519999Y-85295659D01*
X109520000Y-85295659D01*
X109520001Y-85295659D01*
X109559234Y-85292226D01*
X109755408Y-85275063D01*
X109983663Y-85213903D01*
X110197830Y-85114035D01*
X110391401Y-84978495D01*
X110558495Y-84811401D01*
X110694035Y-84617830D01*
X110783833Y-84425258D01*
X122329500Y-84425258D01*
X122329500Y-84654741D01*
X122350125Y-84811395D01*
X122359452Y-84882238D01*
X122418842Y-85103887D01*
X122506650Y-85315876D01*
X122506657Y-85315890D01*
X122621392Y-85514617D01*
X122761081Y-85696661D01*
X122761089Y-85696670D01*
X122923330Y-85858911D01*
X122923338Y-85858918D01*
X123105382Y-85998607D01*
X123105385Y-85998608D01*
X123105388Y-85998611D01*
X123304112Y-86113344D01*
X123304117Y-86113346D01*
X123304123Y-86113349D01*
X123395480Y-86151190D01*
X123516113Y-86201158D01*
X123737762Y-86260548D01*
X123965266Y-86290500D01*
X123965273Y-86290500D01*
X124194727Y-86290500D01*
X124194734Y-86290500D01*
X124422238Y-86260548D01*
X124643887Y-86201158D01*
X124855888Y-86113344D01*
X125054612Y-85998611D01*
X125236661Y-85858919D01*
X125236665Y-85858914D01*
X125236670Y-85858911D01*
X125398911Y-85696670D01*
X125398914Y-85696665D01*
X125398919Y-85696661D01*
X125538611Y-85514612D01*
X125653344Y-85315888D01*
X125741158Y-85103887D01*
X125800548Y-84882238D01*
X125830500Y-84654734D01*
X125830500Y-84425266D01*
X125830499Y-84425258D01*
X141329500Y-84425258D01*
X141329500Y-84654741D01*
X141350125Y-84811395D01*
X141359452Y-84882238D01*
X141418842Y-85103887D01*
X141506650Y-85315876D01*
X141506657Y-85315890D01*
X141621392Y-85514617D01*
X141761081Y-85696661D01*
X141761089Y-85696670D01*
X141923330Y-85858911D01*
X141923338Y-85858918D01*
X142105382Y-85998607D01*
X142105385Y-85998608D01*
X142105388Y-85998611D01*
X142304112Y-86113344D01*
X142304117Y-86113346D01*
X142304123Y-86113349D01*
X142395480Y-86151190D01*
X142516113Y-86201158D01*
X142737762Y-86260548D01*
X142965266Y-86290500D01*
X142965273Y-86290500D01*
X143194727Y-86290500D01*
X143194734Y-86290500D01*
X143422238Y-86260548D01*
X143643887Y-86201158D01*
X143855888Y-86113344D01*
X144054612Y-85998611D01*
X144236661Y-85858919D01*
X144236665Y-85858914D01*
X144236670Y-85858911D01*
X144398911Y-85696670D01*
X144398914Y-85696665D01*
X144398919Y-85696661D01*
X144538611Y-85514612D01*
X144653344Y-85315888D01*
X144741158Y-85103887D01*
X144800548Y-84882238D01*
X144830500Y-84654734D01*
X144830500Y-84425266D01*
X144800548Y-84197762D01*
X144741158Y-83976113D01*
X144653344Y-83764112D01*
X144538611Y-83565388D01*
X144538608Y-83565385D01*
X144538607Y-83565382D01*
X144398918Y-83383338D01*
X144398911Y-83383330D01*
X144236670Y-83221089D01*
X144236661Y-83221081D01*
X144054617Y-83081392D01*
X144032455Y-83068597D01*
X143855888Y-82966656D01*
X143855876Y-82966650D01*
X143643887Y-82878842D01*
X143422238Y-82819452D01*
X143384215Y-82814446D01*
X143194741Y-82789500D01*
X143194734Y-82789500D01*
X142965266Y-82789500D01*
X142965258Y-82789500D01*
X142748715Y-82818009D01*
X142737762Y-82819452D01*
X142644076Y-82844554D01*
X142516112Y-82878842D01*
X142304123Y-82966650D01*
X142304109Y-82966657D01*
X142105382Y-83081392D01*
X141923338Y-83221081D01*
X141761081Y-83383338D01*
X141621392Y-83565382D01*
X141506657Y-83764109D01*
X141506650Y-83764123D01*
X141418842Y-83976112D01*
X141418842Y-83976113D01*
X141363385Y-84183086D01*
X141359453Y-84197759D01*
X141359451Y-84197770D01*
X141329500Y-84425258D01*
X125830499Y-84425258D01*
X125800548Y-84197762D01*
X125741158Y-83976113D01*
X125653344Y-83764112D01*
X125538611Y-83565388D01*
X125538608Y-83565385D01*
X125538607Y-83565382D01*
X125398918Y-83383338D01*
X125398911Y-83383330D01*
X125236670Y-83221089D01*
X125236661Y-83221081D01*
X125054617Y-83081392D01*
X125032455Y-83068597D01*
X124855888Y-82966656D01*
X124855876Y-82966650D01*
X124643887Y-82878842D01*
X124422238Y-82819452D01*
X124384215Y-82814446D01*
X124194741Y-82789500D01*
X124194734Y-82789500D01*
X123965266Y-82789500D01*
X123965258Y-82789500D01*
X123748715Y-82818009D01*
X123737762Y-82819452D01*
X123644076Y-82844554D01*
X123516112Y-82878842D01*
X123304123Y-82966650D01*
X123304109Y-82966657D01*
X123105382Y-83081392D01*
X122923338Y-83221081D01*
X122761081Y-83383338D01*
X122621392Y-83565382D01*
X122506657Y-83764109D01*
X122506650Y-83764123D01*
X122418842Y-83976112D01*
X122418842Y-83976113D01*
X122363385Y-84183086D01*
X122359453Y-84197759D01*
X122359451Y-84197770D01*
X122329500Y-84425258D01*
X110783833Y-84425258D01*
X110793903Y-84403663D01*
X110855063Y-84175408D01*
X110875659Y-83940000D01*
X110855063Y-83704592D01*
X110793903Y-83476337D01*
X110694035Y-83262171D01*
X110665270Y-83221089D01*
X110558494Y-83068597D01*
X110391402Y-82901506D01*
X110391396Y-82901501D01*
X110205842Y-82771575D01*
X110162217Y-82716998D01*
X110155023Y-82647500D01*
X110186546Y-82585145D01*
X110205842Y-82568425D01*
X110228026Y-82552891D01*
X110391401Y-82438495D01*
X110558495Y-82271401D01*
X110694035Y-82077830D01*
X110793903Y-81863663D01*
X110797772Y-81849223D01*
X116699500Y-81849223D01*
X116699500Y-82150776D01*
X116699501Y-82150793D01*
X116738861Y-82449766D01*
X116816913Y-82741060D01*
X116932314Y-83019661D01*
X116932318Y-83019671D01*
X117083099Y-83280831D01*
X117266679Y-83520078D01*
X117266685Y-83520085D01*
X117479914Y-83733314D01*
X117479921Y-83733320D01*
X117719168Y-83916900D01*
X117980328Y-84067681D01*
X117980329Y-84067681D01*
X117980332Y-84067683D01*
X118166072Y-84144619D01*
X118258939Y-84183086D01*
X118258940Y-84183086D01*
X118258942Y-84183087D01*
X118550232Y-84261138D01*
X118849217Y-84300500D01*
X118849224Y-84300500D01*
X119150776Y-84300500D01*
X119150783Y-84300500D01*
X119449768Y-84261138D01*
X119741058Y-84183087D01*
X120019668Y-84067683D01*
X120280832Y-83916900D01*
X120520080Y-83733319D01*
X120733319Y-83520080D01*
X120916900Y-83280832D01*
X121067683Y-83019668D01*
X121183087Y-82741058D01*
X121261138Y-82449768D01*
X121300500Y-82150783D01*
X121300500Y-81849223D01*
X135699500Y-81849223D01*
X135699500Y-82150776D01*
X135699501Y-82150793D01*
X135738861Y-82449766D01*
X135816913Y-82741060D01*
X135932314Y-83019661D01*
X135932318Y-83019671D01*
X136083099Y-83280831D01*
X136266679Y-83520078D01*
X136266685Y-83520085D01*
X136479914Y-83733314D01*
X136479921Y-83733320D01*
X136719168Y-83916900D01*
X136980328Y-84067681D01*
X136980329Y-84067681D01*
X136980332Y-84067683D01*
X137166072Y-84144619D01*
X137258939Y-84183086D01*
X137258940Y-84183086D01*
X137258942Y-84183087D01*
X137550232Y-84261138D01*
X137849217Y-84300500D01*
X137849224Y-84300500D01*
X138150776Y-84300500D01*
X138150783Y-84300500D01*
X138449768Y-84261138D01*
X138741058Y-84183087D01*
X139019668Y-84067683D01*
X139280832Y-83916900D01*
X139520080Y-83733319D01*
X139733319Y-83520080D01*
X139916900Y-83280832D01*
X140067683Y-83019668D01*
X140183087Y-82741058D01*
X140261138Y-82449768D01*
X140300500Y-82150783D01*
X140300500Y-81849217D01*
X140261138Y-81550232D01*
X140183087Y-81258942D01*
X140067683Y-80980332D01*
X140042282Y-80936337D01*
X139916900Y-80719168D01*
X139733320Y-80479921D01*
X139733314Y-80479914D01*
X139520085Y-80266685D01*
X139520078Y-80266679D01*
X139280831Y-80083099D01*
X139019671Y-79932318D01*
X139019661Y-79932314D01*
X138741060Y-79816913D01*
X138449766Y-79738861D01*
X138150793Y-79699501D01*
X138150788Y-79699500D01*
X138150783Y-79699500D01*
X137849217Y-79699500D01*
X137849211Y-79699500D01*
X137849206Y-79699501D01*
X137550233Y-79738861D01*
X137258939Y-79816913D01*
X136980338Y-79932314D01*
X136980328Y-79932318D01*
X136719168Y-80083099D01*
X136479921Y-80266679D01*
X136479914Y-80266685D01*
X136266685Y-80479914D01*
X136266679Y-80479921D01*
X136083099Y-80719168D01*
X135932318Y-80980328D01*
X135932314Y-80980338D01*
X135816913Y-81258939D01*
X135738861Y-81550233D01*
X135699501Y-81849206D01*
X135699500Y-81849223D01*
X121300500Y-81849223D01*
X121300500Y-81849217D01*
X121261138Y-81550232D01*
X121183087Y-81258942D01*
X121067683Y-80980332D01*
X121042282Y-80936337D01*
X120916900Y-80719168D01*
X120733320Y-80479921D01*
X120733314Y-80479914D01*
X120520085Y-80266685D01*
X120520078Y-80266679D01*
X120280831Y-80083099D01*
X120019671Y-79932318D01*
X120019661Y-79932314D01*
X119741060Y-79816913D01*
X119449766Y-79738861D01*
X119150793Y-79699501D01*
X119150788Y-79699500D01*
X119150783Y-79699500D01*
X118849217Y-79699500D01*
X118849211Y-79699500D01*
X118849206Y-79699501D01*
X118550233Y-79738861D01*
X118258939Y-79816913D01*
X117980338Y-79932314D01*
X117980328Y-79932318D01*
X117719168Y-80083099D01*
X117479921Y-80266679D01*
X117479914Y-80266685D01*
X117266685Y-80479914D01*
X117266679Y-80479921D01*
X117083099Y-80719168D01*
X116932318Y-80980328D01*
X116932314Y-80980338D01*
X116816913Y-81258939D01*
X116738861Y-81550233D01*
X116699501Y-81849206D01*
X116699500Y-81849223D01*
X110797772Y-81849223D01*
X110855063Y-81635408D01*
X110875659Y-81400000D01*
X110855063Y-81164592D01*
X110793903Y-80936337D01*
X110694035Y-80722171D01*
X110691933Y-80719168D01*
X110558494Y-80528597D01*
X110391402Y-80361506D01*
X110391396Y-80361501D01*
X110205842Y-80231575D01*
X110162217Y-80176998D01*
X110155023Y-80107500D01*
X110186546Y-80045145D01*
X110205842Y-80028425D01*
X110228026Y-80012891D01*
X110391401Y-79898495D01*
X110558495Y-79731401D01*
X110694035Y-79537830D01*
X110793903Y-79323663D01*
X110855063Y-79095408D01*
X110875659Y-78860000D01*
X110855063Y-78624592D01*
X110793903Y-78396337D01*
X110694035Y-78182171D01*
X110616338Y-78071207D01*
X110558494Y-77988597D01*
X110391402Y-77821506D01*
X110391396Y-77821501D01*
X110205842Y-77691575D01*
X110162217Y-77636998D01*
X110155023Y-77567500D01*
X110186546Y-77505145D01*
X110205842Y-77488425D01*
X110311956Y-77414123D01*
X110391401Y-77358495D01*
X110558495Y-77191401D01*
X110694035Y-76997830D01*
X110774388Y-76825513D01*
X117799500Y-76825513D01*
X117799500Y-77014486D01*
X117829059Y-77201118D01*
X117887454Y-77380836D01*
X117950793Y-77505145D01*
X117973240Y-77549199D01*
X118084310Y-77702073D01*
X118217927Y-77835690D01*
X118370801Y-77946760D01*
X118416797Y-77970196D01*
X118539163Y-78032545D01*
X118539165Y-78032545D01*
X118539168Y-78032547D01*
X118635497Y-78063846D01*
X118718881Y-78090940D01*
X118905514Y-78120500D01*
X118905519Y-78120500D01*
X119094486Y-78120500D01*
X119281118Y-78090940D01*
X119460832Y-78032547D01*
X119609462Y-77956816D01*
X119678128Y-77943920D01*
X119742869Y-77970196D01*
X119783127Y-78027302D01*
X119788940Y-78071207D01*
X119789500Y-78071207D01*
X119789500Y-78304741D01*
X119814446Y-78494215D01*
X119819452Y-78532238D01*
X119844198Y-78624592D01*
X119878842Y-78753887D01*
X119966650Y-78965876D01*
X119966657Y-78965890D01*
X120081392Y-79164617D01*
X120221081Y-79346661D01*
X120221089Y-79346670D01*
X120383330Y-79508911D01*
X120383338Y-79508918D01*
X120565382Y-79648607D01*
X120565385Y-79648608D01*
X120565388Y-79648611D01*
X120764112Y-79763344D01*
X120764117Y-79763346D01*
X120764123Y-79763349D01*
X120855480Y-79801190D01*
X120976113Y-79851158D01*
X121197762Y-79910548D01*
X121425266Y-79940500D01*
X121425273Y-79940500D01*
X121654727Y-79940500D01*
X121654734Y-79940500D01*
X121882238Y-79910548D01*
X122103887Y-79851158D01*
X122315888Y-79763344D01*
X122514612Y-79648611D01*
X122696661Y-79508919D01*
X122696665Y-79508914D01*
X122696670Y-79508911D01*
X122858911Y-79346670D01*
X122858914Y-79346665D01*
X122858919Y-79346661D01*
X122998611Y-79164612D01*
X123113344Y-78965888D01*
X123201158Y-78753887D01*
X123260548Y-78532238D01*
X123290500Y-78304734D01*
X123290500Y-78075266D01*
X123260548Y-77847762D01*
X123201158Y-77626113D01*
X123113344Y-77414112D01*
X122998611Y-77215388D01*
X122998608Y-77215385D01*
X122998607Y-77215382D01*
X122858918Y-77033338D01*
X122858911Y-77033330D01*
X122696670Y-76871089D01*
X122696661Y-76871081D01*
X122637276Y-76825513D01*
X136799500Y-76825513D01*
X136799500Y-77014486D01*
X136829059Y-77201118D01*
X136887454Y-77380836D01*
X136950793Y-77505145D01*
X136973240Y-77549199D01*
X137084310Y-77702073D01*
X137217927Y-77835690D01*
X137370801Y-77946760D01*
X137416797Y-77970196D01*
X137539163Y-78032545D01*
X137539165Y-78032545D01*
X137539168Y-78032547D01*
X137635497Y-78063846D01*
X137718881Y-78090940D01*
X137905514Y-78120500D01*
X137905519Y-78120500D01*
X138094486Y-78120500D01*
X138281118Y-78090940D01*
X138460832Y-78032547D01*
X138609462Y-77956816D01*
X138678128Y-77943920D01*
X138742869Y-77970196D01*
X138783127Y-78027302D01*
X138788940Y-78071207D01*
X138789500Y-78071207D01*
X138789500Y-78304741D01*
X138814446Y-78494215D01*
X138819452Y-78532238D01*
X138844198Y-78624592D01*
X138878842Y-78753887D01*
X138966650Y-78965876D01*
X138966657Y-78965890D01*
X139081392Y-79164617D01*
X139221081Y-79346661D01*
X139221089Y-79346670D01*
X139383330Y-79508911D01*
X139383338Y-79508918D01*
X139565382Y-79648607D01*
X139565385Y-79648608D01*
X139565388Y-79648611D01*
X139764112Y-79763344D01*
X139764117Y-79763346D01*
X139764123Y-79763349D01*
X139855480Y-79801190D01*
X139976113Y-79851158D01*
X140197762Y-79910548D01*
X140425266Y-79940500D01*
X140425273Y-79940500D01*
X140654727Y-79940500D01*
X140654734Y-79940500D01*
X140882238Y-79910548D01*
X141103887Y-79851158D01*
X141315888Y-79763344D01*
X141514612Y-79648611D01*
X141696661Y-79508919D01*
X141696665Y-79508914D01*
X141696670Y-79508911D01*
X141858911Y-79346670D01*
X141858914Y-79346665D01*
X141858919Y-79346661D01*
X141998611Y-79164612D01*
X142113344Y-78965888D01*
X142201158Y-78753887D01*
X142260548Y-78532238D01*
X142290500Y-78304734D01*
X142290500Y-78075266D01*
X142260548Y-77847762D01*
X142201158Y-77626113D01*
X142142919Y-77485513D01*
X155799500Y-77485513D01*
X155799500Y-77674486D01*
X155829059Y-77861118D01*
X155887454Y-78040836D01*
X155973240Y-78209199D01*
X156084310Y-78362073D01*
X156217927Y-78495690D01*
X156370801Y-78606760D01*
X156450347Y-78647290D01*
X156539163Y-78692545D01*
X156539165Y-78692545D01*
X156539168Y-78692547D01*
X156635497Y-78723846D01*
X156718881Y-78750940D01*
X156905514Y-78780500D01*
X156905519Y-78780500D01*
X157094486Y-78780500D01*
X157281118Y-78750940D01*
X157460832Y-78692547D01*
X157629199Y-78606760D01*
X157782073Y-78495690D01*
X157915690Y-78362073D01*
X158026760Y-78209199D01*
X158112547Y-78040832D01*
X158170940Y-77861118D01*
X158177215Y-77821501D01*
X158200500Y-77674486D01*
X158200500Y-77485513D01*
X158170940Y-77298881D01*
X158112545Y-77119163D01*
X158026759Y-76950800D01*
X157915690Y-76797927D01*
X157782073Y-76664310D01*
X157629199Y-76553240D01*
X157460836Y-76467454D01*
X157281118Y-76409059D01*
X157094486Y-76379500D01*
X157094481Y-76379500D01*
X156905519Y-76379500D01*
X156905514Y-76379500D01*
X156718881Y-76409059D01*
X156539163Y-76467454D01*
X156370800Y-76553240D01*
X156288078Y-76613342D01*
X156217927Y-76664310D01*
X156217925Y-76664312D01*
X156217924Y-76664312D01*
X156084312Y-76797924D01*
X156084312Y-76797925D01*
X156084310Y-76797927D01*
X156064268Y-76825513D01*
X155973240Y-76950800D01*
X155887454Y-77119163D01*
X155829059Y-77298881D01*
X155799500Y-77485513D01*
X142142919Y-77485513D01*
X142113344Y-77414112D01*
X141998611Y-77215388D01*
X141998608Y-77215385D01*
X141998607Y-77215382D01*
X141858918Y-77033338D01*
X141858911Y-77033330D01*
X141696670Y-76871089D01*
X141696661Y-76871081D01*
X141514617Y-76731392D01*
X141315890Y-76616657D01*
X141315876Y-76616650D01*
X141103887Y-76528842D01*
X140882238Y-76469452D01*
X140844215Y-76464446D01*
X140654741Y-76439500D01*
X140654734Y-76439500D01*
X140425266Y-76439500D01*
X140425258Y-76439500D01*
X140212938Y-76467454D01*
X140197762Y-76469452D01*
X140104076Y-76494554D01*
X139976112Y-76528842D01*
X139764123Y-76616650D01*
X139764109Y-76616657D01*
X139565382Y-76731392D01*
X139392103Y-76864356D01*
X139326934Y-76889551D01*
X139258489Y-76875513D01*
X139208499Y-76826699D01*
X139194143Y-76785379D01*
X139170940Y-76638881D01*
X139143113Y-76553240D01*
X139112547Y-76459168D01*
X139112545Y-76459165D01*
X139112545Y-76459163D01*
X139061464Y-76358911D01*
X139026760Y-76290801D01*
X138915690Y-76137927D01*
X138782073Y-76004310D01*
X138629199Y-75893240D01*
X138460836Y-75807454D01*
X138281118Y-75749059D01*
X138094486Y-75719500D01*
X138094481Y-75719500D01*
X137905519Y-75719500D01*
X137905514Y-75719500D01*
X137718881Y-75749059D01*
X137539163Y-75807454D01*
X137370800Y-75893240D01*
X137283579Y-75956610D01*
X137217927Y-76004310D01*
X137217925Y-76004312D01*
X137217924Y-76004312D01*
X137084312Y-76137924D01*
X137084312Y-76137925D01*
X137084310Y-76137927D01*
X137041637Y-76196661D01*
X136973240Y-76290800D01*
X136887454Y-76459163D01*
X136829059Y-76638881D01*
X136799500Y-76825513D01*
X122637276Y-76825513D01*
X122514617Y-76731392D01*
X122315890Y-76616657D01*
X122315876Y-76616650D01*
X122103887Y-76528842D01*
X121882238Y-76469452D01*
X121844215Y-76464446D01*
X121654741Y-76439500D01*
X121654734Y-76439500D01*
X121425266Y-76439500D01*
X121425258Y-76439500D01*
X121212938Y-76467454D01*
X121197762Y-76469452D01*
X121104076Y-76494554D01*
X120976112Y-76528842D01*
X120764123Y-76616650D01*
X120764109Y-76616657D01*
X120565382Y-76731392D01*
X120392103Y-76864356D01*
X120326934Y-76889551D01*
X120258489Y-76875513D01*
X120208499Y-76826699D01*
X120194143Y-76785379D01*
X120170940Y-76638881D01*
X120143113Y-76553240D01*
X120112547Y-76459168D01*
X120112545Y-76459165D01*
X120112545Y-76459163D01*
X120061464Y-76358911D01*
X120026760Y-76290801D01*
X119915690Y-76137927D01*
X119782073Y-76004310D01*
X119629199Y-75893240D01*
X119460836Y-75807454D01*
X119281118Y-75749059D01*
X119094486Y-75719500D01*
X119094481Y-75719500D01*
X118905519Y-75719500D01*
X118905514Y-75719500D01*
X118718881Y-75749059D01*
X118539163Y-75807454D01*
X118370800Y-75893240D01*
X118283579Y-75956610D01*
X118217927Y-76004310D01*
X118217925Y-76004312D01*
X118217924Y-76004312D01*
X118084312Y-76137924D01*
X118084312Y-76137925D01*
X118084310Y-76137927D01*
X118041637Y-76196661D01*
X117973240Y-76290800D01*
X117887454Y-76459163D01*
X117829059Y-76638881D01*
X117799500Y-76825513D01*
X110774388Y-76825513D01*
X110793903Y-76783663D01*
X110855063Y-76555408D01*
X110875659Y-76320000D01*
X110855063Y-76084592D01*
X110793903Y-75856337D01*
X110694035Y-75642171D01*
X110667229Y-75603887D01*
X110558494Y-75448597D01*
X110391402Y-75281506D01*
X110391396Y-75281501D01*
X110205842Y-75151575D01*
X110162217Y-75096998D01*
X110155023Y-75027500D01*
X110186546Y-74965145D01*
X110205842Y-74948425D01*
X110238928Y-74925258D01*
X160329500Y-74925258D01*
X160329500Y-75154741D01*
X160346189Y-75281501D01*
X160359452Y-75382238D01*
X160418842Y-75603887D01*
X160506650Y-75815876D01*
X160506657Y-75815890D01*
X160621392Y-76014617D01*
X160761081Y-76196661D01*
X160761089Y-76196670D01*
X160923330Y-76358911D01*
X160923338Y-76358918D01*
X161105382Y-76498607D01*
X161105385Y-76498608D01*
X161105388Y-76498611D01*
X161304112Y-76613344D01*
X161304117Y-76613346D01*
X161304123Y-76613349D01*
X161365766Y-76638882D01*
X161516113Y-76701158D01*
X161737762Y-76760548D01*
X161965266Y-76790500D01*
X161965273Y-76790500D01*
X162194727Y-76790500D01*
X162194734Y-76790500D01*
X162422238Y-76760548D01*
X162643887Y-76701158D01*
X162855888Y-76613344D01*
X163054612Y-76498611D01*
X163236661Y-76358919D01*
X163236665Y-76358914D01*
X163236670Y-76358911D01*
X163398911Y-76196670D01*
X163398914Y-76196665D01*
X163398919Y-76196661D01*
X163538611Y-76014612D01*
X163653344Y-75815888D01*
X163741158Y-75603887D01*
X163800548Y-75382238D01*
X163830500Y-75154734D01*
X163830500Y-74925266D01*
X163800548Y-74697762D01*
X163741158Y-74476113D01*
X163653344Y-74264112D01*
X163538611Y-74065388D01*
X163538608Y-74065385D01*
X163538607Y-74065382D01*
X163398918Y-73883338D01*
X163398911Y-73883330D01*
X163236670Y-73721089D01*
X163236661Y-73721081D01*
X163054617Y-73581392D01*
X162990877Y-73544592D01*
X162855888Y-73466656D01*
X162855876Y-73466650D01*
X162643887Y-73378842D01*
X162422238Y-73319452D01*
X162384215Y-73314446D01*
X162194741Y-73289500D01*
X162194734Y-73289500D01*
X161965266Y-73289500D01*
X161965258Y-73289500D01*
X161761422Y-73316337D01*
X161737762Y-73319452D01*
X161644076Y-73344554D01*
X161516112Y-73378842D01*
X161304123Y-73466650D01*
X161304109Y-73466657D01*
X161105382Y-73581392D01*
X160923338Y-73721081D01*
X160761081Y-73883338D01*
X160621392Y-74065382D01*
X160506657Y-74264109D01*
X160506650Y-74264123D01*
X160426415Y-74457830D01*
X160418842Y-74476113D01*
X160363385Y-74683086D01*
X160359453Y-74697759D01*
X160359451Y-74697770D01*
X160329500Y-74925258D01*
X110238928Y-74925258D01*
X110391401Y-74818495D01*
X110558495Y-74651401D01*
X110694035Y-74457830D01*
X110793903Y-74243663D01*
X110855063Y-74015408D01*
X110875659Y-73780000D01*
X110855063Y-73544592D01*
X110794738Y-73319452D01*
X110793905Y-73316344D01*
X110793904Y-73316343D01*
X110793903Y-73316337D01*
X110694035Y-73102171D01*
X110587321Y-72949766D01*
X110558494Y-72908597D01*
X110391402Y-72741506D01*
X110391396Y-72741501D01*
X110205842Y-72611575D01*
X110162217Y-72556998D01*
X110155023Y-72487500D01*
X110186546Y-72425145D01*
X110205842Y-72408425D01*
X110290391Y-72349223D01*
X154699500Y-72349223D01*
X154699500Y-72650776D01*
X154699501Y-72650793D01*
X154738861Y-72949766D01*
X154816913Y-73241060D01*
X154932314Y-73519661D01*
X154932318Y-73519671D01*
X155083099Y-73780831D01*
X155266679Y-74020078D01*
X155266685Y-74020085D01*
X155479914Y-74233314D01*
X155479921Y-74233320D01*
X155719168Y-74416900D01*
X155980328Y-74567681D01*
X155980329Y-74567681D01*
X155980332Y-74567683D01*
X156166072Y-74644619D01*
X156258939Y-74683086D01*
X156258940Y-74683086D01*
X156258942Y-74683087D01*
X156550232Y-74761138D01*
X156849217Y-74800500D01*
X156849224Y-74800500D01*
X157150776Y-74800500D01*
X157150783Y-74800500D01*
X157449768Y-74761138D01*
X157741058Y-74683087D01*
X158019668Y-74567683D01*
X158280832Y-74416900D01*
X158520080Y-74233319D01*
X158733319Y-74020080D01*
X158916900Y-73780832D01*
X159067683Y-73519668D01*
X159183087Y-73241058D01*
X159261138Y-72949768D01*
X159300500Y-72650783D01*
X159300500Y-72349217D01*
X159261138Y-72050232D01*
X159183087Y-71758942D01*
X159067683Y-71480332D01*
X159064837Y-71475403D01*
X158916900Y-71219168D01*
X158733320Y-70979921D01*
X158733314Y-70979914D01*
X158520085Y-70766685D01*
X158520078Y-70766679D01*
X158280831Y-70583099D01*
X158019671Y-70432318D01*
X158019661Y-70432314D01*
X157741060Y-70316913D01*
X157449766Y-70238861D01*
X157150793Y-70199501D01*
X157150788Y-70199500D01*
X157150783Y-70199500D01*
X156849217Y-70199500D01*
X156849211Y-70199500D01*
X156849206Y-70199501D01*
X156550233Y-70238861D01*
X156258939Y-70316913D01*
X155980338Y-70432314D01*
X155980328Y-70432318D01*
X155719168Y-70583099D01*
X155479921Y-70766679D01*
X155479914Y-70766685D01*
X155266685Y-70979914D01*
X155266679Y-70979921D01*
X155083099Y-71219168D01*
X154932318Y-71480328D01*
X154932314Y-71480338D01*
X154816913Y-71758939D01*
X154738861Y-72050233D01*
X154699501Y-72349206D01*
X154699500Y-72349223D01*
X110290391Y-72349223D01*
X110391401Y-72278495D01*
X110558495Y-72111401D01*
X110694035Y-71917830D01*
X110793903Y-71703663D01*
X110855063Y-71475408D01*
X110875659Y-71240000D01*
X110855063Y-71004592D01*
X110793903Y-70776337D01*
X110694035Y-70562171D01*
X110608841Y-70440500D01*
X110558494Y-70368597D01*
X110391402Y-70201506D01*
X110391396Y-70201501D01*
X110205842Y-70071575D01*
X110162217Y-70016998D01*
X110155023Y-69947500D01*
X110186546Y-69885145D01*
X110205842Y-69868425D01*
X110236924Y-69846661D01*
X110391401Y-69738495D01*
X110558495Y-69571401D01*
X110694035Y-69377830D01*
X110793903Y-69163663D01*
X110855063Y-68935408D01*
X110875659Y-68700000D01*
X110855063Y-68464592D01*
X110793903Y-68236337D01*
X110694035Y-68022171D01*
X110668372Y-67985519D01*
X110668368Y-67985513D01*
X117799500Y-67985513D01*
X117799500Y-68174486D01*
X117829059Y-68361118D01*
X117887454Y-68540836D01*
X117968552Y-68699999D01*
X117973240Y-68709199D01*
X118084310Y-68862073D01*
X118217927Y-68995690D01*
X118370801Y-69106760D01*
X118450347Y-69147290D01*
X118539163Y-69192545D01*
X118539165Y-69192545D01*
X118539168Y-69192547D01*
X118635497Y-69223846D01*
X118718881Y-69250940D01*
X118905514Y-69280500D01*
X118905519Y-69280500D01*
X119094486Y-69280500D01*
X119281118Y-69250940D01*
X119460832Y-69192547D01*
X119629199Y-69106760D01*
X119782073Y-68995690D01*
X119915690Y-68862073D01*
X120026760Y-68709199D01*
X120112547Y-68540832D01*
X120170940Y-68361118D01*
X120174968Y-68335687D01*
X120200500Y-68174486D01*
X120200500Y-67985513D01*
X136799500Y-67985513D01*
X136799500Y-68174486D01*
X136829059Y-68361118D01*
X136887454Y-68540836D01*
X136968552Y-68699999D01*
X136973240Y-68709199D01*
X137084310Y-68862073D01*
X137217927Y-68995690D01*
X137370801Y-69106760D01*
X137450347Y-69147290D01*
X137539163Y-69192545D01*
X137539165Y-69192545D01*
X137539168Y-69192547D01*
X137635497Y-69223846D01*
X137718881Y-69250940D01*
X137905514Y-69280500D01*
X137905519Y-69280500D01*
X138094486Y-69280500D01*
X138281118Y-69250940D01*
X138460832Y-69192547D01*
X138629199Y-69106760D01*
X138782073Y-68995690D01*
X138915690Y-68862073D01*
X139026760Y-68709199D01*
X139112547Y-68540832D01*
X139170940Y-68361118D01*
X139174968Y-68335687D01*
X139200500Y-68174486D01*
X139200500Y-67985513D01*
X139170940Y-67798881D01*
X139139174Y-67701118D01*
X139112547Y-67619168D01*
X139112545Y-67619165D01*
X139112545Y-67619163D01*
X139040108Y-67476998D01*
X139026760Y-67450801D01*
X138935732Y-67325513D01*
X155799500Y-67325513D01*
X155799500Y-67514486D01*
X155829059Y-67701118D01*
X155887454Y-67880836D01*
X155973240Y-68049199D01*
X156084310Y-68202073D01*
X156217927Y-68335690D01*
X156370801Y-68446760D01*
X156416797Y-68470196D01*
X156539163Y-68532545D01*
X156539165Y-68532545D01*
X156539168Y-68532547D01*
X156635497Y-68563846D01*
X156718881Y-68590940D01*
X156905514Y-68620500D01*
X156905519Y-68620500D01*
X157094486Y-68620500D01*
X157281118Y-68590940D01*
X157460832Y-68532547D01*
X157609462Y-68456816D01*
X157678128Y-68443920D01*
X157742869Y-68470196D01*
X157783127Y-68527302D01*
X157788940Y-68571207D01*
X157789500Y-68571207D01*
X157789500Y-68804741D01*
X157814446Y-68994215D01*
X157819452Y-69032238D01*
X157819453Y-69032240D01*
X157878842Y-69253887D01*
X157966650Y-69465876D01*
X157966657Y-69465890D01*
X158081392Y-69664617D01*
X158221081Y-69846661D01*
X158221089Y-69846670D01*
X158383330Y-70008911D01*
X158383338Y-70008918D01*
X158565382Y-70148607D01*
X158565385Y-70148608D01*
X158565388Y-70148611D01*
X158764112Y-70263344D01*
X158764117Y-70263346D01*
X158764123Y-70263349D01*
X158855480Y-70301190D01*
X158976113Y-70351158D01*
X159197762Y-70410548D01*
X159425266Y-70440500D01*
X159425273Y-70440500D01*
X159654727Y-70440500D01*
X159654734Y-70440500D01*
X159882238Y-70410548D01*
X160103887Y-70351158D01*
X160315888Y-70263344D01*
X160514612Y-70148611D01*
X160696661Y-70008919D01*
X160696665Y-70008914D01*
X160696670Y-70008911D01*
X160858911Y-69846670D01*
X160858914Y-69846665D01*
X160858919Y-69846661D01*
X160998611Y-69664612D01*
X161113344Y-69465888D01*
X161201158Y-69253887D01*
X161260548Y-69032238D01*
X161290500Y-68804734D01*
X161290500Y-68575266D01*
X161260548Y-68347762D01*
X161201158Y-68126113D01*
X161113344Y-67914112D01*
X160998611Y-67715388D01*
X160998608Y-67715385D01*
X160998607Y-67715382D01*
X160858918Y-67533338D01*
X160858911Y-67533330D01*
X160696670Y-67371089D01*
X160696661Y-67371081D01*
X160514617Y-67231392D01*
X160315890Y-67116657D01*
X160315876Y-67116650D01*
X160103887Y-67028842D01*
X159882238Y-66969452D01*
X159844215Y-66964446D01*
X159654741Y-66939500D01*
X159654734Y-66939500D01*
X159425266Y-66939500D01*
X159425258Y-66939500D01*
X159212938Y-66967454D01*
X159197762Y-66969452D01*
X159104076Y-66994554D01*
X158976112Y-67028842D01*
X158764123Y-67116650D01*
X158764109Y-67116657D01*
X158565382Y-67231392D01*
X158392103Y-67364356D01*
X158326934Y-67389551D01*
X158258489Y-67375513D01*
X158208499Y-67326699D01*
X158194143Y-67285379D01*
X158170940Y-67138881D01*
X158136015Y-67031395D01*
X158112547Y-66959168D01*
X158112545Y-66959165D01*
X158112545Y-66959163D01*
X158026759Y-66790800D01*
X157915690Y-66637927D01*
X157782073Y-66504310D01*
X157629199Y-66393240D01*
X157460836Y-66307454D01*
X157281118Y-66249059D01*
X157094486Y-66219500D01*
X157094481Y-66219500D01*
X156905519Y-66219500D01*
X156905514Y-66219500D01*
X156718881Y-66249059D01*
X156539163Y-66307454D01*
X156370800Y-66393240D01*
X156283579Y-66456610D01*
X156217927Y-66504310D01*
X156217925Y-66504312D01*
X156217924Y-66504312D01*
X156084312Y-66637924D01*
X156084312Y-66637925D01*
X156084310Y-66637927D01*
X156041637Y-66696661D01*
X155973240Y-66790800D01*
X155887454Y-66959163D01*
X155829059Y-67138881D01*
X155799500Y-67325513D01*
X138935732Y-67325513D01*
X138915690Y-67297927D01*
X138782073Y-67164310D01*
X138629199Y-67053240D01*
X138460836Y-66967454D01*
X138281118Y-66909059D01*
X138094486Y-66879500D01*
X138094481Y-66879500D01*
X137905519Y-66879500D01*
X137905514Y-66879500D01*
X137718881Y-66909059D01*
X137539163Y-66967454D01*
X137370800Y-67053240D01*
X137288078Y-67113342D01*
X137217927Y-67164310D01*
X137217925Y-67164312D01*
X137217924Y-67164312D01*
X137084312Y-67297924D01*
X137084312Y-67297925D01*
X137084310Y-67297927D01*
X137064268Y-67325513D01*
X136973240Y-67450800D01*
X136887454Y-67619163D01*
X136829059Y-67798881D01*
X136799500Y-67985513D01*
X120200500Y-67985513D01*
X120170940Y-67798881D01*
X120139174Y-67701118D01*
X120112547Y-67619168D01*
X120112545Y-67619165D01*
X120112545Y-67619163D01*
X120040108Y-67476998D01*
X120026760Y-67450801D01*
X119915690Y-67297927D01*
X119782073Y-67164310D01*
X119629199Y-67053240D01*
X119460836Y-66967454D01*
X119281118Y-66909059D01*
X119094486Y-66879500D01*
X119094481Y-66879500D01*
X118905519Y-66879500D01*
X118905514Y-66879500D01*
X118718881Y-66909059D01*
X118539163Y-66967454D01*
X118370800Y-67053240D01*
X118288078Y-67113342D01*
X118217927Y-67164310D01*
X118217925Y-67164312D01*
X118217924Y-67164312D01*
X118084312Y-67297924D01*
X118084312Y-67297925D01*
X118084310Y-67297927D01*
X118064268Y-67325513D01*
X117973240Y-67450800D01*
X117887454Y-67619163D01*
X117829059Y-67798881D01*
X117799500Y-67985513D01*
X110668368Y-67985513D01*
X110558494Y-67828597D01*
X110391402Y-67661506D01*
X110391396Y-67661501D01*
X110205842Y-67531575D01*
X110162217Y-67476998D01*
X110155023Y-67407500D01*
X110186546Y-67345145D01*
X110205842Y-67328425D01*
X110228026Y-67312891D01*
X110391401Y-67198495D01*
X110558495Y-67031401D01*
X110694035Y-66837830D01*
X110793903Y-66623663D01*
X110855063Y-66395408D01*
X110875659Y-66160000D01*
X110855063Y-65924592D01*
X110793903Y-65696337D01*
X110694035Y-65482171D01*
X110654185Y-65425258D01*
X122329500Y-65425258D01*
X122329500Y-65654741D01*
X122354446Y-65844215D01*
X122359452Y-65882238D01*
X122359453Y-65882240D01*
X122418842Y-66103887D01*
X122506650Y-66315876D01*
X122506657Y-66315890D01*
X122621392Y-66514617D01*
X122761081Y-66696661D01*
X122761089Y-66696670D01*
X122923330Y-66858911D01*
X122923338Y-66858918D01*
X123105382Y-66998607D01*
X123105385Y-66998608D01*
X123105388Y-66998611D01*
X123304112Y-67113344D01*
X123304117Y-67113346D01*
X123304123Y-67113349D01*
X123365766Y-67138882D01*
X123516113Y-67201158D01*
X123737762Y-67260548D01*
X123965266Y-67290500D01*
X123965273Y-67290500D01*
X124194727Y-67290500D01*
X124194734Y-67290500D01*
X124422238Y-67260548D01*
X124643887Y-67201158D01*
X124855888Y-67113344D01*
X125054612Y-66998611D01*
X125236661Y-66858919D01*
X125236665Y-66858914D01*
X125236670Y-66858911D01*
X125398911Y-66696670D01*
X125398914Y-66696665D01*
X125398919Y-66696661D01*
X125538611Y-66514612D01*
X125653344Y-66315888D01*
X125741158Y-66103887D01*
X125800548Y-65882238D01*
X125830500Y-65654734D01*
X125830500Y-65425266D01*
X125830499Y-65425258D01*
X141329500Y-65425258D01*
X141329500Y-65654741D01*
X141354446Y-65844215D01*
X141359452Y-65882238D01*
X141359453Y-65882240D01*
X141418842Y-66103887D01*
X141506650Y-66315876D01*
X141506657Y-66315890D01*
X141621392Y-66514617D01*
X141761081Y-66696661D01*
X141761089Y-66696670D01*
X141923330Y-66858911D01*
X141923338Y-66858918D01*
X142105382Y-66998607D01*
X142105385Y-66998608D01*
X142105388Y-66998611D01*
X142304112Y-67113344D01*
X142304117Y-67113346D01*
X142304123Y-67113349D01*
X142365766Y-67138882D01*
X142516113Y-67201158D01*
X142737762Y-67260548D01*
X142965266Y-67290500D01*
X142965273Y-67290500D01*
X143194727Y-67290500D01*
X143194734Y-67290500D01*
X143422238Y-67260548D01*
X143643887Y-67201158D01*
X143855888Y-67113344D01*
X144054612Y-66998611D01*
X144236661Y-66858919D01*
X144236665Y-66858914D01*
X144236670Y-66858911D01*
X144398911Y-66696670D01*
X144398914Y-66696665D01*
X144398919Y-66696661D01*
X144538611Y-66514612D01*
X144653344Y-66315888D01*
X144741158Y-66103887D01*
X144800548Y-65882238D01*
X144830500Y-65654734D01*
X144830500Y-65425266D01*
X144800548Y-65197762D01*
X144741158Y-64976113D01*
X144678538Y-64824936D01*
X144653349Y-64764123D01*
X144653346Y-64764117D01*
X144653344Y-64764112D01*
X144538611Y-64565388D01*
X144538608Y-64565385D01*
X144538607Y-64565382D01*
X144398918Y-64383338D01*
X144398911Y-64383330D01*
X144236670Y-64221089D01*
X144236661Y-64221081D01*
X144054617Y-64081392D01*
X143855890Y-63966657D01*
X143855876Y-63966650D01*
X143643887Y-63878842D01*
X143422238Y-63819452D01*
X143384215Y-63814446D01*
X143194741Y-63789500D01*
X143194734Y-63789500D01*
X142965266Y-63789500D01*
X142965258Y-63789500D01*
X142748715Y-63818009D01*
X142737762Y-63819452D01*
X142644076Y-63844554D01*
X142516112Y-63878842D01*
X142304123Y-63966650D01*
X142304109Y-63966657D01*
X142105382Y-64081392D01*
X141923338Y-64221081D01*
X141761081Y-64383338D01*
X141621392Y-64565382D01*
X141506657Y-64764109D01*
X141506650Y-64764123D01*
X141418842Y-64976112D01*
X141414699Y-64991575D01*
X141363385Y-65183086D01*
X141359453Y-65197759D01*
X141359451Y-65197770D01*
X141329500Y-65425258D01*
X125830499Y-65425258D01*
X125800548Y-65197762D01*
X125741158Y-64976113D01*
X125678538Y-64824936D01*
X125653349Y-64764123D01*
X125653346Y-64764117D01*
X125653344Y-64764112D01*
X125538611Y-64565388D01*
X125538608Y-64565385D01*
X125538607Y-64565382D01*
X125398918Y-64383338D01*
X125398911Y-64383330D01*
X125236670Y-64221089D01*
X125236661Y-64221081D01*
X125054617Y-64081392D01*
X124855890Y-63966657D01*
X124855876Y-63966650D01*
X124643887Y-63878842D01*
X124422238Y-63819452D01*
X124384215Y-63814446D01*
X124194741Y-63789500D01*
X124194734Y-63789500D01*
X123965266Y-63789500D01*
X123965258Y-63789500D01*
X123748715Y-63818009D01*
X123737762Y-63819452D01*
X123644076Y-63844554D01*
X123516112Y-63878842D01*
X123304123Y-63966650D01*
X123304109Y-63966657D01*
X123105382Y-64081392D01*
X122923338Y-64221081D01*
X122761081Y-64383338D01*
X122621392Y-64565382D01*
X122506657Y-64764109D01*
X122506650Y-64764123D01*
X122418842Y-64976112D01*
X122414699Y-64991575D01*
X122363385Y-65183086D01*
X122359453Y-65197759D01*
X122359451Y-65197770D01*
X122329500Y-65425258D01*
X110654185Y-65425258D01*
X110558494Y-65288597D01*
X110391402Y-65121506D01*
X110391396Y-65121501D01*
X110205842Y-64991575D01*
X110162217Y-64936998D01*
X110155023Y-64867500D01*
X110186546Y-64805145D01*
X110205842Y-64788425D01*
X110284548Y-64733314D01*
X110391401Y-64658495D01*
X110558495Y-64491401D01*
X110694035Y-64297830D01*
X110793903Y-64083663D01*
X110793905Y-64083653D01*
X110793907Y-64083650D01*
X110825254Y-63966657D01*
X110855063Y-63855408D01*
X110875659Y-63620000D01*
X110855063Y-63384592D01*
X110793903Y-63156337D01*
X110694035Y-62942171D01*
X110628953Y-62849223D01*
X116699500Y-62849223D01*
X116699500Y-63150776D01*
X116699501Y-63150793D01*
X116738861Y-63449766D01*
X116816913Y-63741060D01*
X116932314Y-64019661D01*
X116932318Y-64019671D01*
X117083099Y-64280831D01*
X117266679Y-64520078D01*
X117266685Y-64520085D01*
X117479914Y-64733314D01*
X117479921Y-64733320D01*
X117719168Y-64916900D01*
X117980328Y-65067681D01*
X117980329Y-65067681D01*
X117980332Y-65067683D01*
X118166072Y-65144619D01*
X118258939Y-65183086D01*
X118258940Y-65183086D01*
X118258942Y-65183087D01*
X118550232Y-65261138D01*
X118849217Y-65300500D01*
X118849224Y-65300500D01*
X119150776Y-65300500D01*
X119150783Y-65300500D01*
X119449768Y-65261138D01*
X119741058Y-65183087D01*
X120019668Y-65067683D01*
X120280832Y-64916900D01*
X120520080Y-64733319D01*
X120733319Y-64520080D01*
X120916900Y-64280832D01*
X121067683Y-64019668D01*
X121183087Y-63741058D01*
X121261138Y-63449768D01*
X121300500Y-63150783D01*
X121300500Y-62849223D01*
X135699500Y-62849223D01*
X135699500Y-63150776D01*
X135699501Y-63150793D01*
X135738861Y-63449766D01*
X135816913Y-63741060D01*
X135932314Y-64019661D01*
X135932318Y-64019671D01*
X136083099Y-64280831D01*
X136266679Y-64520078D01*
X136266685Y-64520085D01*
X136479914Y-64733314D01*
X136479921Y-64733320D01*
X136719168Y-64916900D01*
X136980328Y-65067681D01*
X136980329Y-65067681D01*
X136980332Y-65067683D01*
X137166072Y-65144619D01*
X137258939Y-65183086D01*
X137258940Y-65183086D01*
X137258942Y-65183087D01*
X137550232Y-65261138D01*
X137849217Y-65300500D01*
X137849224Y-65300500D01*
X138150776Y-65300500D01*
X138150783Y-65300500D01*
X138449768Y-65261138D01*
X138741058Y-65183087D01*
X139019668Y-65067683D01*
X139280832Y-64916900D01*
X139520080Y-64733319D01*
X139733319Y-64520080D01*
X139916900Y-64280832D01*
X140067683Y-64019668D01*
X140183087Y-63741058D01*
X140261138Y-63449768D01*
X140300500Y-63150783D01*
X140300500Y-62849217D01*
X140261138Y-62550232D01*
X140183087Y-62258942D01*
X140181054Y-62254035D01*
X140067685Y-61980338D01*
X140067681Y-61980328D01*
X139916900Y-61719168D01*
X139733320Y-61479921D01*
X139733314Y-61479914D01*
X139520085Y-61266685D01*
X139520078Y-61266679D01*
X139280831Y-61083099D01*
X139019671Y-60932318D01*
X139019661Y-60932314D01*
X138741060Y-60816913D01*
X138449766Y-60738861D01*
X138150793Y-60699501D01*
X138150788Y-60699500D01*
X138150783Y-60699500D01*
X137849217Y-60699500D01*
X137849211Y-60699500D01*
X137849206Y-60699501D01*
X137550233Y-60738861D01*
X137258939Y-60816913D01*
X136980338Y-60932314D01*
X136980328Y-60932318D01*
X136719168Y-61083099D01*
X136479921Y-61266679D01*
X136479914Y-61266685D01*
X136266685Y-61479914D01*
X136266679Y-61479921D01*
X136083099Y-61719168D01*
X135932318Y-61980328D01*
X135932314Y-61980338D01*
X135816913Y-62258939D01*
X135738861Y-62550233D01*
X135699501Y-62849206D01*
X135699500Y-62849223D01*
X121300500Y-62849223D01*
X121300500Y-62849217D01*
X121261138Y-62550232D01*
X121183087Y-62258942D01*
X121181054Y-62254035D01*
X121067685Y-61980338D01*
X121067681Y-61980328D01*
X120916900Y-61719168D01*
X120733320Y-61479921D01*
X120733314Y-61479914D01*
X120520085Y-61266685D01*
X120520078Y-61266679D01*
X120280831Y-61083099D01*
X120019671Y-60932318D01*
X120019661Y-60932314D01*
X119741060Y-60816913D01*
X119449766Y-60738861D01*
X119150793Y-60699501D01*
X119150788Y-60699500D01*
X119150783Y-60699500D01*
X118849217Y-60699500D01*
X118849211Y-60699500D01*
X118849206Y-60699501D01*
X118550233Y-60738861D01*
X118258939Y-60816913D01*
X117980338Y-60932314D01*
X117980328Y-60932318D01*
X117719168Y-61083099D01*
X117479921Y-61266679D01*
X117479914Y-61266685D01*
X117266685Y-61479914D01*
X117266679Y-61479921D01*
X117083099Y-61719168D01*
X116932318Y-61980328D01*
X116932314Y-61980338D01*
X116816913Y-62258939D01*
X116738861Y-62550233D01*
X116699501Y-62849206D01*
X116699500Y-62849223D01*
X110628953Y-62849223D01*
X110558494Y-62748597D01*
X110391402Y-62581506D01*
X110391396Y-62581501D01*
X110205842Y-62451575D01*
X110162217Y-62396998D01*
X110155023Y-62327500D01*
X110186546Y-62265145D01*
X110205842Y-62248425D01*
X110228026Y-62232891D01*
X110391401Y-62118495D01*
X110558495Y-61951401D01*
X110694035Y-61757830D01*
X110793903Y-61543663D01*
X110855063Y-61315408D01*
X110875659Y-61080000D01*
X110855063Y-60844592D01*
X110793903Y-60616337D01*
X110694035Y-60402171D01*
X110558495Y-60208599D01*
X110558494Y-60208597D01*
X110391402Y-60041506D01*
X110391395Y-60041501D01*
X110197834Y-59905967D01*
X110197830Y-59905965D01*
X110175729Y-59895659D01*
X109983663Y-59806097D01*
X109983659Y-59806096D01*
X109983655Y-59806094D01*
X109755413Y-59744938D01*
X109755403Y-59744936D01*
X109520001Y-59724341D01*
X109519999Y-59724341D01*
X109284596Y-59744936D01*
X109284586Y-59744938D01*
X109056344Y-59806094D01*
X109056335Y-59806098D01*
X108842171Y-59905964D01*
X108842169Y-59905965D01*
X108648597Y-60041505D01*
X108481505Y-60208597D01*
X108345965Y-60402169D01*
X108345964Y-60402171D01*
X108246098Y-60616335D01*
X108246094Y-60616344D01*
X108184938Y-60844586D01*
X108184936Y-60844596D01*
X108164341Y-61079999D01*
X101275462Y-61079999D01*
X101019671Y-60932318D01*
X101019661Y-60932314D01*
X100741060Y-60816913D01*
X100449766Y-60738861D01*
X100150793Y-60699501D01*
X100150788Y-60699500D01*
X100150783Y-60699500D01*
X99849217Y-60699500D01*
X99849211Y-60699500D01*
X99849206Y-60699501D01*
X99550233Y-60738861D01*
X99258939Y-60816913D01*
X98980338Y-60932314D01*
X98980328Y-60932318D01*
X98719168Y-61083099D01*
X98479921Y-61266679D01*
X98479914Y-61266685D01*
X98266685Y-61479914D01*
X98266679Y-61479921D01*
X98083099Y-61719168D01*
X97932318Y-61980328D01*
X97932314Y-61980338D01*
X97816913Y-62258939D01*
X97738861Y-62550233D01*
X97699501Y-62849206D01*
X97699500Y-62849223D01*
X90000500Y-62849223D01*
X90000500Y-55999999D01*
X92924341Y-55999999D01*
X92924341Y-56000000D01*
X92944936Y-56235403D01*
X92944938Y-56235413D01*
X93006094Y-56463655D01*
X93006096Y-56463659D01*
X93006097Y-56463663D01*
X93105965Y-56677830D01*
X93105967Y-56677834D01*
X93241501Y-56871395D01*
X93241506Y-56871402D01*
X93408597Y-57038493D01*
X93408603Y-57038498D01*
X93594158Y-57168425D01*
X93637783Y-57223002D01*
X93644977Y-57292500D01*
X93613454Y-57354855D01*
X93594158Y-57371575D01*
X93408597Y-57501505D01*
X93241505Y-57668597D01*
X93105965Y-57862169D01*
X93105964Y-57862171D01*
X93006098Y-58076335D01*
X93006094Y-58076344D01*
X92944938Y-58304586D01*
X92944936Y-58304596D01*
X92924341Y-58539999D01*
X92924341Y-58540000D01*
X92944936Y-58775403D01*
X92944938Y-58775413D01*
X93006094Y-59003655D01*
X93006096Y-59003659D01*
X93006097Y-59003663D01*
X93039486Y-59075266D01*
X93105965Y-59217830D01*
X93105967Y-59217834D01*
X93214281Y-59372521D01*
X93241505Y-59411401D01*
X93408599Y-59578495D01*
X93505384Y-59646265D01*
X93602165Y-59714032D01*
X93602167Y-59714033D01*
X93602170Y-59714035D01*
X93816337Y-59813903D01*
X94044592Y-59875063D01*
X94232918Y-59891539D01*
X94279999Y-59895659D01*
X94280000Y-59895659D01*
X94280001Y-59895659D01*
X94319234Y-59892226D01*
X94515408Y-59875063D01*
X94743663Y-59813903D01*
X94957830Y-59714035D01*
X95151401Y-59578495D01*
X95318495Y-59411401D01*
X95454035Y-59217830D01*
X95553903Y-59003663D01*
X95615063Y-58775408D01*
X95635659Y-58540000D01*
X95615063Y-58304592D01*
X95553903Y-58076337D01*
X95454035Y-57862171D01*
X95429198Y-57826699D01*
X95428368Y-57825513D01*
X98799500Y-57825513D01*
X98799500Y-58014486D01*
X98829059Y-58201118D01*
X98887454Y-58380836D01*
X98968552Y-58539999D01*
X98973240Y-58549199D01*
X99084310Y-58702073D01*
X99217927Y-58835690D01*
X99370801Y-58946760D01*
X99416797Y-58970196D01*
X99539163Y-59032545D01*
X99539165Y-59032545D01*
X99539168Y-59032547D01*
X99635497Y-59063846D01*
X99718881Y-59090940D01*
X99905514Y-59120500D01*
X99905519Y-59120500D01*
X100094486Y-59120500D01*
X100281118Y-59090940D01*
X100460832Y-59032547D01*
X100609462Y-58956816D01*
X100678128Y-58943920D01*
X100742869Y-58970196D01*
X100783127Y-59027302D01*
X100788940Y-59071207D01*
X100789500Y-59071207D01*
X100789500Y-59304741D01*
X100803542Y-59411395D01*
X100819452Y-59532238D01*
X100868163Y-59714032D01*
X100878842Y-59753887D01*
X100966650Y-59965876D01*
X100966657Y-59965890D01*
X101081392Y-60164617D01*
X101221081Y-60346661D01*
X101221089Y-60346670D01*
X101383330Y-60508911D01*
X101383338Y-60508918D01*
X101565382Y-60648607D01*
X101565385Y-60648608D01*
X101565388Y-60648611D01*
X101764112Y-60763344D01*
X101764117Y-60763346D01*
X101764123Y-60763349D01*
X101855480Y-60801190D01*
X101976113Y-60851158D01*
X102197762Y-60910548D01*
X102425266Y-60940500D01*
X102425273Y-60940500D01*
X102654727Y-60940500D01*
X102654734Y-60940500D01*
X102882238Y-60910548D01*
X103103887Y-60851158D01*
X103315888Y-60763344D01*
X103514612Y-60648611D01*
X103696661Y-60508919D01*
X103696665Y-60508914D01*
X103696670Y-60508911D01*
X103858911Y-60346670D01*
X103858914Y-60346665D01*
X103858919Y-60346661D01*
X103998611Y-60164612D01*
X104113344Y-59965888D01*
X104201158Y-59753887D01*
X104260548Y-59532238D01*
X104290500Y-59304734D01*
X104290500Y-59075266D01*
X104260548Y-58847762D01*
X104201158Y-58626113D01*
X104113344Y-58414112D01*
X103998611Y-58215388D01*
X103998608Y-58215385D01*
X103998607Y-58215382D01*
X103858918Y-58033338D01*
X103858911Y-58033330D01*
X103696670Y-57871089D01*
X103696661Y-57871081D01*
X103637276Y-57825513D01*
X117799500Y-57825513D01*
X117799500Y-58014486D01*
X117829059Y-58201118D01*
X117887454Y-58380836D01*
X117968552Y-58539999D01*
X117973240Y-58549199D01*
X118084310Y-58702073D01*
X118217927Y-58835690D01*
X118370801Y-58946760D01*
X118416797Y-58970196D01*
X118539163Y-59032545D01*
X118539165Y-59032545D01*
X118539168Y-59032547D01*
X118635497Y-59063846D01*
X118718881Y-59090940D01*
X118905514Y-59120500D01*
X118905519Y-59120500D01*
X119094486Y-59120500D01*
X119281118Y-59090940D01*
X119460832Y-59032547D01*
X119609462Y-58956816D01*
X119678128Y-58943920D01*
X119742869Y-58970196D01*
X119783127Y-59027302D01*
X119788940Y-59071207D01*
X119789500Y-59071207D01*
X119789500Y-59304741D01*
X119803542Y-59411395D01*
X119819452Y-59532238D01*
X119868163Y-59714032D01*
X119878842Y-59753887D01*
X119966650Y-59965876D01*
X119966657Y-59965890D01*
X120081392Y-60164617D01*
X120221081Y-60346661D01*
X120221089Y-60346670D01*
X120383330Y-60508911D01*
X120383338Y-60508918D01*
X120565382Y-60648607D01*
X120565385Y-60648608D01*
X120565388Y-60648611D01*
X120764112Y-60763344D01*
X120764117Y-60763346D01*
X120764123Y-60763349D01*
X120855480Y-60801190D01*
X120976113Y-60851158D01*
X121197762Y-60910548D01*
X121425266Y-60940500D01*
X121425273Y-60940500D01*
X121654727Y-60940500D01*
X121654734Y-60940500D01*
X121882238Y-60910548D01*
X122103887Y-60851158D01*
X122315888Y-60763344D01*
X122514612Y-60648611D01*
X122696661Y-60508919D01*
X122696665Y-60508914D01*
X122696670Y-60508911D01*
X122858911Y-60346670D01*
X122858914Y-60346665D01*
X122858919Y-60346661D01*
X122998611Y-60164612D01*
X123113344Y-59965888D01*
X123201158Y-59753887D01*
X123260548Y-59532238D01*
X123290500Y-59304734D01*
X123290500Y-59075266D01*
X123260548Y-58847762D01*
X123201158Y-58626113D01*
X123113344Y-58414112D01*
X122998611Y-58215388D01*
X122998608Y-58215385D01*
X122998607Y-58215382D01*
X122858918Y-58033338D01*
X122858911Y-58033330D01*
X122696670Y-57871089D01*
X122696661Y-57871081D01*
X122637276Y-57825513D01*
X136799500Y-57825513D01*
X136799500Y-58014486D01*
X136829059Y-58201118D01*
X136887454Y-58380836D01*
X136968552Y-58539999D01*
X136973240Y-58549199D01*
X137084310Y-58702073D01*
X137217927Y-58835690D01*
X137370801Y-58946760D01*
X137416797Y-58970196D01*
X137539163Y-59032545D01*
X137539165Y-59032545D01*
X137539168Y-59032547D01*
X137635497Y-59063846D01*
X137718881Y-59090940D01*
X137905514Y-59120500D01*
X137905519Y-59120500D01*
X138094486Y-59120500D01*
X138281118Y-59090940D01*
X138460832Y-59032547D01*
X138609462Y-58956816D01*
X138678128Y-58943920D01*
X138742869Y-58970196D01*
X138783127Y-59027302D01*
X138788940Y-59071207D01*
X138789500Y-59071207D01*
X138789500Y-59304741D01*
X138803542Y-59411395D01*
X138819452Y-59532238D01*
X138868163Y-59714032D01*
X138878842Y-59753887D01*
X138966650Y-59965876D01*
X138966657Y-59965890D01*
X139081392Y-60164617D01*
X139221081Y-60346661D01*
X139221089Y-60346670D01*
X139383330Y-60508911D01*
X139383338Y-60508918D01*
X139565382Y-60648607D01*
X139565385Y-60648608D01*
X139565388Y-60648611D01*
X139764112Y-60763344D01*
X139764117Y-60763346D01*
X139764123Y-60763349D01*
X139855480Y-60801190D01*
X139976113Y-60851158D01*
X140197762Y-60910548D01*
X140425266Y-60940500D01*
X140425273Y-60940500D01*
X140654727Y-60940500D01*
X140654734Y-60940500D01*
X140882238Y-60910548D01*
X141103887Y-60851158D01*
X141315888Y-60763344D01*
X141514612Y-60648611D01*
X141696661Y-60508919D01*
X141696665Y-60508914D01*
X141696670Y-60508911D01*
X141858911Y-60346670D01*
X141858914Y-60346665D01*
X141858919Y-60346661D01*
X141998611Y-60164612D01*
X142113344Y-59965888D01*
X142201158Y-59753887D01*
X142260548Y-59532238D01*
X142290500Y-59304734D01*
X142290500Y-59075266D01*
X142260548Y-58847762D01*
X142201158Y-58626113D01*
X142113344Y-58414112D01*
X141998611Y-58215388D01*
X141998608Y-58215385D01*
X141998607Y-58215382D01*
X141858918Y-58033338D01*
X141858911Y-58033330D01*
X141696670Y-57871089D01*
X141696661Y-57871081D01*
X141514617Y-57731392D01*
X141315890Y-57616657D01*
X141315876Y-57616650D01*
X141103887Y-57528842D01*
X140882238Y-57469452D01*
X140844215Y-57464446D01*
X140654741Y-57439500D01*
X140654734Y-57439500D01*
X140425266Y-57439500D01*
X140425258Y-57439500D01*
X140208715Y-57468009D01*
X140197762Y-57469452D01*
X140104076Y-57494554D01*
X139976112Y-57528842D01*
X139764123Y-57616650D01*
X139764109Y-57616657D01*
X139565382Y-57731392D01*
X139392103Y-57864356D01*
X139326934Y-57889551D01*
X139258489Y-57875513D01*
X139208499Y-57826699D01*
X139194143Y-57785379D01*
X139170940Y-57638881D01*
X139143846Y-57555497D01*
X139112547Y-57459168D01*
X139112545Y-57459165D01*
X139112545Y-57459163D01*
X139059397Y-57354855D01*
X139026760Y-57290801D01*
X138915690Y-57137927D01*
X138782073Y-57004310D01*
X138629199Y-56893240D01*
X138460836Y-56807454D01*
X138281118Y-56749059D01*
X138094486Y-56719500D01*
X138094481Y-56719500D01*
X137905519Y-56719500D01*
X137905514Y-56719500D01*
X137718881Y-56749059D01*
X137539163Y-56807454D01*
X137370800Y-56893240D01*
X137283579Y-56956610D01*
X137217927Y-57004310D01*
X137217925Y-57004312D01*
X137217924Y-57004312D01*
X137084312Y-57137924D01*
X137084312Y-57137925D01*
X137084310Y-57137927D01*
X137062152Y-57168425D01*
X136973240Y-57290800D01*
X136887454Y-57459163D01*
X136829059Y-57638881D01*
X136799500Y-57825513D01*
X122637276Y-57825513D01*
X122514617Y-57731392D01*
X122315890Y-57616657D01*
X122315876Y-57616650D01*
X122103887Y-57528842D01*
X121882238Y-57469452D01*
X121844215Y-57464446D01*
X121654741Y-57439500D01*
X121654734Y-57439500D01*
X121425266Y-57439500D01*
X121425258Y-57439500D01*
X121208715Y-57468009D01*
X121197762Y-57469452D01*
X121104076Y-57494554D01*
X120976112Y-57528842D01*
X120764123Y-57616650D01*
X120764109Y-57616657D01*
X120565382Y-57731392D01*
X120392103Y-57864356D01*
X120326934Y-57889551D01*
X120258489Y-57875513D01*
X120208499Y-57826699D01*
X120194143Y-57785379D01*
X120170940Y-57638881D01*
X120143846Y-57555497D01*
X120112547Y-57459168D01*
X120112545Y-57459165D01*
X120112545Y-57459163D01*
X120059397Y-57354855D01*
X120026760Y-57290801D01*
X119915690Y-57137927D01*
X119782073Y-57004310D01*
X119629199Y-56893240D01*
X119460836Y-56807454D01*
X119281118Y-56749059D01*
X119094486Y-56719500D01*
X119094481Y-56719500D01*
X118905519Y-56719500D01*
X118905514Y-56719500D01*
X118718881Y-56749059D01*
X118539163Y-56807454D01*
X118370800Y-56893240D01*
X118283579Y-56956610D01*
X118217927Y-57004310D01*
X118217925Y-57004312D01*
X118217924Y-57004312D01*
X118084312Y-57137924D01*
X118084312Y-57137925D01*
X118084310Y-57137927D01*
X118062152Y-57168425D01*
X117973240Y-57290800D01*
X117887454Y-57459163D01*
X117829059Y-57638881D01*
X117799500Y-57825513D01*
X103637276Y-57825513D01*
X103514617Y-57731392D01*
X103315890Y-57616657D01*
X103315876Y-57616650D01*
X103103887Y-57528842D01*
X102882238Y-57469452D01*
X102844215Y-57464446D01*
X102654741Y-57439500D01*
X102654734Y-57439500D01*
X102425266Y-57439500D01*
X102425258Y-57439500D01*
X102208715Y-57468009D01*
X102197762Y-57469452D01*
X102104076Y-57494554D01*
X101976112Y-57528842D01*
X101764123Y-57616650D01*
X101764109Y-57616657D01*
X101565382Y-57731392D01*
X101392103Y-57864356D01*
X101326934Y-57889551D01*
X101258489Y-57875513D01*
X101208499Y-57826699D01*
X101194143Y-57785379D01*
X101170940Y-57638881D01*
X101143846Y-57555497D01*
X101112547Y-57459168D01*
X101112545Y-57459165D01*
X101112545Y-57459163D01*
X101059397Y-57354855D01*
X101026760Y-57290801D01*
X100915690Y-57137927D01*
X100782073Y-57004310D01*
X100629199Y-56893240D01*
X100460836Y-56807454D01*
X100281118Y-56749059D01*
X100094486Y-56719500D01*
X100094481Y-56719500D01*
X99905519Y-56719500D01*
X99905514Y-56719500D01*
X99718881Y-56749059D01*
X99539163Y-56807454D01*
X99370800Y-56893240D01*
X99283579Y-56956610D01*
X99217927Y-57004310D01*
X99217925Y-57004312D01*
X99217924Y-57004312D01*
X99084312Y-57137924D01*
X99084312Y-57137925D01*
X99084310Y-57137927D01*
X99062152Y-57168425D01*
X98973240Y-57290800D01*
X98887454Y-57459163D01*
X98829059Y-57638881D01*
X98799500Y-57825513D01*
X95428368Y-57825513D01*
X95318494Y-57668597D01*
X95151402Y-57501506D01*
X95151396Y-57501501D01*
X94965842Y-57371575D01*
X94922217Y-57316998D01*
X94915023Y-57247500D01*
X94946546Y-57185145D01*
X94965842Y-57168425D01*
X94988026Y-57152891D01*
X95151401Y-57038495D01*
X95318495Y-56871401D01*
X95454035Y-56677830D01*
X95553903Y-56463663D01*
X95615063Y-56235408D01*
X95635659Y-56000000D01*
X95635659Y-55999999D01*
X108164341Y-55999999D01*
X108164341Y-56000000D01*
X108184936Y-56235403D01*
X108184938Y-56235413D01*
X108246094Y-56463655D01*
X108246096Y-56463659D01*
X108246097Y-56463663D01*
X108345965Y-56677830D01*
X108345967Y-56677834D01*
X108436728Y-56807453D01*
X108481505Y-56871401D01*
X108648599Y-57038495D01*
X108745384Y-57106265D01*
X108842165Y-57174032D01*
X108842167Y-57174033D01*
X108842170Y-57174035D01*
X109056337Y-57273903D01*
X109284592Y-57335063D01*
X109472918Y-57351539D01*
X109519999Y-57355659D01*
X109520000Y-57355659D01*
X109520001Y-57355659D01*
X109559234Y-57352226D01*
X109755408Y-57335063D01*
X109983663Y-57273903D01*
X110197830Y-57174035D01*
X110391401Y-57038495D01*
X110558495Y-56871401D01*
X110694035Y-56677830D01*
X110793903Y-56463663D01*
X110855063Y-56235408D01*
X110875659Y-56000000D01*
X110855063Y-55764592D01*
X110793903Y-55536337D01*
X110694035Y-55322171D01*
X110558495Y-55128599D01*
X110558494Y-55128597D01*
X110391402Y-54961506D01*
X110391395Y-54961501D01*
X110197834Y-54825967D01*
X110197830Y-54825965D01*
X110197828Y-54825964D01*
X109983663Y-54726097D01*
X109983659Y-54726096D01*
X109983655Y-54726094D01*
X109755413Y-54664938D01*
X109755403Y-54664936D01*
X109520001Y-54644341D01*
X109519999Y-54644341D01*
X109284596Y-54664936D01*
X109284586Y-54664938D01*
X109056344Y-54726094D01*
X109056335Y-54726098D01*
X108842171Y-54825964D01*
X108842169Y-54825965D01*
X108648597Y-54961505D01*
X108481505Y-55128597D01*
X108345965Y-55322169D01*
X108345964Y-55322171D01*
X108246098Y-55536335D01*
X108246094Y-55536344D01*
X108184938Y-55764586D01*
X108184936Y-55764596D01*
X108164341Y-55999999D01*
X95635659Y-55999999D01*
X95615063Y-55764592D01*
X95553903Y-55536337D01*
X95454035Y-55322171D01*
X95318495Y-55128599D01*
X95318494Y-55128597D01*
X95151402Y-54961506D01*
X95151395Y-54961501D01*
X94957834Y-54825967D01*
X94957830Y-54825965D01*
X94957828Y-54825964D01*
X94743663Y-54726097D01*
X94743659Y-54726096D01*
X94743655Y-54726094D01*
X94515413Y-54664938D01*
X94515403Y-54664936D01*
X94280001Y-54644341D01*
X94279999Y-54644341D01*
X94044596Y-54664936D01*
X94044586Y-54664938D01*
X93816344Y-54726094D01*
X93816335Y-54726098D01*
X93602171Y-54825964D01*
X93602169Y-54825965D01*
X93408597Y-54961505D01*
X93241505Y-55128597D01*
X93105965Y-55322169D01*
X93105964Y-55322171D01*
X93006098Y-55536335D01*
X93006094Y-55536344D01*
X92944938Y-55764586D01*
X92944936Y-55764596D01*
X92924341Y-55999999D01*
X90000500Y-55999999D01*
X90000500Y-53506961D01*
X90001280Y-53493077D01*
X90001280Y-53493076D01*
X90011459Y-53402731D01*
X90017635Y-53375670D01*
X90045353Y-53296456D01*
X90057396Y-53271450D01*
X90102046Y-53200389D01*
X90119351Y-53178690D01*
X90178690Y-53119351D01*
X90200389Y-53102046D01*
X90271450Y-53057396D01*
X90296456Y-53045353D01*
X90375670Y-53017635D01*
X90402733Y-53011459D01*
X90465419Y-53004396D01*
X90493079Y-53001280D01*
X90506962Y-53000500D01*
X90565892Y-53000500D01*
X166134108Y-53000500D01*
X166193038Y-53000500D01*
X166206922Y-53001280D01*
G37*
%TD.AperFunction*%
%TD*%
M02*
