%TF.GenerationSoftware,KiCad,Pcbnew,8.0.9-rc1*%
%TF.CreationDate,2026-08-26T23:57:57-06:00*%
%TF.ProjectId,numpad,6e756d70-6164-42e6-9b69-6361645f7063,v1.0.0*%
%TF.SameCoordinates,Original*%
%TF.FileFunction,Legend,Bot*%
%TF.FilePolarity,Positive*%
%FSLAX46Y46*%
G04 Gerber Fmt 4.6, Leading zero omitted, Abs format (unit mm)*
G04 Created by KiCad (PCBNEW 8.0.9-rc1) date 2026-08-26 23:57:57*
%MOMM*%
%LPD*%
G01*
G04 APERTURE LIST*
%ADD10C,0.150000*%
%ADD11C,0.120000*%
G04 APERTURE END LIST*
D10*
X113690476Y-56464819D02*
X114023809Y-55988628D01*
X114261904Y-56464819D02*
X114261904Y-55464819D01*
X114261904Y-55464819D02*
X113880952Y-55464819D01*
X113880952Y-55464819D02*
X113785714Y-55512438D01*
X113785714Y-55512438D02*
X113738095Y-55560057D01*
X113738095Y-55560057D02*
X113690476Y-55655295D01*
X113690476Y-55655295D02*
X113690476Y-55798152D01*
X113690476Y-55798152D02*
X113738095Y-55893390D01*
X113738095Y-55893390D02*
X113785714Y-55941009D01*
X113785714Y-55941009D02*
X113880952Y-55988628D01*
X113880952Y-55988628D02*
X114261904Y-55988628D01*
X113309523Y-56179104D02*
X112833333Y-56179104D01*
X113404761Y-56464819D02*
X113071428Y-55464819D01*
X113071428Y-55464819D02*
X112738095Y-56464819D01*
X112499999Y-55464819D02*
X112261904Y-56464819D01*
X112261904Y-56464819D02*
X112071428Y-55750533D01*
X112071428Y-55750533D02*
X111880952Y-56464819D01*
X111880952Y-56464819D02*
X111642857Y-55464819D01*
X92188094Y-56499819D02*
X92188094Y-55499819D01*
X92188094Y-55499819D02*
X91807142Y-55499819D01*
X91807142Y-55499819D02*
X91711904Y-55547438D01*
X91711904Y-55547438D02*
X91664285Y-55595057D01*
X91664285Y-55595057D02*
X91616666Y-55690295D01*
X91616666Y-55690295D02*
X91616666Y-55833152D01*
X91616666Y-55833152D02*
X91664285Y-55928390D01*
X91664285Y-55928390D02*
X91711904Y-55976009D01*
X91711904Y-55976009D02*
X91807142Y-56023628D01*
X91807142Y-56023628D02*
X92188094Y-56023628D01*
X90664285Y-56499819D02*
X91235713Y-56499819D01*
X90949999Y-56499819D02*
X90949999Y-55499819D01*
X90949999Y-55499819D02*
X91045237Y-55642676D01*
X91045237Y-55642676D02*
X91140475Y-55737914D01*
X91140475Y-55737914D02*
X91235713Y-55785533D01*
X113761904Y-58052438D02*
X113857142Y-58004819D01*
X113857142Y-58004819D02*
X113999999Y-58004819D01*
X113999999Y-58004819D02*
X114142856Y-58052438D01*
X114142856Y-58052438D02*
X114238094Y-58147676D01*
X114238094Y-58147676D02*
X114285713Y-58242914D01*
X114285713Y-58242914D02*
X114333332Y-58433390D01*
X114333332Y-58433390D02*
X114333332Y-58576247D01*
X114333332Y-58576247D02*
X114285713Y-58766723D01*
X114285713Y-58766723D02*
X114238094Y-58861961D01*
X114238094Y-58861961D02*
X114142856Y-58957200D01*
X114142856Y-58957200D02*
X113999999Y-59004819D01*
X113999999Y-59004819D02*
X113904761Y-59004819D01*
X113904761Y-59004819D02*
X113761904Y-58957200D01*
X113761904Y-58957200D02*
X113714285Y-58909580D01*
X113714285Y-58909580D02*
X113714285Y-58576247D01*
X113714285Y-58576247D02*
X113904761Y-58576247D01*
X113285713Y-59004819D02*
X113285713Y-58004819D01*
X113285713Y-58004819D02*
X112714285Y-59004819D01*
X112714285Y-59004819D02*
X112714285Y-58004819D01*
X112238094Y-59004819D02*
X112238094Y-58004819D01*
X112238094Y-58004819D02*
X111999999Y-58004819D01*
X111999999Y-58004819D02*
X111857142Y-58052438D01*
X111857142Y-58052438D02*
X111761904Y-58147676D01*
X111761904Y-58147676D02*
X111714285Y-58242914D01*
X111714285Y-58242914D02*
X111666666Y-58433390D01*
X111666666Y-58433390D02*
X111666666Y-58576247D01*
X111666666Y-58576247D02*
X111714285Y-58766723D01*
X111714285Y-58766723D02*
X111761904Y-58861961D01*
X111761904Y-58861961D02*
X111857142Y-58957200D01*
X111857142Y-58957200D02*
X111999999Y-59004819D01*
X111999999Y-59004819D02*
X112238094Y-59004819D01*
X92188094Y-59039819D02*
X92188094Y-58039819D01*
X92188094Y-58039819D02*
X91807142Y-58039819D01*
X91807142Y-58039819D02*
X91711904Y-58087438D01*
X91711904Y-58087438D02*
X91664285Y-58135057D01*
X91664285Y-58135057D02*
X91616666Y-58230295D01*
X91616666Y-58230295D02*
X91616666Y-58373152D01*
X91616666Y-58373152D02*
X91664285Y-58468390D01*
X91664285Y-58468390D02*
X91711904Y-58516009D01*
X91711904Y-58516009D02*
X91807142Y-58563628D01*
X91807142Y-58563628D02*
X92188094Y-58563628D01*
X90997618Y-58039819D02*
X90902380Y-58039819D01*
X90902380Y-58039819D02*
X90807142Y-58087438D01*
X90807142Y-58087438D02*
X90759523Y-58135057D01*
X90759523Y-58135057D02*
X90711904Y-58230295D01*
X90711904Y-58230295D02*
X90664285Y-58420771D01*
X90664285Y-58420771D02*
X90664285Y-58658866D01*
X90664285Y-58658866D02*
X90711904Y-58849342D01*
X90711904Y-58849342D02*
X90759523Y-58944580D01*
X90759523Y-58944580D02*
X90807142Y-58992200D01*
X90807142Y-58992200D02*
X90902380Y-59039819D01*
X90902380Y-59039819D02*
X90997618Y-59039819D01*
X90997618Y-59039819D02*
X91092856Y-58992200D01*
X91092856Y-58992200D02*
X91140475Y-58944580D01*
X91140475Y-58944580D02*
X91188094Y-58849342D01*
X91188094Y-58849342D02*
X91235713Y-58658866D01*
X91235713Y-58658866D02*
X91235713Y-58420771D01*
X91235713Y-58420771D02*
X91188094Y-58230295D01*
X91188094Y-58230295D02*
X91140475Y-58135057D01*
X91140475Y-58135057D02*
X91092856Y-58087438D01*
X91092856Y-58087438D02*
X90997618Y-58039819D01*
X113547619Y-61544819D02*
X113880952Y-61068628D01*
X114119047Y-61544819D02*
X114119047Y-60544819D01*
X114119047Y-60544819D02*
X113738095Y-60544819D01*
X113738095Y-60544819D02*
X113642857Y-60592438D01*
X113642857Y-60592438D02*
X113595238Y-60640057D01*
X113595238Y-60640057D02*
X113547619Y-60735295D01*
X113547619Y-60735295D02*
X113547619Y-60878152D01*
X113547619Y-60878152D02*
X113595238Y-60973390D01*
X113595238Y-60973390D02*
X113642857Y-61021009D01*
X113642857Y-61021009D02*
X113738095Y-61068628D01*
X113738095Y-61068628D02*
X114119047Y-61068628D01*
X113166666Y-61497200D02*
X113023809Y-61544819D01*
X113023809Y-61544819D02*
X112785714Y-61544819D01*
X112785714Y-61544819D02*
X112690476Y-61497200D01*
X112690476Y-61497200D02*
X112642857Y-61449580D01*
X112642857Y-61449580D02*
X112595238Y-61354342D01*
X112595238Y-61354342D02*
X112595238Y-61259104D01*
X112595238Y-61259104D02*
X112642857Y-61163866D01*
X112642857Y-61163866D02*
X112690476Y-61116247D01*
X112690476Y-61116247D02*
X112785714Y-61068628D01*
X112785714Y-61068628D02*
X112976190Y-61021009D01*
X112976190Y-61021009D02*
X113071428Y-60973390D01*
X113071428Y-60973390D02*
X113119047Y-60925771D01*
X113119047Y-60925771D02*
X113166666Y-60830533D01*
X113166666Y-60830533D02*
X113166666Y-60735295D01*
X113166666Y-60735295D02*
X113119047Y-60640057D01*
X113119047Y-60640057D02*
X113071428Y-60592438D01*
X113071428Y-60592438D02*
X112976190Y-60544819D01*
X112976190Y-60544819D02*
X112738095Y-60544819D01*
X112738095Y-60544819D02*
X112595238Y-60592438D01*
X112309523Y-60544819D02*
X111738095Y-60544819D01*
X112023809Y-61544819D02*
X112023809Y-60544819D01*
X92211904Y-60627438D02*
X92307142Y-60579819D01*
X92307142Y-60579819D02*
X92449999Y-60579819D01*
X92449999Y-60579819D02*
X92592856Y-60627438D01*
X92592856Y-60627438D02*
X92688094Y-60722676D01*
X92688094Y-60722676D02*
X92735713Y-60817914D01*
X92735713Y-60817914D02*
X92783332Y-61008390D01*
X92783332Y-61008390D02*
X92783332Y-61151247D01*
X92783332Y-61151247D02*
X92735713Y-61341723D01*
X92735713Y-61341723D02*
X92688094Y-61436961D01*
X92688094Y-61436961D02*
X92592856Y-61532200D01*
X92592856Y-61532200D02*
X92449999Y-61579819D01*
X92449999Y-61579819D02*
X92354761Y-61579819D01*
X92354761Y-61579819D02*
X92211904Y-61532200D01*
X92211904Y-61532200D02*
X92164285Y-61484580D01*
X92164285Y-61484580D02*
X92164285Y-61151247D01*
X92164285Y-61151247D02*
X92354761Y-61151247D01*
X91735713Y-61579819D02*
X91735713Y-60579819D01*
X91735713Y-60579819D02*
X91164285Y-61579819D01*
X91164285Y-61579819D02*
X91164285Y-60579819D01*
X90688094Y-61579819D02*
X90688094Y-60579819D01*
X90688094Y-60579819D02*
X90449999Y-60579819D01*
X90449999Y-60579819D02*
X90307142Y-60627438D01*
X90307142Y-60627438D02*
X90211904Y-60722676D01*
X90211904Y-60722676D02*
X90164285Y-60817914D01*
X90164285Y-60817914D02*
X90116666Y-61008390D01*
X90116666Y-61008390D02*
X90116666Y-61151247D01*
X90116666Y-61151247D02*
X90164285Y-61341723D01*
X90164285Y-61341723D02*
X90211904Y-61436961D01*
X90211904Y-61436961D02*
X90307142Y-61532200D01*
X90307142Y-61532200D02*
X90449999Y-61579819D01*
X90449999Y-61579819D02*
X90688094Y-61579819D01*
X114333332Y-63084819D02*
X113999999Y-64084819D01*
X113999999Y-64084819D02*
X113666666Y-63084819D01*
X112761904Y-63989580D02*
X112809523Y-64037200D01*
X112809523Y-64037200D02*
X112952380Y-64084819D01*
X112952380Y-64084819D02*
X113047618Y-64084819D01*
X113047618Y-64084819D02*
X113190475Y-64037200D01*
X113190475Y-64037200D02*
X113285713Y-63941961D01*
X113285713Y-63941961D02*
X113333332Y-63846723D01*
X113333332Y-63846723D02*
X113380951Y-63656247D01*
X113380951Y-63656247D02*
X113380951Y-63513390D01*
X113380951Y-63513390D02*
X113333332Y-63322914D01*
X113333332Y-63322914D02*
X113285713Y-63227676D01*
X113285713Y-63227676D02*
X113190475Y-63132438D01*
X113190475Y-63132438D02*
X113047618Y-63084819D01*
X113047618Y-63084819D02*
X112952380Y-63084819D01*
X112952380Y-63084819D02*
X112809523Y-63132438D01*
X112809523Y-63132438D02*
X112761904Y-63180057D01*
X111761904Y-63989580D02*
X111809523Y-64037200D01*
X111809523Y-64037200D02*
X111952380Y-64084819D01*
X111952380Y-64084819D02*
X112047618Y-64084819D01*
X112047618Y-64084819D02*
X112190475Y-64037200D01*
X112190475Y-64037200D02*
X112285713Y-63941961D01*
X112285713Y-63941961D02*
X112333332Y-63846723D01*
X112333332Y-63846723D02*
X112380951Y-63656247D01*
X112380951Y-63656247D02*
X112380951Y-63513390D01*
X112380951Y-63513390D02*
X112333332Y-63322914D01*
X112333332Y-63322914D02*
X112285713Y-63227676D01*
X112285713Y-63227676D02*
X112190475Y-63132438D01*
X112190475Y-63132438D02*
X112047618Y-63084819D01*
X112047618Y-63084819D02*
X111952380Y-63084819D01*
X111952380Y-63084819D02*
X111809523Y-63132438D01*
X111809523Y-63132438D02*
X111761904Y-63180057D01*
X92211904Y-63167438D02*
X92307142Y-63119819D01*
X92307142Y-63119819D02*
X92449999Y-63119819D01*
X92449999Y-63119819D02*
X92592856Y-63167438D01*
X92592856Y-63167438D02*
X92688094Y-63262676D01*
X92688094Y-63262676D02*
X92735713Y-63357914D01*
X92735713Y-63357914D02*
X92783332Y-63548390D01*
X92783332Y-63548390D02*
X92783332Y-63691247D01*
X92783332Y-63691247D02*
X92735713Y-63881723D01*
X92735713Y-63881723D02*
X92688094Y-63976961D01*
X92688094Y-63976961D02*
X92592856Y-64072200D01*
X92592856Y-64072200D02*
X92449999Y-64119819D01*
X92449999Y-64119819D02*
X92354761Y-64119819D01*
X92354761Y-64119819D02*
X92211904Y-64072200D01*
X92211904Y-64072200D02*
X92164285Y-64024580D01*
X92164285Y-64024580D02*
X92164285Y-63691247D01*
X92164285Y-63691247D02*
X92354761Y-63691247D01*
X91735713Y-64119819D02*
X91735713Y-63119819D01*
X91735713Y-63119819D02*
X91164285Y-64119819D01*
X91164285Y-64119819D02*
X91164285Y-63119819D01*
X90688094Y-64119819D02*
X90688094Y-63119819D01*
X90688094Y-63119819D02*
X90449999Y-63119819D01*
X90449999Y-63119819D02*
X90307142Y-63167438D01*
X90307142Y-63167438D02*
X90211904Y-63262676D01*
X90211904Y-63262676D02*
X90164285Y-63357914D01*
X90164285Y-63357914D02*
X90116666Y-63548390D01*
X90116666Y-63548390D02*
X90116666Y-63691247D01*
X90116666Y-63691247D02*
X90164285Y-63881723D01*
X90164285Y-63881723D02*
X90211904Y-63976961D01*
X90211904Y-63976961D02*
X90307142Y-64072200D01*
X90307142Y-64072200D02*
X90449999Y-64119819D01*
X90449999Y-64119819D02*
X90688094Y-64119819D01*
X114214285Y-66624819D02*
X114214285Y-65624819D01*
X114214285Y-65624819D02*
X113833333Y-65624819D01*
X113833333Y-65624819D02*
X113738095Y-65672438D01*
X113738095Y-65672438D02*
X113690476Y-65720057D01*
X113690476Y-65720057D02*
X113642857Y-65815295D01*
X113642857Y-65815295D02*
X113642857Y-65958152D01*
X113642857Y-65958152D02*
X113690476Y-66053390D01*
X113690476Y-66053390D02*
X113738095Y-66101009D01*
X113738095Y-66101009D02*
X113833333Y-66148628D01*
X113833333Y-66148628D02*
X114214285Y-66148628D01*
X113261904Y-65720057D02*
X113214285Y-65672438D01*
X113214285Y-65672438D02*
X113119047Y-65624819D01*
X113119047Y-65624819D02*
X112880952Y-65624819D01*
X112880952Y-65624819D02*
X112785714Y-65672438D01*
X112785714Y-65672438D02*
X112738095Y-65720057D01*
X112738095Y-65720057D02*
X112690476Y-65815295D01*
X112690476Y-65815295D02*
X112690476Y-65910533D01*
X112690476Y-65910533D02*
X112738095Y-66053390D01*
X112738095Y-66053390D02*
X113309523Y-66624819D01*
X113309523Y-66624819D02*
X112690476Y-66624819D01*
X111738095Y-66624819D02*
X112309523Y-66624819D01*
X112023809Y-66624819D02*
X112023809Y-65624819D01*
X112023809Y-65624819D02*
X112119047Y-65767676D01*
X112119047Y-65767676D02*
X112214285Y-65862914D01*
X112214285Y-65862914D02*
X112309523Y-65910533D01*
X92188094Y-66659819D02*
X92188094Y-65659819D01*
X92188094Y-65659819D02*
X91807142Y-65659819D01*
X91807142Y-65659819D02*
X91711904Y-65707438D01*
X91711904Y-65707438D02*
X91664285Y-65755057D01*
X91664285Y-65755057D02*
X91616666Y-65850295D01*
X91616666Y-65850295D02*
X91616666Y-65993152D01*
X91616666Y-65993152D02*
X91664285Y-66088390D01*
X91664285Y-66088390D02*
X91711904Y-66136009D01*
X91711904Y-66136009D02*
X91807142Y-66183628D01*
X91807142Y-66183628D02*
X92188094Y-66183628D01*
X91235713Y-65755057D02*
X91188094Y-65707438D01*
X91188094Y-65707438D02*
X91092856Y-65659819D01*
X91092856Y-65659819D02*
X90854761Y-65659819D01*
X90854761Y-65659819D02*
X90759523Y-65707438D01*
X90759523Y-65707438D02*
X90711904Y-65755057D01*
X90711904Y-65755057D02*
X90664285Y-65850295D01*
X90664285Y-65850295D02*
X90664285Y-65945533D01*
X90664285Y-65945533D02*
X90711904Y-66088390D01*
X90711904Y-66088390D02*
X91283332Y-66659819D01*
X91283332Y-66659819D02*
X90664285Y-66659819D01*
X114214285Y-69164819D02*
X114214285Y-68164819D01*
X114214285Y-68164819D02*
X113833333Y-68164819D01*
X113833333Y-68164819D02*
X113738095Y-68212438D01*
X113738095Y-68212438D02*
X113690476Y-68260057D01*
X113690476Y-68260057D02*
X113642857Y-68355295D01*
X113642857Y-68355295D02*
X113642857Y-68498152D01*
X113642857Y-68498152D02*
X113690476Y-68593390D01*
X113690476Y-68593390D02*
X113738095Y-68641009D01*
X113738095Y-68641009D02*
X113833333Y-68688628D01*
X113833333Y-68688628D02*
X114214285Y-68688628D01*
X113261904Y-68260057D02*
X113214285Y-68212438D01*
X113214285Y-68212438D02*
X113119047Y-68164819D01*
X113119047Y-68164819D02*
X112880952Y-68164819D01*
X112880952Y-68164819D02*
X112785714Y-68212438D01*
X112785714Y-68212438D02*
X112738095Y-68260057D01*
X112738095Y-68260057D02*
X112690476Y-68355295D01*
X112690476Y-68355295D02*
X112690476Y-68450533D01*
X112690476Y-68450533D02*
X112738095Y-68593390D01*
X112738095Y-68593390D02*
X113309523Y-69164819D01*
X113309523Y-69164819D02*
X112690476Y-69164819D01*
X112071428Y-68164819D02*
X111976190Y-68164819D01*
X111976190Y-68164819D02*
X111880952Y-68212438D01*
X111880952Y-68212438D02*
X111833333Y-68260057D01*
X111833333Y-68260057D02*
X111785714Y-68355295D01*
X111785714Y-68355295D02*
X111738095Y-68545771D01*
X111738095Y-68545771D02*
X111738095Y-68783866D01*
X111738095Y-68783866D02*
X111785714Y-68974342D01*
X111785714Y-68974342D02*
X111833333Y-69069580D01*
X111833333Y-69069580D02*
X111880952Y-69117200D01*
X111880952Y-69117200D02*
X111976190Y-69164819D01*
X111976190Y-69164819D02*
X112071428Y-69164819D01*
X112071428Y-69164819D02*
X112166666Y-69117200D01*
X112166666Y-69117200D02*
X112214285Y-69069580D01*
X112214285Y-69069580D02*
X112261904Y-68974342D01*
X112261904Y-68974342D02*
X112309523Y-68783866D01*
X112309523Y-68783866D02*
X112309523Y-68545771D01*
X112309523Y-68545771D02*
X112261904Y-68355295D01*
X112261904Y-68355295D02*
X112214285Y-68260057D01*
X112214285Y-68260057D02*
X112166666Y-68212438D01*
X112166666Y-68212438D02*
X112071428Y-68164819D01*
X92188094Y-69199819D02*
X92188094Y-68199819D01*
X92188094Y-68199819D02*
X91807142Y-68199819D01*
X91807142Y-68199819D02*
X91711904Y-68247438D01*
X91711904Y-68247438D02*
X91664285Y-68295057D01*
X91664285Y-68295057D02*
X91616666Y-68390295D01*
X91616666Y-68390295D02*
X91616666Y-68533152D01*
X91616666Y-68533152D02*
X91664285Y-68628390D01*
X91664285Y-68628390D02*
X91711904Y-68676009D01*
X91711904Y-68676009D02*
X91807142Y-68723628D01*
X91807142Y-68723628D02*
X92188094Y-68723628D01*
X91283332Y-68199819D02*
X90664285Y-68199819D01*
X90664285Y-68199819D02*
X90997618Y-68580771D01*
X90997618Y-68580771D02*
X90854761Y-68580771D01*
X90854761Y-68580771D02*
X90759523Y-68628390D01*
X90759523Y-68628390D02*
X90711904Y-68676009D01*
X90711904Y-68676009D02*
X90664285Y-68771247D01*
X90664285Y-68771247D02*
X90664285Y-69009342D01*
X90664285Y-69009342D02*
X90711904Y-69104580D01*
X90711904Y-69104580D02*
X90759523Y-69152200D01*
X90759523Y-69152200D02*
X90854761Y-69199819D01*
X90854761Y-69199819D02*
X91140475Y-69199819D01*
X91140475Y-69199819D02*
X91235713Y-69152200D01*
X91235713Y-69152200D02*
X91283332Y-69104580D01*
X114214285Y-71704819D02*
X114214285Y-70704819D01*
X114214285Y-70704819D02*
X113833333Y-70704819D01*
X113833333Y-70704819D02*
X113738095Y-70752438D01*
X113738095Y-70752438D02*
X113690476Y-70800057D01*
X113690476Y-70800057D02*
X113642857Y-70895295D01*
X113642857Y-70895295D02*
X113642857Y-71038152D01*
X113642857Y-71038152D02*
X113690476Y-71133390D01*
X113690476Y-71133390D02*
X113738095Y-71181009D01*
X113738095Y-71181009D02*
X113833333Y-71228628D01*
X113833333Y-71228628D02*
X114214285Y-71228628D01*
X112690476Y-71704819D02*
X113261904Y-71704819D01*
X112976190Y-71704819D02*
X112976190Y-70704819D01*
X112976190Y-70704819D02*
X113071428Y-70847676D01*
X113071428Y-70847676D02*
X113166666Y-70942914D01*
X113166666Y-70942914D02*
X113261904Y-70990533D01*
X112214285Y-71704819D02*
X112023809Y-71704819D01*
X112023809Y-71704819D02*
X111928571Y-71657200D01*
X111928571Y-71657200D02*
X111880952Y-71609580D01*
X111880952Y-71609580D02*
X111785714Y-71466723D01*
X111785714Y-71466723D02*
X111738095Y-71276247D01*
X111738095Y-71276247D02*
X111738095Y-70895295D01*
X111738095Y-70895295D02*
X111785714Y-70800057D01*
X111785714Y-70800057D02*
X111833333Y-70752438D01*
X111833333Y-70752438D02*
X111928571Y-70704819D01*
X111928571Y-70704819D02*
X112119047Y-70704819D01*
X112119047Y-70704819D02*
X112214285Y-70752438D01*
X112214285Y-70752438D02*
X112261904Y-70800057D01*
X112261904Y-70800057D02*
X112309523Y-70895295D01*
X112309523Y-70895295D02*
X112309523Y-71133390D01*
X112309523Y-71133390D02*
X112261904Y-71228628D01*
X112261904Y-71228628D02*
X112214285Y-71276247D01*
X112214285Y-71276247D02*
X112119047Y-71323866D01*
X112119047Y-71323866D02*
X111928571Y-71323866D01*
X111928571Y-71323866D02*
X111833333Y-71276247D01*
X111833333Y-71276247D02*
X111785714Y-71228628D01*
X111785714Y-71228628D02*
X111738095Y-71133390D01*
X92188094Y-71739819D02*
X92188094Y-70739819D01*
X92188094Y-70739819D02*
X91807142Y-70739819D01*
X91807142Y-70739819D02*
X91711904Y-70787438D01*
X91711904Y-70787438D02*
X91664285Y-70835057D01*
X91664285Y-70835057D02*
X91616666Y-70930295D01*
X91616666Y-70930295D02*
X91616666Y-71073152D01*
X91616666Y-71073152D02*
X91664285Y-71168390D01*
X91664285Y-71168390D02*
X91711904Y-71216009D01*
X91711904Y-71216009D02*
X91807142Y-71263628D01*
X91807142Y-71263628D02*
X92188094Y-71263628D01*
X90759523Y-71073152D02*
X90759523Y-71739819D01*
X90997618Y-70692200D02*
X91235713Y-71406485D01*
X91235713Y-71406485D02*
X90616666Y-71406485D01*
X114214285Y-74244819D02*
X114214285Y-73244819D01*
X114214285Y-73244819D02*
X113833333Y-73244819D01*
X113833333Y-73244819D02*
X113738095Y-73292438D01*
X113738095Y-73292438D02*
X113690476Y-73340057D01*
X113690476Y-73340057D02*
X113642857Y-73435295D01*
X113642857Y-73435295D02*
X113642857Y-73578152D01*
X113642857Y-73578152D02*
X113690476Y-73673390D01*
X113690476Y-73673390D02*
X113738095Y-73721009D01*
X113738095Y-73721009D02*
X113833333Y-73768628D01*
X113833333Y-73768628D02*
X114214285Y-73768628D01*
X112690476Y-74244819D02*
X113261904Y-74244819D01*
X112976190Y-74244819D02*
X112976190Y-73244819D01*
X112976190Y-73244819D02*
X113071428Y-73387676D01*
X113071428Y-73387676D02*
X113166666Y-73482914D01*
X113166666Y-73482914D02*
X113261904Y-73530533D01*
X112119047Y-73673390D02*
X112214285Y-73625771D01*
X112214285Y-73625771D02*
X112261904Y-73578152D01*
X112261904Y-73578152D02*
X112309523Y-73482914D01*
X112309523Y-73482914D02*
X112309523Y-73435295D01*
X112309523Y-73435295D02*
X112261904Y-73340057D01*
X112261904Y-73340057D02*
X112214285Y-73292438D01*
X112214285Y-73292438D02*
X112119047Y-73244819D01*
X112119047Y-73244819D02*
X111928571Y-73244819D01*
X111928571Y-73244819D02*
X111833333Y-73292438D01*
X111833333Y-73292438D02*
X111785714Y-73340057D01*
X111785714Y-73340057D02*
X111738095Y-73435295D01*
X111738095Y-73435295D02*
X111738095Y-73482914D01*
X111738095Y-73482914D02*
X111785714Y-73578152D01*
X111785714Y-73578152D02*
X111833333Y-73625771D01*
X111833333Y-73625771D02*
X111928571Y-73673390D01*
X111928571Y-73673390D02*
X112119047Y-73673390D01*
X112119047Y-73673390D02*
X112214285Y-73721009D01*
X112214285Y-73721009D02*
X112261904Y-73768628D01*
X112261904Y-73768628D02*
X112309523Y-73863866D01*
X112309523Y-73863866D02*
X112309523Y-74054342D01*
X112309523Y-74054342D02*
X112261904Y-74149580D01*
X112261904Y-74149580D02*
X112214285Y-74197200D01*
X112214285Y-74197200D02*
X112119047Y-74244819D01*
X112119047Y-74244819D02*
X111928571Y-74244819D01*
X111928571Y-74244819D02*
X111833333Y-74197200D01*
X111833333Y-74197200D02*
X111785714Y-74149580D01*
X111785714Y-74149580D02*
X111738095Y-74054342D01*
X111738095Y-74054342D02*
X111738095Y-73863866D01*
X111738095Y-73863866D02*
X111785714Y-73768628D01*
X111785714Y-73768628D02*
X111833333Y-73721009D01*
X111833333Y-73721009D02*
X111928571Y-73673390D01*
X92188094Y-74279819D02*
X92188094Y-73279819D01*
X92188094Y-73279819D02*
X91807142Y-73279819D01*
X91807142Y-73279819D02*
X91711904Y-73327438D01*
X91711904Y-73327438D02*
X91664285Y-73375057D01*
X91664285Y-73375057D02*
X91616666Y-73470295D01*
X91616666Y-73470295D02*
X91616666Y-73613152D01*
X91616666Y-73613152D02*
X91664285Y-73708390D01*
X91664285Y-73708390D02*
X91711904Y-73756009D01*
X91711904Y-73756009D02*
X91807142Y-73803628D01*
X91807142Y-73803628D02*
X92188094Y-73803628D01*
X90711904Y-73279819D02*
X91188094Y-73279819D01*
X91188094Y-73279819D02*
X91235713Y-73756009D01*
X91235713Y-73756009D02*
X91188094Y-73708390D01*
X91188094Y-73708390D02*
X91092856Y-73660771D01*
X91092856Y-73660771D02*
X90854761Y-73660771D01*
X90854761Y-73660771D02*
X90759523Y-73708390D01*
X90759523Y-73708390D02*
X90711904Y-73756009D01*
X90711904Y-73756009D02*
X90664285Y-73851247D01*
X90664285Y-73851247D02*
X90664285Y-74089342D01*
X90664285Y-74089342D02*
X90711904Y-74184580D01*
X90711904Y-74184580D02*
X90759523Y-74232200D01*
X90759523Y-74232200D02*
X90854761Y-74279819D01*
X90854761Y-74279819D02*
X91092856Y-74279819D01*
X91092856Y-74279819D02*
X91188094Y-74232200D01*
X91188094Y-74232200D02*
X91235713Y-74184580D01*
X114214285Y-76784819D02*
X114214285Y-75784819D01*
X114214285Y-75784819D02*
X113833333Y-75784819D01*
X113833333Y-75784819D02*
X113738095Y-75832438D01*
X113738095Y-75832438D02*
X113690476Y-75880057D01*
X113690476Y-75880057D02*
X113642857Y-75975295D01*
X113642857Y-75975295D02*
X113642857Y-76118152D01*
X113642857Y-76118152D02*
X113690476Y-76213390D01*
X113690476Y-76213390D02*
X113738095Y-76261009D01*
X113738095Y-76261009D02*
X113833333Y-76308628D01*
X113833333Y-76308628D02*
X114214285Y-76308628D01*
X112690476Y-76784819D02*
X113261904Y-76784819D01*
X112976190Y-76784819D02*
X112976190Y-75784819D01*
X112976190Y-75784819D02*
X113071428Y-75927676D01*
X113071428Y-75927676D02*
X113166666Y-76022914D01*
X113166666Y-76022914D02*
X113261904Y-76070533D01*
X111785714Y-75784819D02*
X112261904Y-75784819D01*
X112261904Y-75784819D02*
X112309523Y-76261009D01*
X112309523Y-76261009D02*
X112261904Y-76213390D01*
X112261904Y-76213390D02*
X112166666Y-76165771D01*
X112166666Y-76165771D02*
X111928571Y-76165771D01*
X111928571Y-76165771D02*
X111833333Y-76213390D01*
X111833333Y-76213390D02*
X111785714Y-76261009D01*
X111785714Y-76261009D02*
X111738095Y-76356247D01*
X111738095Y-76356247D02*
X111738095Y-76594342D01*
X111738095Y-76594342D02*
X111785714Y-76689580D01*
X111785714Y-76689580D02*
X111833333Y-76737200D01*
X111833333Y-76737200D02*
X111928571Y-76784819D01*
X111928571Y-76784819D02*
X112166666Y-76784819D01*
X112166666Y-76784819D02*
X112261904Y-76737200D01*
X112261904Y-76737200D02*
X112309523Y-76689580D01*
X92188094Y-76819819D02*
X92188094Y-75819819D01*
X92188094Y-75819819D02*
X91807142Y-75819819D01*
X91807142Y-75819819D02*
X91711904Y-75867438D01*
X91711904Y-75867438D02*
X91664285Y-75915057D01*
X91664285Y-75915057D02*
X91616666Y-76010295D01*
X91616666Y-76010295D02*
X91616666Y-76153152D01*
X91616666Y-76153152D02*
X91664285Y-76248390D01*
X91664285Y-76248390D02*
X91711904Y-76296009D01*
X91711904Y-76296009D02*
X91807142Y-76343628D01*
X91807142Y-76343628D02*
X92188094Y-76343628D01*
X90759523Y-75819819D02*
X90949999Y-75819819D01*
X90949999Y-75819819D02*
X91045237Y-75867438D01*
X91045237Y-75867438D02*
X91092856Y-75915057D01*
X91092856Y-75915057D02*
X91188094Y-76057914D01*
X91188094Y-76057914D02*
X91235713Y-76248390D01*
X91235713Y-76248390D02*
X91235713Y-76629342D01*
X91235713Y-76629342D02*
X91188094Y-76724580D01*
X91188094Y-76724580D02*
X91140475Y-76772200D01*
X91140475Y-76772200D02*
X91045237Y-76819819D01*
X91045237Y-76819819D02*
X90854761Y-76819819D01*
X90854761Y-76819819D02*
X90759523Y-76772200D01*
X90759523Y-76772200D02*
X90711904Y-76724580D01*
X90711904Y-76724580D02*
X90664285Y-76629342D01*
X90664285Y-76629342D02*
X90664285Y-76391247D01*
X90664285Y-76391247D02*
X90711904Y-76296009D01*
X90711904Y-76296009D02*
X90759523Y-76248390D01*
X90759523Y-76248390D02*
X90854761Y-76200771D01*
X90854761Y-76200771D02*
X91045237Y-76200771D01*
X91045237Y-76200771D02*
X91140475Y-76248390D01*
X91140475Y-76248390D02*
X91188094Y-76296009D01*
X91188094Y-76296009D02*
X91235713Y-76391247D01*
X114214285Y-79324819D02*
X114214285Y-78324819D01*
X114214285Y-78324819D02*
X113833333Y-78324819D01*
X113833333Y-78324819D02*
X113738095Y-78372438D01*
X113738095Y-78372438D02*
X113690476Y-78420057D01*
X113690476Y-78420057D02*
X113642857Y-78515295D01*
X113642857Y-78515295D02*
X113642857Y-78658152D01*
X113642857Y-78658152D02*
X113690476Y-78753390D01*
X113690476Y-78753390D02*
X113738095Y-78801009D01*
X113738095Y-78801009D02*
X113833333Y-78848628D01*
X113833333Y-78848628D02*
X114214285Y-78848628D01*
X112690476Y-79324819D02*
X113261904Y-79324819D01*
X112976190Y-79324819D02*
X112976190Y-78324819D01*
X112976190Y-78324819D02*
X113071428Y-78467676D01*
X113071428Y-78467676D02*
X113166666Y-78562914D01*
X113166666Y-78562914D02*
X113261904Y-78610533D01*
X111833333Y-78658152D02*
X111833333Y-79324819D01*
X112071428Y-78277200D02*
X112309523Y-78991485D01*
X112309523Y-78991485D02*
X111690476Y-78991485D01*
X92188094Y-79359819D02*
X92188094Y-78359819D01*
X92188094Y-78359819D02*
X91807142Y-78359819D01*
X91807142Y-78359819D02*
X91711904Y-78407438D01*
X91711904Y-78407438D02*
X91664285Y-78455057D01*
X91664285Y-78455057D02*
X91616666Y-78550295D01*
X91616666Y-78550295D02*
X91616666Y-78693152D01*
X91616666Y-78693152D02*
X91664285Y-78788390D01*
X91664285Y-78788390D02*
X91711904Y-78836009D01*
X91711904Y-78836009D02*
X91807142Y-78883628D01*
X91807142Y-78883628D02*
X92188094Y-78883628D01*
X91283332Y-78359819D02*
X90616666Y-78359819D01*
X90616666Y-78359819D02*
X91045237Y-79359819D01*
X114214285Y-81864819D02*
X114214285Y-80864819D01*
X114214285Y-80864819D02*
X113833333Y-80864819D01*
X113833333Y-80864819D02*
X113738095Y-80912438D01*
X113738095Y-80912438D02*
X113690476Y-80960057D01*
X113690476Y-80960057D02*
X113642857Y-81055295D01*
X113642857Y-81055295D02*
X113642857Y-81198152D01*
X113642857Y-81198152D02*
X113690476Y-81293390D01*
X113690476Y-81293390D02*
X113738095Y-81341009D01*
X113738095Y-81341009D02*
X113833333Y-81388628D01*
X113833333Y-81388628D02*
X114214285Y-81388628D01*
X112690476Y-81864819D02*
X113261904Y-81864819D01*
X112976190Y-81864819D02*
X112976190Y-80864819D01*
X112976190Y-80864819D02*
X113071428Y-81007676D01*
X113071428Y-81007676D02*
X113166666Y-81102914D01*
X113166666Y-81102914D02*
X113261904Y-81150533D01*
X111833333Y-80864819D02*
X112023809Y-80864819D01*
X112023809Y-80864819D02*
X112119047Y-80912438D01*
X112119047Y-80912438D02*
X112166666Y-80960057D01*
X112166666Y-80960057D02*
X112261904Y-81102914D01*
X112261904Y-81102914D02*
X112309523Y-81293390D01*
X112309523Y-81293390D02*
X112309523Y-81674342D01*
X112309523Y-81674342D02*
X112261904Y-81769580D01*
X112261904Y-81769580D02*
X112214285Y-81817200D01*
X112214285Y-81817200D02*
X112119047Y-81864819D01*
X112119047Y-81864819D02*
X111928571Y-81864819D01*
X111928571Y-81864819D02*
X111833333Y-81817200D01*
X111833333Y-81817200D02*
X111785714Y-81769580D01*
X111785714Y-81769580D02*
X111738095Y-81674342D01*
X111738095Y-81674342D02*
X111738095Y-81436247D01*
X111738095Y-81436247D02*
X111785714Y-81341009D01*
X111785714Y-81341009D02*
X111833333Y-81293390D01*
X111833333Y-81293390D02*
X111928571Y-81245771D01*
X111928571Y-81245771D02*
X112119047Y-81245771D01*
X112119047Y-81245771D02*
X112214285Y-81293390D01*
X112214285Y-81293390D02*
X112261904Y-81341009D01*
X112261904Y-81341009D02*
X112309523Y-81436247D01*
X92188094Y-81899819D02*
X92188094Y-80899819D01*
X92188094Y-80899819D02*
X91807142Y-80899819D01*
X91807142Y-80899819D02*
X91711904Y-80947438D01*
X91711904Y-80947438D02*
X91664285Y-80995057D01*
X91664285Y-80995057D02*
X91616666Y-81090295D01*
X91616666Y-81090295D02*
X91616666Y-81233152D01*
X91616666Y-81233152D02*
X91664285Y-81328390D01*
X91664285Y-81328390D02*
X91711904Y-81376009D01*
X91711904Y-81376009D02*
X91807142Y-81423628D01*
X91807142Y-81423628D02*
X92188094Y-81423628D01*
X91045237Y-81328390D02*
X91140475Y-81280771D01*
X91140475Y-81280771D02*
X91188094Y-81233152D01*
X91188094Y-81233152D02*
X91235713Y-81137914D01*
X91235713Y-81137914D02*
X91235713Y-81090295D01*
X91235713Y-81090295D02*
X91188094Y-80995057D01*
X91188094Y-80995057D02*
X91140475Y-80947438D01*
X91140475Y-80947438D02*
X91045237Y-80899819D01*
X91045237Y-80899819D02*
X90854761Y-80899819D01*
X90854761Y-80899819D02*
X90759523Y-80947438D01*
X90759523Y-80947438D02*
X90711904Y-80995057D01*
X90711904Y-80995057D02*
X90664285Y-81090295D01*
X90664285Y-81090295D02*
X90664285Y-81137914D01*
X90664285Y-81137914D02*
X90711904Y-81233152D01*
X90711904Y-81233152D02*
X90759523Y-81280771D01*
X90759523Y-81280771D02*
X90854761Y-81328390D01*
X90854761Y-81328390D02*
X91045237Y-81328390D01*
X91045237Y-81328390D02*
X91140475Y-81376009D01*
X91140475Y-81376009D02*
X91188094Y-81423628D01*
X91188094Y-81423628D02*
X91235713Y-81518866D01*
X91235713Y-81518866D02*
X91235713Y-81709342D01*
X91235713Y-81709342D02*
X91188094Y-81804580D01*
X91188094Y-81804580D02*
X91140475Y-81852200D01*
X91140475Y-81852200D02*
X91045237Y-81899819D01*
X91045237Y-81899819D02*
X90854761Y-81899819D01*
X90854761Y-81899819D02*
X90759523Y-81852200D01*
X90759523Y-81852200D02*
X90711904Y-81804580D01*
X90711904Y-81804580D02*
X90664285Y-81709342D01*
X90664285Y-81709342D02*
X90664285Y-81518866D01*
X90664285Y-81518866D02*
X90711904Y-81423628D01*
X90711904Y-81423628D02*
X90759523Y-81376009D01*
X90759523Y-81376009D02*
X90854761Y-81328390D01*
X114214285Y-84404819D02*
X114214285Y-83404819D01*
X114214285Y-83404819D02*
X113833333Y-83404819D01*
X113833333Y-83404819D02*
X113738095Y-83452438D01*
X113738095Y-83452438D02*
X113690476Y-83500057D01*
X113690476Y-83500057D02*
X113642857Y-83595295D01*
X113642857Y-83595295D02*
X113642857Y-83738152D01*
X113642857Y-83738152D02*
X113690476Y-83833390D01*
X113690476Y-83833390D02*
X113738095Y-83881009D01*
X113738095Y-83881009D02*
X113833333Y-83928628D01*
X113833333Y-83928628D02*
X114214285Y-83928628D01*
X112690476Y-84404819D02*
X113261904Y-84404819D01*
X112976190Y-84404819D02*
X112976190Y-83404819D01*
X112976190Y-83404819D02*
X113071428Y-83547676D01*
X113071428Y-83547676D02*
X113166666Y-83642914D01*
X113166666Y-83642914D02*
X113261904Y-83690533D01*
X112071428Y-83404819D02*
X111976190Y-83404819D01*
X111976190Y-83404819D02*
X111880952Y-83452438D01*
X111880952Y-83452438D02*
X111833333Y-83500057D01*
X111833333Y-83500057D02*
X111785714Y-83595295D01*
X111785714Y-83595295D02*
X111738095Y-83785771D01*
X111738095Y-83785771D02*
X111738095Y-84023866D01*
X111738095Y-84023866D02*
X111785714Y-84214342D01*
X111785714Y-84214342D02*
X111833333Y-84309580D01*
X111833333Y-84309580D02*
X111880952Y-84357200D01*
X111880952Y-84357200D02*
X111976190Y-84404819D01*
X111976190Y-84404819D02*
X112071428Y-84404819D01*
X112071428Y-84404819D02*
X112166666Y-84357200D01*
X112166666Y-84357200D02*
X112214285Y-84309580D01*
X112214285Y-84309580D02*
X112261904Y-84214342D01*
X112261904Y-84214342D02*
X112309523Y-84023866D01*
X112309523Y-84023866D02*
X112309523Y-83785771D01*
X112309523Y-83785771D02*
X112261904Y-83595295D01*
X112261904Y-83595295D02*
X112214285Y-83500057D01*
X112214285Y-83500057D02*
X112166666Y-83452438D01*
X112166666Y-83452438D02*
X112071428Y-83404819D01*
X92188094Y-84439819D02*
X92188094Y-83439819D01*
X92188094Y-83439819D02*
X91807142Y-83439819D01*
X91807142Y-83439819D02*
X91711904Y-83487438D01*
X91711904Y-83487438D02*
X91664285Y-83535057D01*
X91664285Y-83535057D02*
X91616666Y-83630295D01*
X91616666Y-83630295D02*
X91616666Y-83773152D01*
X91616666Y-83773152D02*
X91664285Y-83868390D01*
X91664285Y-83868390D02*
X91711904Y-83916009D01*
X91711904Y-83916009D02*
X91807142Y-83963628D01*
X91807142Y-83963628D02*
X92188094Y-83963628D01*
X91140475Y-84439819D02*
X90949999Y-84439819D01*
X90949999Y-84439819D02*
X90854761Y-84392200D01*
X90854761Y-84392200D02*
X90807142Y-84344580D01*
X90807142Y-84344580D02*
X90711904Y-84201723D01*
X90711904Y-84201723D02*
X90664285Y-84011247D01*
X90664285Y-84011247D02*
X90664285Y-83630295D01*
X90664285Y-83630295D02*
X90711904Y-83535057D01*
X90711904Y-83535057D02*
X90759523Y-83487438D01*
X90759523Y-83487438D02*
X90854761Y-83439819D01*
X90854761Y-83439819D02*
X91045237Y-83439819D01*
X91045237Y-83439819D02*
X91140475Y-83487438D01*
X91140475Y-83487438D02*
X91188094Y-83535057D01*
X91188094Y-83535057D02*
X91235713Y-83630295D01*
X91235713Y-83630295D02*
X91235713Y-83868390D01*
X91235713Y-83868390D02*
X91188094Y-83963628D01*
X91188094Y-83963628D02*
X91140475Y-84011247D01*
X91140475Y-84011247D02*
X91045237Y-84058866D01*
X91045237Y-84058866D02*
X90854761Y-84058866D01*
X90854761Y-84058866D02*
X90759523Y-84011247D01*
X90759523Y-84011247D02*
X90711904Y-83963628D01*
X90711904Y-83963628D02*
X90664285Y-83868390D01*
D11*
%TO.C,MCU1*%
X95610000Y-54670000D02*
X92950000Y-54670000D01*
X95610000Y-54670000D02*
X95610000Y-85270000D01*
X95610000Y-85270000D02*
X92950000Y-85270000D01*
X92950000Y-54670000D02*
X92950000Y-85270000D01*
X110850000Y-54670000D02*
X108190000Y-54670000D01*
X110850000Y-54670000D02*
X110850000Y-85270000D01*
X110850000Y-85270000D02*
X108190000Y-85270000D01*
X108190000Y-54670000D02*
X108190000Y-85270000D01*
X92950000Y-57270000D02*
X95610000Y-57270000D01*
%TD*%
M02*
