M48
; DRILL file {KiCad 8.0.9-rc1} date 2026-08-26T23:57:58-0600
; FORMAT={-:-/ absolute / inch / decimal}
; #@! TF.CreationDate,2026-08-26T23:57:58-06:00
; #@! TF.GenerationSoftware,Kicad,Pcbnew,8.0.9-rc1
; #@! TF.FileFunction,Plated,1,2,PTH
FMAT,2
INCH
; #@! TA.AperFunction,Plated,PTH,ComponentDrill
T1C0.0394
%
G90
G05
T1
X3.7118Y-2.2047
X3.7118Y-2.3047
X3.7118Y-2.4047
X3.7118Y-2.5047
X3.7118Y-2.6047
X3.7118Y-2.7047
X3.7118Y-2.8047
X3.7118Y-2.9047
X3.7118Y-3.0047
X3.7118Y-3.1047
X3.7118Y-3.2047
X3.7118Y-3.3047
X4.3118Y-2.2047
X4.3118Y-2.3047
X4.3118Y-2.4047
X4.3118Y-2.5047
X4.3118Y-2.6047
X4.3118Y-2.7047
X4.3118Y-2.8047
X4.3118Y-2.9047
X4.3118Y-3.0047
X4.3118Y-3.1047
X4.3118Y-3.2047
X4.3118Y-3.3047
M30
