M48
; DRILL file {KiCad 8.0.9-rc1} date 2026-08-26T23:57:58-0600
; FORMAT={-:-/ absolute / inch / decimal}
; #@! TF.CreationDate,2026-08-26T23:57:58-06:00
; #@! TF.GenerationSoftware,Kicad,Pcbnew,8.0.9-rc1
; #@! TF.FileFunction,NonPlated,1,2,NPTH
FMAT,2
INCH
; #@! TA.AperFunction,NonPlated,NPTH,ComponentDrill
T1C0.0748
; #@! TA.AperFunction,NonPlated,NPTH,ComponentDrill
T2C0.1181
; #@! TA.AperFunction,NonPlated,NPTH,ComponentDrill
T3C0.1614
%
G90
G05
T1
X3.937Y-2.2803
X3.937Y-2.6803
X3.937Y-3.0283
X3.937Y-3.4283
X3.937Y-3.7764
X3.937Y-4.1764
X4.311Y-4.5244
X4.311Y-4.9244
X4.685Y-2.2803
X4.685Y-2.6803
X4.685Y-3.0283
X4.685Y-3.4283
X4.685Y-3.7764
X4.685Y-4.1764
X5.4331Y-2.2803
X5.4331Y-2.6803
X5.4331Y-3.0283
X5.4331Y-3.4283
X5.4331Y-3.7764
X5.4331Y-4.1764
X5.4331Y-4.5244
X5.4331Y-4.9244
X6.1811Y-2.6543
X6.1811Y-3.0543
X6.1811Y-4.1504
X6.1811Y-4.5504
T2
X4.037Y-2.3303
X4.037Y-3.0783
X4.037Y-3.8264
X4.137Y-2.5803
X4.137Y-3.3283
X4.137Y-4.0764
X4.411Y-4.5744
X4.511Y-4.8244
X4.785Y-2.3303
X4.785Y-3.0783
X4.785Y-3.8264
X4.885Y-2.5803
X4.885Y-3.3283
X4.885Y-4.0764
X5.5331Y-2.3303
X5.5331Y-3.0783
X5.5331Y-3.8264
X5.5331Y-4.5744
X5.6331Y-2.5803
X5.6331Y-3.3283
X5.6331Y-4.0764
X5.6331Y-4.8244
X6.2811Y-2.7043
X6.2811Y-4.2004
X6.3811Y-2.9543
X6.3811Y-4.4504
T3
X3.937Y-2.4803
X3.937Y-3.2283
X3.937Y-3.9764
X4.311Y-4.7244
X4.685Y-2.4803
X4.685Y-3.2283
X4.685Y-3.9764
X5.4331Y-2.4803
X5.4331Y-3.2283
X5.4331Y-3.9764
X5.4331Y-4.7244
X6.1811Y-2.8543
X6.1811Y-4.3504
M30
